999
dxflib 2.0.4.8
  0
SECTION
  2
HEADER
  9
$ACADVER
  1
AC1015
  9
$HANDSEED
  5
FFFF
  9
$DIMADEC
 70
2
  9
$GRIDUNIT
 10
0.0
 20
0.0
  9
$DIMASZ
 40
0.1
  9
$DIMGAP
 40
0.025
  9
$LUNITS
 70
2
  9
$AUPREC
 70
2
  9
$SPLINESEGS
 70
8
  9
$INSUNITS
 70
4
  9
$DIMEXO
 40
0.025
  9
$DIMLUNIT
 70
2
  9
$GRIDMODE
 70
1
  9
$DIMTXT
 40
0.1
  9
$LUPREC
 70
4
  9
$DIMSTYLE
  2
Standard
  9
$PLIMMIN
 10
0.0
 20
0.0
  9
$PLIMMAX
 10
210.0
 20
297.0
  9
$PINSBASE
 10
28.6248705897664735
 20
-178.3342696629216562
 30
0.0
  9
$DIMEXE
 40
0.05
  9
$DIMAUNIT
 70
0
  9
$AUNITS
 70
0
  0
ENDSEC
  0
SECTION
  2
TABLES
  0
TABLE
  2
VPORT
  5
8
100
AcDbSymbolTable
 70
1
  0
VPORT
  5
30
100
AcDbSymbolTableRecord
100
AcDbViewportTableRecord
  2
*Active
 70
0
 10
0.0
 20
0.0
 11
1.0
 21
1.0
 12
286.3055555555554861
 22
148.5
 13
0.0
 23
0.0
 14
10.0
 24
10.0
 15
10.0
 25
10.0
 16
0.0
 26
0.0
 36
1.0
 17
0.0
 27
0.0
 37
0.0
 40
297.0
 41
1.92798353909465
 42
50.0
 43
0.0
 44
0.0
 50
0.0
 51
0.0
 71
0
 72
100
 73
1
 74
3
 75
1
 76
1
 77
0
 78
0
281
0
 65
1
110
0.0
120
0.0
130
0.0
111
1.0
121
0.0
131
0.0
112
0.0
122
1.0
132
0.0
 79
0
146
0.0
  0
ENDTAB
  0
TABLE
  2
LTYPE
  5
5
100
AcDbSymbolTable
 70
21
  0
LTYPE
  5
14
100
AcDbSymbolTableRecord
100
AcDbLinetypeTableRecord
  2
ByBlock
 70
0
  3

 72
65
 73
0
 40
0.0
  0
LTYPE
  5
15
100
AcDbSymbolTableRecord
100
AcDbLinetypeTableRecord
  2
ByLayer
 70
0
  3

 72
65
 73
0
 40
0.0
  0
LTYPE
  5
16
100
AcDbSymbolTableRecord
100
AcDbLinetypeTableRecord
  2
CONTINUOUS
 70
0
  3
Solid line
 72
65
 73
0
 40
0.0
  0
LTYPE
  5
31
100
AcDbSymbolTableRecord
100
AcDbLinetypeTableRecord
  2
DOT
 70
0
  3
Dot . . . . . . . . . . . . . . . . . . . . . .
 72
65
 73
2
 40
6.3499999999999996
 49
0.0
 74
0
 49
-6.3499999999999996
 74
0
  0
LTYPE
  5
32
100
AcDbSymbolTableRecord
100
AcDbLinetypeTableRecord
  2
DOT2
 70
0
  3
Dot (.5x) .....................................
 72
65
 73
2
 40
3.1749999999999998
 49
0.0
 74
0
 49
-3.1749999999999998
 74
0
  0
LTYPE
  5
33
100
AcDbSymbolTableRecord
100
AcDbLinetypeTableRecord
  2
DOTX2
 70
0
  3
Dot (2x) .  .  .  .  .  .  .  .  .  .  .  .  .
 72
65
 73
2
 40
12.6999999999999993
 49
0.0
 74
0
 49
-12.6999999999999993
 74
0
  0
LTYPE
  5
34
100
AcDbSymbolTableRecord
100
AcDbLinetypeTableRecord
  2
DASHED
 70
0
  3
Dashed __ __ __ __ __ __ __ __ __ __ __ __ __ _
 72
65
 73
2
 40
19.0500000000000007
 49
12.6999999999999993
 74
0
 49
-6.3499999999999996
 74
0
  0
LTYPE
  5
35
100
AcDbSymbolTableRecord
100
AcDbLinetypeTableRecord
  2
DASHED2
 70
0
  3
Dashed (.5x) _ _ _ _ _ _ _ _ _ _ _ _ _ _ _ _ _
 72
65
 73
2
 40
9.5250000000000004
 49
6.3499999999999996
 74
0
 49
-3.1749999999999998
 74
0
  0
LTYPE
  5
36
100
AcDbSymbolTableRecord
100
AcDbLinetypeTableRecord
  2
DASHEDX2
 70
0
  3
Dashed (2x) ____  ____  ____  ____  ____  ___
 72
65
 73
2
 40
38.1000000000000014
 49
25.3999999999999986
 74
0
 49
-12.6999999999999993
 74
0
  0
LTYPE
  5
37
100
AcDbSymbolTableRecord
100
AcDbLinetypeTableRecord
  2
DASHDOT
 70
0
  3
Dash dot __ . __ . __ . __ . __ . __ . __ . __
 72
65
 73
4
 40
25.3999999999999986
 49
12.6999999999999993
 74
0
 49
-6.3499999999999996
 74
0
 49
0.0
 74
0
 49
-6.3499999999999996
 74
0
  0
LTYPE
  5
38
100
AcDbSymbolTableRecord
100
AcDbLinetypeTableRecord
  2
DASHDOT2
 70
0
  3
Dash dot (.5x) _._._._._._._._._._._._._._._.
 72
65
 73
4
 40
12.6999999999999993
 49
6.3499999999999996
 74
0
 49
-3.1749999999999998
 74
0
 49
0.0
 74
0
 49
-3.1749999999999998
 74
0
  0
LTYPE
  5
39
100
AcDbSymbolTableRecord
100
AcDbLinetypeTableRecord
  2
DASHDOTX2
 70
0
  3
Dash dot (2x) ____  .  ____  .  ____  .  ___
 72
65
 73
4
 40
50.7999999999999972
 49
25.3999999999999986
 74
0
 49
-12.6999999999999993
 74
0
 49
0.0
 74
0
 49
-12.6999999999999993
 74
0
  0
LTYPE
  5
3A
100
AcDbSymbolTableRecord
100
AcDbLinetypeTableRecord
  2
DIVIDE
 70
0
  3
Divide ____ . . ____ . . ____ . . ____ . . ____
 72
65
 73
6
 40
31.75
 49
12.6999999999999993
 74
0
 49
-6.3499999999999996
 74
0
 49
0.0
 74
0
 49
-6.3499999999999996
 74
0
 49
0.0
 74
0
 49
-6.3499999999999996
 74
0
  0
LTYPE
  5
3B
100
AcDbSymbolTableRecord
100
AcDbLinetypeTableRecord
  2
DIVIDE2
 70
0
  3
Divide (.5x) __..__..__..__..__..__..__..__.._
 72
65
 73
6
 40
15.875
 49
6.3499999999999996
 74
0
 49
-3.1749999999999998
 74
0
 49
0.0
 74
0
 49
-3.1749999999999998
 74
0
 49
0.0
 74
0
 49
-3.1749999999999998
 74
0
  0
LTYPE
  5
3C
100
AcDbSymbolTableRecord
100
AcDbLinetypeTableRecord
  2
DIVIDEX2
 70
0
  3
Divide (2x) ________  .  .  ________  .  .  _
 72
65
 73
6
 40
63.5
 49
25.3999999999999986
 74
0
 49
-12.6999999999999993
 74
0
 49
0.0
 74
0
 49
-12.6999999999999993
 74
0
 49
0.0
 74
0
 49
-12.6999999999999993
 74
0
  0
LTYPE
  5
3D
100
AcDbSymbolTableRecord
100
AcDbLinetypeTableRecord
  2
CENTER
 70
0
  3
Center ____ _ ____ _ ____ _ ____ _ ____ _ ____
 72
65
 73
4
 40
50.7999999999999972
 49
31.75
 74
0
 49
-6.3499999999999996
 74
0
 49
6.3499999999999996
 74
0
 49
-6.3499999999999996
 74
0
  0
LTYPE
  5
3E
100
AcDbSymbolTableRecord
100
AcDbLinetypeTableRecord
  2
CENTER2
 70
0
  3
Center (.5x) ___ _ ___ _ ___ _ ___ _ ___ _ ___
 72
65
 73
4
 40
28.5749999999999993
 49
19.0500000000000007
 74
0
 49
-3.1749999999999998
 74
0
 49
3.1749999999999998
 74
0
 49
-3.1749999999999998
 74
0
  0
LTYPE
  5
3F
100
AcDbSymbolTableRecord
100
AcDbLinetypeTableRecord
  2
CENTERX2
 70
0
  3
Center (2x) ________  __  ________  __  _____
 72
65
 73
4
 40
101.5999999999999943
 49
63.5
 74
0
 49
-12.6999999999999993
 74
0
 49
12.6999999999999993
 74
0
 49
-12.6999999999999993
 74
0
  0
LTYPE
  5
40
100
AcDbSymbolTableRecord
100
AcDbLinetypeTableRecord
  2
BORDER
 70
0
  3
Border __ __ . __ __ . __ __ . __ __ . __ __ .
 72
65
 73
6
 40
44.4500000000000028
 49
12.6999999999999993
 74
0
 49
-6.3499999999999996
 74
0
 49
12.6999999999999993
 74
0
 49
-6.3499999999999996
 74
0
 49
0.0
 74
0
 49
-6.3499999999999996
 74
0
  0
LTYPE
  5
41
100
AcDbSymbolTableRecord
100
AcDbLinetypeTableRecord
  2
BORDER2
 70
0
  3
Border (.5x) __.__.__.__.__.__.__.__.__.__.__.
 72
65
 73
6
 40
22.2250000000000014
 49
6.3499999999999996
 74
0
 49
-3.1749999999999998
 74
0
 49
6.3499999999999996
 74
0
 49
-3.1749999999999998
 74
0
 49
0.0
 74
0
 49
-3.1749999999999998
 74
0
  0
LTYPE
  5
42
100
AcDbSymbolTableRecord
100
AcDbLinetypeTableRecord
  2
BORDERX2
 70
0
  3
Border (2x) ____  ____  .  ____  ____  .  ___
 72
65
 73
6
 40
88.9000000000000057
 49
25.3999999999999986
 74
0
 49
-12.6999999999999993
 74
0
 49
25.3999999999999986
 74
0
 49
-12.6999999999999993
 74
0
 49
0.0
 74
0
 49
-12.6999999999999993
 74
0
  0
ENDTAB
  0
TABLE
  2
LAYER
  5
2
100
AcDbSymbolTable
 70
7
  0
LAYER
  5
10
100
AcDbSymbolTableRecord
100
AcDbLayerTableRecord
  2
0
 70
0
 62
7
  6
CONTINUOUS
370
0
390
F
  0
LAYER
  5
43
100
AcDbSymbolTableRecord
100
AcDbLayerTableRecord
  2
board
 70
0
 62
7
  6
CONTINUOUS
370
0
390
F
  0
LAYER
  5
44
100
AcDbSymbolTableRecord
100
AcDbLayerTableRecord
  2
wires
 70
0
 62
96
  6
CONTINUOUS
370
9
390
F
  0
LAYER
  5
45
100
AcDbSymbolTableRecord
100
AcDbLayerTableRecord
  2
components
 70
0
 62
5
  6
CONTINUOUS
370
0
390
F
  0
LAYER
  5
46
100
AcDbSymbolTableRecord
100
AcDbLayerTableRecord
  2
chassis
 70
0
 62
7
  6
CONTINUOUS
370
0
390
F
  0
LAYER
  5
47
100
AcDbSymbolTableRecord
100
AcDbLayerTableRecord
  2
transformers
 70
0
 62
1
  6
CONTINUOUS
370
0
390
F
  0
LAYER
  5
48
100
AcDbSymbolTableRecord
100
AcDbLayerTableRecord
  2
underboard wires
 70
0
 62
4
  6
DASHDOT2
370
0
390
F
  0
ENDTAB
  0
TABLE
  2
STYLE
  5
3
100
AcDbSymbolTable
 70
1
  0
STYLE
  5
11
100
AcDbSymbolTableRecord
100
AcDbTextStyleTableRecord
  2
Standard
 70
0
 40
0.0
 41
0.75
 50
0.0
 71
0
 42
2.5
  3
txt
  4

  0
ENDTAB
  0
TABLE
  2
VIEW
  5
6
100
AcDbSymbolTable
 70
0
  0
ENDTAB
  0
TABLE
  2
UCS
  5
7
100
AcDbSymbolTable
 70
0
  0
ENDTAB
  0
TABLE
  2
APPID
  5
9
100
AcDbSymbolTable
 70
1
  0
APPID
  5
12
100
AcDbSymbolTableRecord
100
AcDbRegAppTableRecord
  2
ACAD
 70
0
  0
ENDTAB
  0
TABLE
  2
DIMSTYLE
  5
A
100
AcDbSymbolTable
 70
1
100
AcDbDimStyleTable
 71
0
  0
DIMSTYLE
105
27
100
AcDbSymbolTableRecord
100
AcDbDimStyleTableRecord
  2
Standard
 41
0.1
 42
0.025
 43
3.75
 44
0.05
 70
0
 73
0
 74
0
 77
1
 78
8
140
0.1
141
2.5
143
0.03937007874016
147
0.025
171
3
172
1
271
2
272
2
274
3
278
44
283
0
284
8
340
11
  0
ENDTAB
  0
TABLE
  2
BLOCK_RECORD
  5
1
100
AcDbSymbolTable
 70
1
  0
BLOCK_RECORD
  5
1F
100
AcDbSymbolTableRecord
100
AcDbBlockTableRecord
  2
*Model_Space
340
22
  0
BLOCK_RECORD
  5
1B
100
AcDbSymbolTableRecord
100
AcDbBlockTableRecord
  2
*Paper_Space
340
1E
  0
BLOCK_RECORD
  5
23
100
AcDbSymbolTableRecord
100
AcDbBlockTableRecord
  2
*Paper_Space0
340
26
  0
ENDTAB
  0
ENDSEC
  0
SECTION
  2
BLOCKS
  0
BLOCK
  5
20
100
AcDbEntity
  8
0
100
AcDbBlockBegin
  2
*Model_Space
 70
0
 10
0.0
 20
0.0
 30
0.0
  3
*Model_Space
  1

  0
ENDBLK
  5
21
100
AcDbEntity
  8
0
100
AcDbBlockEnd
  0
BLOCK
  5
1C
100
AcDbEntity
 67
1
  8
0
100
AcDbBlockBegin
  2
*Paper_Space
 70
0
 10
0.0
 20
0.0
 30
0.0
  3
*Paper_Space
  1

  0
ENDBLK
  5
1D
100
AcDbEntity
 67
1
  8
0
100
AcDbBlockEnd
  0
BLOCK
  5
24
100
AcDbEntity
  8
0
100
AcDbBlockBegin
  2
*Paper_Space0
 70
0
 10
0.0
 20
0.0
 30
0.0
  3
*Paper_Space0
  1

  0
ENDBLK
  5
25
100
AcDbEntity
  8
0
100
AcDbBlockEnd
  0
ENDSEC
  0
SECTION
  2
ENTITIES
  0
CIRCLE
  5
49
100
AcDbEntity
100
AcDbCircle
  8
board
 62
256
370
-1
  6
ByLayer
 10
110.0
 20
390.0
 30
0.0
 40
1.2
  0
CIRCLE
  5
4A
100
AcDbEntity
100
AcDbCircle
  8
board
 62
256
370
-1
  6
ByLayer
 10
85.0
 20
390.0
 30
0.0
 40
1.2
  0
CIRCLE
  5
4B
100
AcDbEntity
100
AcDbCircle
  8
board
 62
256
370
-1
  6
ByLayer
 10
60.0
 20
280.0
 30
0.0
 40
1.2
  0
CIRCLE
  5
4C
100
AcDbEntity
100
AcDbCircle
  8
board
 62
256
370
-1
  6
ByLayer
 10
100.0
 20
280.0
 30
0.0
 40
1.2
  0
CIRCLE
  5
4D
100
AcDbEntity
100
AcDbCircle
  8
board
 62
256
370
-1
  6
ByLayer
 10
60.0
 20
270.0
 30
0.0
 40
1.2
  0
CIRCLE
  5
4E
100
AcDbEntity
100
AcDbCircle
  8
board
 62
256
370
-1
  6
ByLayer
 10
109.9999999999996021
 20
270.0
 30
0.0
 40
1.2
  0
CIRCLE
  5
4F
100
AcDbEntity
100
AcDbCircle
  8
board
 62
256
370
-1
  6
ByLayer
 10
59.9999999999998863
 20
260.0
 30
0.0
 40
1.2
  0
CIRCLE
  5
50
100
AcDbEntity
100
AcDbCircle
  8
board
 62
256
370
-1
  6
ByLayer
 10
109.9999999999997158
 20
260.0
 30
0.0
 40
1.2
  0
CIRCLE
  5
51
100
AcDbEntity
100
AcDbCircle
  8
board
 62
256
370
-1
  6
ByLayer
 10
69.9999999999998863
 20
250.0
 30
0.0
 40
1.2
  0
CIRCLE
  5
52
100
AcDbEntity
100
AcDbCircle
  8
board
 62
256
370
-1
  6
ByLayer
 10
69.9999999999998863
 20
250.0
 30
0.0
 40
1.2
  0
CIRCLE
  5
53
100
AcDbEntity
100
AcDbCircle
  8
board
 62
256
370
-1
  6
ByLayer
 10
109.9999999999995453
 20
250.0
 30
0.0
 40
1.2
  0
CIRCLE
  5
54
100
AcDbEntity
100
AcDbCircle
  8
board
 62
256
370
-1
  6
ByLayer
 10
49.9999999999999432
 20
230.0
 30
0.0
 40
1.2
  0
CIRCLE
  5
55
100
AcDbEntity
100
AcDbCircle
  8
board
 62
256
370
-1
  6
ByLayer
 10
109.9999999999999432
 20
230.0
 30
0.0
 40
1.2
  0
CIRCLE
  5
56
100
AcDbEntity
100
AcDbCircle
  8
board
 62
256
370
-1
  6
ByLayer
 10
49.9999999999998863
 20
200.0000000000000284
 30
0.0
 40
1.2
  0
CIRCLE
  5
57
100
AcDbEntity
100
AcDbCircle
  8
board
 62
256
370
-1
  6
ByLayer
 10
110.0000000000000568
 20
199.9999999999999716
 30
0.0
 40
1.2
  0
CIRCLE
  5
58
100
AcDbEntity
100
AcDbCircle
  8
board
 62
256
370
-1
  6
ByLayer
 10
50.0
 20
170.0
 30
0.0
 40
1.2
  0
CIRCLE
  5
59
100
AcDbEntity
100
AcDbCircle
  8
board
 62
256
370
-1
  6
ByLayer
 10
49.9999999999997726
 20
160.0000000000000568
 30
0.0
 40
1.2
  0
LINE
  5
5A
100
AcDbEntity
100
AcDbLine
  8
wires
 62
256
370
-1
  6
ByLayer
 10
110.0
 20
390.0
 30
0.0
 11
110.0
 21
340.0
 31
0.0
  0
LINE
  5
5B
100
AcDbEntity
100
AcDbLine
  8
wires
 62
256
370
-1
  6
ByLayer
 10
110.0
 20
340.0
 30
0.0
 11
109.9999999999998295
 21
330.0
 31
0.0
  0
LINE
  5
5C
100
AcDbEntity
100
AcDbLine
  8
wires
 62
256
370
-1
  6
ByLayer
 10
109.9999999999998295
 20
330.0
 30
0.0
 11
110.0000000000002274
 21
310.0
 31
0.0
  0
LINE
  5
5D
100
AcDbEntity
100
AcDbLine
  8
wires
 62
256
370
-1
  6
ByLayer
 10
110.0000000000002274
 20
310.0
 30
0.0
 11
109.9999999999996021
 21
270.0
 31
0.0
  0
LINE
  5
5E
100
AcDbEntity
100
AcDbLine
  8
wires
 62
256
370
-1
  6
ByLayer
 10
109.9999999999996021
 20
270.0
 30
0.0
 11
109.9999999999997158
 21
260.0
 31
0.0
  0
LINE
  5
5F
100
AcDbEntity
100
AcDbLine
  8
wires
 62
256
370
-1
  6
ByLayer
 10
109.9999999999997158
 20
260.0
 30
0.0
 11
109.9999999999995453
 21
250.0
 31
0.0
  0
LINE
  5
60
100
AcDbEntity
100
AcDbLine
  8
wires
 62
256
370
-1
  6
ByLayer
 10
109.9999999999995453
 20
250.0
 30
0.0
 11
109.9999999999999432
 21
230.0
 31
0.0
  0
LINE
  5
61
100
AcDbEntity
100
AcDbLine
  8
wires
 62
256
370
-1
  6
ByLayer
 10
109.9999999999999432
 20
230.0
 30
0.0
 11
110.0000000000000568
 21
199.9999999999999716
 31
0.0
  0
LINE
  5
62
100
AcDbEntity
100
AcDbLine
  8
wires
 62
256
370
-1
  6
ByLayer
 10
50.0
 20
170.0
 30
0.0
 11
49.9999999999997726
 21
160.0000000000000568
 31
0.0
  0
LINE
  5
63
100
AcDbEntity
100
AcDbLine
  8
components
 62
256
370
-1
  6
ByLayer
 10
67.0
 20
392.0
 30
0.0
 11
67.0
 21
388.0
 31
0.0
  0
LINE
  5
64
100
AcDbEntity
100
AcDbLine
  8
components
 62
256
370
-1
  6
ByLayer
 10
67.0
 20
388.0
 30
0.0
 11
77.0
 21
388.0
 31
0.0
  0
LINE
  5
65
100
AcDbEntity
100
AcDbLine
  8
components
 62
256
370
-1
  6
ByLayer
 10
77.0
 20
388.0
 30
0.0
 11
77.0
 21
392.0
 31
0.0
  0
LINE
  5
66
100
AcDbEntity
100
AcDbLine
  8
components
 62
256
370
-1
  6
ByLayer
 10
77.0
 20
392.0
 30
0.0
 11
67.0
 21
392.0
 31
0.0
  0
LINE
  5
67
100
AcDbEntity
100
AcDbLine
  8
components
 62
256
370
-1
  6
ByLayer
 10
92.9999999999999432
 20
392.0
 30
0.0
 11
92.9999999999999432
 21
388.0
 31
0.0
  0
LINE
  5
68
100
AcDbEntity
100
AcDbLine
  8
components
 62
256
370
-1
  6
ByLayer
 10
92.9999999999999432
 20
388.0
 30
0.0
 11
102.9999999999999432
 21
388.0
 31
0.0
  0
LINE
  5
69
100
AcDbEntity
100
AcDbLine
  8
components
 62
256
370
-1
  6
ByLayer
 10
102.9999999999999432
 20
388.0
 30
0.0
 11
102.9999999999999432
 21
392.0
 31
0.0
  0
LINE
  5
6A
100
AcDbEntity
100
AcDbLine
  8
components
 62
256
370
-1
  6
ByLayer
 10
102.9999999999999432
 20
392.0
 30
0.0
 11
92.9999999999999432
 21
392.0
 31
0.0
  0
LINE
  5
6B
100
AcDbEntity
100
AcDbLine
  8
components
 62
256
370
-1
  6
ByLayer
 10
75.0000000000000568
 20
272.0
 30
0.0
 11
75.0
 21
267.9999999999999432
 31
0.0
  0
LINE
  5
6C
100
AcDbEntity
100
AcDbLine
  8
components
 62
256
370
-1
  6
ByLayer
 10
75.0
 20
267.9999999999999432
 30
0.0
 11
85.0
 21
267.9999999999999432
 31
0.0
  0
LINE
  5
6D
100
AcDbEntity
100
AcDbLine
  8
components
 62
256
370
-1
  6
ByLayer
 10
85.0
 20
267.9999999999999432
 30
0.0
 11
84.9999999999998863
 21
272.0
 31
0.0
  0
LINE
  5
6E
100
AcDbEntity
100
AcDbLine
  8
components
 62
256
370
-1
  6
ByLayer
 10
84.9999999999998863
 20
272.0
 30
0.0
 11
75.0000000000000568
 21
272.0
 31
0.0
  0
LINE
  5
6F
100
AcDbEntity
100
AcDbLine
  8
components
 62
256
370
-1
  6
ByLayer
 10
76.9999999999999432
 20
390.0
 30
0.0
 11
85.0
 21
390.0
 31
0.0
  0
LINE
  5
70
100
AcDbEntity
100
AcDbLine
  8
components
 62
256
370
-1
  6
ByLayer
 10
85.0
 20
390.0
 30
0.0
 11
81.0
 21
390.0
 31
0.0
  0
LINE
  5
71
100
AcDbEntity
100
AcDbLine
  8
components
 62
256
370
-1
  6
ByLayer
 10
81.0
 20
390.0
 30
0.0
 11
93.0
 21
390.0
 31
0.0
  0
LINE
  5
72
100
AcDbEntity
100
AcDbLine
  8
components
 62
256
370
-1
  6
ByLayer
 10
103.0
 20
390.0
 30
0.0
 11
110.0
 21
390.0
 31
0.0
  0
LINE
  5
73
100
AcDbEntity
100
AcDbLine
  8
components
 62
256
370
-1
  6
ByLayer
 10
75.0
 20
270.0
 30
0.0
 11
60.0
 21
270.0
 31
0.0
  0
LINE
  5
74
100
AcDbEntity
100
AcDbLine
  8
components
 62
256
370
-1
  6
ByLayer
 10
85.0000000000001137
 20
270.0
 30
0.0
 11
109.9999999999996021
 21
270.0
 31
0.0
  0
LINE
  5
75
100
AcDbEntity
100
AcDbLine
  8
components
 62
256
370
-1
  6
ByLayer
 10
78.0
 20
393.0
 30
0.0
 11
68.0
 21
393.0
 31
0.0
  0
LINE
  5
76
100
AcDbEntity
100
AcDbLine
  8
components
 62
256
370
-1
  6
ByLayer
 10
63.9999999999999432
 20
393.0
 30
0.0
 11
64.0
 21
387.0
 31
0.0
  0
LINE
  5
77
100
AcDbEntity
100
AcDbLine
  8
components
 62
256
370
-1
  6
ByLayer
 10
67.9999999999999432
 20
387.0
 30
0.0
 11
78.0
 21
387.0
 31
0.0
  0
LINE
  5
78
100
AcDbEntity
100
AcDbLine
  8
components
 62
256
370
-1
  6
ByLayer
 10
78.0
 20
387.0
 30
0.0
 11
78.0
 21
393.0
 31
0.0
  0
ARC
  5
79
100
AcDbEntity
  8
components
 62
256
370
-1
  6
ByLayer
100
AcDbCircle
 10
66.0
 20
385.5
 30
0.0
 40
2.5
100
AcDbArc
 50
36.8698976458440129
 51
143.13010235415598
  0
ARC
  5
7A
100
AcDbEntity
  8
components
 62
256
370
-1
  6
ByLayer
100
AcDbCircle
 10
66.0
 20
394.5
 30
0.0
 40
2.5
100
AcDbArc
 50
216.86989764584402
 51
323.1301023541560085
  0
LINE
  5
7B
100
AcDbEntity
100
AcDbLine
  8
components
 62
256
370
-1
  6
ByLayer
 10
97.9999999999998295
 20
253.0000000000000284
 30
0.0
 11
87.9999999999999432
 21
253.0
 31
0.0
  0
LINE
  5
7C
100
AcDbEntity
100
AcDbLine
  8
components
 62
256
370
-1
  6
ByLayer
 10
83.9999999999998863
 20
253.0000000000000284
 30
0.0
 11
83.9999999999998295
 21
247.0000000000000284
 31
0.0
  0
LINE
  5
7D
100
AcDbEntity
100
AcDbLine
  8
components
 62
256
370
-1
  6
ByLayer
 10
87.9999999999997726
 20
247.0
 30
0.0
 11
97.9999999999997158
 21
246.9999999999999716
 31
0.0
  0
LINE
  5
7E
100
AcDbEntity
100
AcDbLine
  8
components
 62
256
370
-1
  6
ByLayer
 10
97.9999999999997158
 20
246.9999999999999716
 30
0.0
 11
97.9999999999998295
 21
253.0000000000000284
 31
0.0
  0
ARC
  5
7F
100
AcDbEntity
  8
components
 62
256
370
-1
  6
ByLayer
100
AcDbCircle
 10
85.9999999999998863
 20
245.5
 30
0.0
 40
2.5
100
AcDbArc
 50
36.8698976458440129
 51
143.13010235415598
  0
ARC
  5
80
100
AcDbEntity
  8
components
 62
256
370
-1
  6
ByLayer
100
AcDbCircle
 10
85.9999999999998863
 20
254.5000000000000284
 30
0.0
 40
2.5
100
AcDbArc
 50
216.86989764584402
 51
323.1301023541560085
  0
LINE
  5
81
100
AcDbEntity
100
AcDbLine
  8
components
 62
256
370
-1
  6
ByLayer
 10
48.0
 20
222.0000000000000284
 30
0.0
 11
48.0000000000001137
 21
208.0
 31
0.0
  0
LINE
  5
82
100
AcDbEntity
100
AcDbLine
  8
components
 62
256
370
-1
  6
ByLayer
 10
48.0000000000001137
 20
208.0
 30
0.0
 11
51.9999999999997726
 21
208.0000000000000568
 31
0.0
  0
LINE
  5
83
100
AcDbEntity
100
AcDbLine
  8
components
 62
256
370
-1
  6
ByLayer
 10
51.9999999999997726
 20
208.0000000000000568
 30
0.0
 11
52.0
 21
222.0
 31
0.0
  0
LINE
  5
84
100
AcDbEntity
100
AcDbLine
  8
components
 62
256
370
-1
  6
ByLayer
 10
52.0
 20
222.0
 30
0.0
 11
48.0
 21
222.0000000000000284
 31
0.0
  0
LINE
  5
85
100
AcDbEntity
100
AcDbLine
  8
components
 62
256
370
-1
  6
ByLayer
 10
47.9999999999997158
 20
192.0000000000000568
 30
0.0
 11
48.0
 21
178.0
 31
0.0
  0
LINE
  5
86
100
AcDbEntity
100
AcDbLine
  8
components
 62
256
370
-1
  6
ByLayer
 10
48.0
 20
178.0
 30
0.0
 11
52.0
 21
178.0000000000000568
 31
0.0
  0
LINE
  5
87
100
AcDbEntity
100
AcDbLine
  8
components
 62
256
370
-1
  6
ByLayer
 10
52.0
 20
178.0000000000000568
 30
0.0
 11
51.9999999999997726
 21
192.0000000000000568
 31
0.0
  0
LINE
  5
88
100
AcDbEntity
100
AcDbLine
  8
components
 62
256
370
-1
  6
ByLayer
 10
51.9999999999997726
 20
192.0000000000000568
 30
0.0
 11
47.9999999999997158
 21
192.0000000000000568
 31
0.0
  0
LINE
  5
89
100
AcDbEntity
100
AcDbLine
  8
components
 62
256
370
-1
  6
ByLayer
 10
49.9999999999999432
 20
230.0
 30
0.0
 11
50.0000000000000568
 21
222.0
 31
0.0
  0
LINE
  5
8A
100
AcDbEntity
100
AcDbLine
  8
components
 62
256
370
-1
  6
ByLayer
 10
49.9999999999999432
 20
207.9999999999999716
 30
0.0
 11
49.9999999999998863
 21
200.0000000000000284
 31
0.0
  0
LINE
  5
8B
100
AcDbEntity
100
AcDbLine
  8
components
 62
256
370
-1
  6
ByLayer
 10
49.9999999999998863
 20
200.0000000000000284
 30
0.0
 11
50.0000000000001705
 21
191.9999999999999432
 31
0.0
  0
LINE
  5
8C
100
AcDbEntity
100
AcDbLine
  8
components
 62
256
370
-1
  6
ByLayer
 10
49.9999999999996589
 20
178.0000000000000568
 30
0.0
 11
50.0
 21
170.0
 31
0.0
  0
LINE
  5
8D
100
AcDbEntity
100
AcDbLine
  8
components
 62
256
370
-1
  6
ByLayer
 10
71.9999999999998863
 20
263.0
 30
0.0
 11
72.0
 21
257.0
 31
0.0
  0
LINE
  5
8E
100
AcDbEntity
100
AcDbLine
  8
components
 62
256
370
-1
  6
ByLayer
 10
72.0
 20
257.0
 30
0.0
 11
87.9999999999998863
 21
257.0
 31
0.0
  0
LINE
  5
8F
100
AcDbEntity
100
AcDbLine
  8
components
 62
256
370
-1
  6
ByLayer
 10
87.9999999999998863
 20
257.0
 30
0.0
 11
87.9999999999999432
 21
263.0
 31
0.0
  0
LINE
  5
90
100
AcDbEntity
100
AcDbLine
  8
components
 62
256
370
-1
  6
ByLayer
 10
87.9999999999999432
 20
263.0
 30
0.0
 11
71.9999999999998863
 21
263.0
 31
0.0
  0
LINE
  5
91
100
AcDbEntity
100
AcDbLine
  8
components
 62
256
370
-1
  6
ByLayer
 10
71.9999999999998863
 20
260.0
 30
0.0
 11
59.9999999999998863
 21
260.0
 31
0.0
  0
LINE
  5
92
100
AcDbEntity
100
AcDbLine
  8
components
 62
256
370
-1
  6
ByLayer
 10
88.0
 20
260.0
 30
0.0
 11
109.9999999999997158
 21
260.0
 31
0.0
  0
LINE
  5
93
100
AcDbEntity
100
AcDbLine
  8
components
 62
256
370
-1
  6
ByLayer
 10
84.0
 20
250.0
 30
0.0
 11
69.9999999999998863
 21
250.0
 31
0.0
  0
LINE
  5
94
100
AcDbEntity
100
AcDbLine
  8
components
 62
256
370
-1
  6
ByLayer
 10
97.9999999999996589
 20
250.0
 30
0.0
 11
109.9999999999995453
 21
250.0
 31
0.0
  0
LINE
  5
95
100
AcDbEntity
100
AcDbLine
  8
components
 62
256
370
-1
  6
ByLayer
 10
106.9999999999998863
 20
243.0
 30
0.0
 11
60.9999999999998863
 21
243.0
 31
0.0
  0
LINE
  5
96
100
AcDbEntity
100
AcDbLine
  8
components
 62
256
370
-1
  6
ByLayer
 10
53.0
 20
242.9999999999999432
 30
0.0
 11
52.9999999999998863
 21
217.0000000000000568
 31
0.0
  0
LINE
  5
97
100
AcDbEntity
100
AcDbLine
  8
components
 62
256
370
-1
  6
ByLayer
 10
60.9999999999998863
 20
217.0000000000000853
 30
0.0
 11
107.0000000000007958
 21
217.0
 31
0.0
  0
LINE
  5
98
100
AcDbEntity
100
AcDbLine
  8
components
 62
256
370
-1
  6
ByLayer
 10
107.0000000000007958
 20
217.0
 30
0.0
 11
106.9999999999998863
 21
243.0
 31
0.0
  0
ARC
  5
99
100
AcDbEntity
  8
components
 62
256
370
-1
  6
ByLayer
100
AcDbCircle
 10
56.9999999999997158
 20
246.0000000000000568
 30
0.0
 40
5.0
100
AcDbArc
 50
216.86989764584402
 51
323.1301023541560085
  0
ARC
  5
9A
100
AcDbEntity
  8
components
 62
256
370
-1
  6
ByLayer
100
AcDbCircle
 10
56.9999999999998863
 20
214.0000000000000284
 30
0.0
 40
5.0
100
AcDbArc
 50
36.8698976458440129
 51
143.13010235415598
  0
LINE
  5
9B
100
AcDbEntity
100
AcDbLine
  8
components
 62
256
370
-1
  6
ByLayer
 10
106.9999999999997158
 20
213.0
 30
0.0
 11
61.0000000000000568
 21
213.0
 31
0.0
  0
LINE
  5
9C
100
AcDbEntity
100
AcDbLine
  8
components
 62
256
370
-1
  6
ByLayer
 10
52.9999999999999432
 20
213.0000000000000568
 30
0.0
 11
52.9999999999999432
 21
187.0
 31
0.0
  0
LINE
  5
9D
100
AcDbEntity
100
AcDbLine
  8
components
 62
256
370
-1
  6
ByLayer
 10
61.0000000000003411
 20
187.0
 30
0.0
 11
107.0000000000001705
 21
187.0
 31
0.0
  0
LINE
  5
9E
100
AcDbEntity
100
AcDbLine
  8
components
 62
256
370
-1
  6
ByLayer
 10
107.0000000000001705
 20
187.0
 30
0.0
 11
106.9999999999997158
 21
213.0
 31
0.0
  0
ARC
  5
9F
100
AcDbEntity
  8
components
 62
256
370
-1
  6
ByLayer
100
AcDbCircle
 10
57.0
 20
216.0
 30
0.0
 40
5.0
100
AcDbArc
 50
216.86989764584402
 51
323.1301023541560085
  0
ARC
  5
A0
100
AcDbEntity
  8
components
 62
256
370
-1
  6
ByLayer
100
AcDbCircle
 10
57.0000000000001137
 20
183.9999999999999432
 30
0.0
 40
5.0
100
AcDbArc
 50
36.8698976458440129
 51
143.13010235415598
  0
LINE
  5
A1
100
AcDbEntity
100
AcDbLine
  8
components
 62
256
370
-1
  6
ByLayer
 10
52.9999999999998863
 20
229.9999999999999432
 30
0.0
 11
49.9999999999999432
 21
230.0
 31
0.0
  0
LINE
  5
A2
100
AcDbEntity
100
AcDbLine
  8
components
 62
256
370
-1
  6
ByLayer
 10
106.9999999999998295
 20
230.0
 30
0.0
 11
109.9999999999999432
 21
230.0
 31
0.0
  0
LINE
  5
A3
100
AcDbEntity
100
AcDbLine
  8
components
 62
256
370
-1
  6
ByLayer
 10
109.9999999999999432
 20
230.0
 30
0.0
 11
108.4999999999998295
 21
230.0000000000000284
 31
0.0
  0
LINE
  5
A4
100
AcDbEntity
100
AcDbLine
  8
components
 62
256
370
-1
  6
ByLayer
 10
52.9999999999997726
 20
200.0000000000000568
 30
0.0
 11
52.9999999999997726
 21
200.0000000000000568
 31
0.0
  0
LINE
  5
A5
100
AcDbEntity
100
AcDbLine
  8
components
 62
256
370
-1
  6
ByLayer
 10
52.9999999999997726
 20
200.0000000000000568
 30
0.0
 11
49.9999999999998863
 21
200.0000000000000284
 31
0.0
  0
LINE
  5
A6
100
AcDbEntity
100
AcDbLine
  8
components
 62
256
370
-1
  6
ByLayer
 10
106.9999999999997726
 20
199.9999999999999716
 30
0.0
 11
110.0000000000000568
 21
199.9999999999999716
 31
0.0
  0
CIRCLE
  5
A7
100
AcDbEntity
100
AcDbCircle
  8
board
 62
256
370
-1
  6
ByLayer
 10
49.9999999999998863
 20
280.0000000000000568
 30
0.0
 40
1.2
  0
LINE
  5
A8
100
AcDbEntity
100
AcDbLine
  8
wires
 62
256
370
-1
  6
ByLayer
 10
49.9999999999998863
 20
280.0000000000000568
 30
0.0
 11
49.9999999999999432
 21
230.0
 31
0.0
  0
ELLIPSE
  5
A9
100
AcDbEntity
100
AcDbEllipse
  8
components
 62
256
370
-1
  6
ByLayer
 10
79.9999999999998863
 20
280.0
 30
0.0
 11
-6.9999999999999716
 21
0.0000000000000009
 31
0.0
 40
0.4285714285714285
 41
0.0
 42
0.0
  0
LINE
  5
AA
100
AcDbEntity
100
AcDbLine
  8
components
 62
256
370
-1
  6
ByLayer
 10
60.0
 20
280.0
 30
0.0
 11
73.0006493135221035
 21
279.9591392534065903
 31
0.0
  0
LINE
  5
AB
100
AcDbEntity
100
AcDbLine
  8
components
 62
256
370
-1
  6
ByLayer
 10
86.9993829671706749
 20
279.9601677892889029
 30
0.0
 11
100.0
 21
280.0
 31
0.0
  0
LINE
  5
AC
100
AcDbEntity
100
AcDbLine
  8
chassis
 62
256
370
-1
  6
ByLayer
 10
159.9999999999999432
 20
50.0
 30
0.0
 11
159.9999999999999432
 21
50.0
 31
0.0
  0
LINE
  5
AD
100
AcDbEntity
100
AcDbLine
  8
chassis
 62
256
370
-1
  6
ByLayer
 10
159.9999999999999432
 20
50.0
 30
0.0
 11
159.9999999999999432
 21
50.0
 31
0.0
  0
LINE
  5
AE
100
AcDbEntity
100
AcDbLine
  8
chassis
 62
256
370
-1
  6
ByLayer
 10
159.9999999999999432
 20
50.0
 30
0.0
 11
160.0
 21
450.0
 31
0.0
  0
LINE
  5
AF
100
AcDbEntity
100
AcDbLine
  8
components
 62
256
370
-1
  6
ByLayer
 10
150.0
 20
410.0
 30
0.0
 11
150.0
 21
388.0
 31
0.0
  0
LINE
  5
B0
100
AcDbEntity
100
AcDbLine
  8
components
 62
256
370
-1
  6
ByLayer
 10
150.0
 20
388.0
 30
0.0
 11
158.9999999999998863
 21
388.0
 31
0.0
  0
LINE
  5
B1
100
AcDbEntity
100
AcDbLine
  8
components
 62
256
370
-1
  6
ByLayer
 10
158.9999999999998863
 20
388.0
 30
0.0
 11
159.0000000000001137
 21
410.0
 31
0.0
  0
LINE
  5
B2
100
AcDbEntity
100
AcDbLine
  8
components
 62
256
370
-1
  6
ByLayer
 10
159.0000000000001137
 20
410.0
 30
0.0
 11
150.0
 21
410.0
 31
0.0
  0
LINE
  5
B3
100
AcDbEntity
100
AcDbLine
  8
components
 62
256
370
-1
  6
ByLayer
 10
159.0000000000001137
 20
397.0
 30
0.0
 11
159.0000000000002842
 21
401.0
 31
0.0
  0
LINE
  5
B4
100
AcDbEntity
100
AcDbLine
  8
components
 62
256
370
-1
  6
ByLayer
 10
159.0000000000002842
 20
401.0
 30
0.0
 11
166.0000000000000568
 21
401.0
 31
0.0
  0
LINE
  5
B5
100
AcDbEntity
100
AcDbLine
  8
components
 62
256
370
-1
  6
ByLayer
 10
166.0000000000000568
 20
401.0
 30
0.0
 11
165.9999999999999432
 21
397.0
 31
0.0
  0
LINE
  5
B6
100
AcDbEntity
100
AcDbLine
  8
components
 62
256
370
-1
  6
ByLayer
 10
165.9999999999999432
 20
397.0
 30
0.0
 11
159.0000000000001137
 21
397.0
 31
0.0
  0
CIRCLE
  5
B7
100
AcDbEntity
100
AcDbCircle
  8
components
 62
256
370
-1
  6
ByLayer
 10
150.0
 20
391.3645154975573632
 30
0.0
 40
0.4
  0
CIRCLE
  5
B8
100
AcDbEntity
100
AcDbCircle
  8
components
 62
256
370
-1
  6
ByLayer
 10
150.0
 20
398.9872182708037371
 30
0.0
 40
0.4
  0
CIRCLE
  5
B9
100
AcDbEntity
100
AcDbCircle
  8
components
 62
256
370
-1
  6
ByLayer
 10
150.0
 20
406.1956437194172054
 30
0.0
 40
0.4
  0
LINE
  5
BA
100
AcDbEntity
100
AcDbLine
  8
components
 62
256
370
-1
  6
ByLayer
 10
150.0
 20
373.0
 30
0.0
 11
150.0
 21
351.0
 31
0.0
  0
LINE
  5
BB
100
AcDbEntity
100
AcDbLine
  8
components
 62
256
370
-1
  6
ByLayer
 10
150.0
 20
351.0
 30
0.0
 11
158.9999999999996589
 21
351.0
 31
0.0
  0
LINE
  5
BC
100
AcDbEntity
100
AcDbLine
  8
components
 62
256
370
-1
  6
ByLayer
 10
158.9999999999996589
 20
351.0
 30
0.0
 11
159.0000000000002842
 21
373.0
 31
0.0
  0
LINE
  5
BD
100
AcDbEntity
100
AcDbLine
  8
components
 62
256
370
-1
  6
ByLayer
 10
159.0000000000002842
 20
373.0
 30
0.0
 11
150.0
 21
373.0
 31
0.0
  0
LINE
  5
BE
100
AcDbEntity
100
AcDbLine
  8
components
 62
256
370
-1
  6
ByLayer
 10
159.0000000000000568
 20
360.0
 30
0.0
 11
158.9999999999999432
 21
364.0
 31
0.0
  0
LINE
  5
BF
100
AcDbEntity
100
AcDbLine
  8
components
 62
256
370
-1
  6
ByLayer
 10
158.9999999999999432
 20
364.0
 30
0.0
 11
166.0000000000001705
 21
364.0
 31
0.0
  0
LINE
  5
C0
100
AcDbEntity
100
AcDbLine
  8
components
 62
256
370
-1
  6
ByLayer
 10
166.0000000000001705
 20
364.0
 30
0.0
 11
165.9999999999998863
 21
360.0
 31
0.0
  0
LINE
  5
C1
100
AcDbEntity
100
AcDbLine
  8
components
 62
256
370
-1
  6
ByLayer
 10
165.9999999999998863
 20
360.0
 30
0.0
 11
159.0000000000000568
 21
360.0
 31
0.0
  0
CIRCLE
  5
C2
100
AcDbEntity
100
AcDbCircle
  8
components
 62
256
370
-1
  6
ByLayer
 10
150.0
 20
354.3645154975573632
 30
0.0
 40
0.4
  0
CIRCLE
  5
C3
100
AcDbEntity
100
AcDbCircle
  8
components
 62
256
370
-1
  6
ByLayer
 10
149.9999999999998863
 20
361.9872182708037371
 30
0.0
 40
0.4
  0
CIRCLE
  5
C4
100
AcDbEntity
100
AcDbCircle
  8
components
 62
256
370
-1
  6
ByLayer
 10
150.0000000000000568
 20
369.1956437194172054
 30
0.0
 40
0.4
  0
ELLIPSE
  5
C5
100
AcDbEntity
100
AcDbEllipse
  8
components
 62
256
370
-1
  6
ByLayer
 10
136.0000000000000568
 20
364.0
 30
0.0
 11
-0.0000000000000013
 21
-6.9999999999999716
 31
0.0
 40
0.4285714285714285
 41
0.0
 42
0.0
  0
ELLIPSE
  5
C6
100
AcDbEntity
100
AcDbEllipse
  8
components
 62
256
370
-1
  6
ByLayer
 10
146.0000000000000568
 20
379.0
 30
0.0
 11
-0.0000000000000013
 21
-6.9999999999999716
 31
0.0
 40
0.4285714285714285
 41
0.0
 42
0.0
  0
LINE
  5
C7
100
AcDbEntity
100
AcDbLine
  8
components
 62
256
370
-1
  6
ByLayer
 10
150.0
 20
354.3645154975573632
 30
0.0
 11
136.0
 21
355.0
 31
0.0
  0
LINE
  5
C8
100
AcDbEntity
100
AcDbLine
  8
components
 62
256
370
-1
  6
ByLayer
 10
136.0
 20
355.0
 30
0.0
 11
135.9999999999999432
 21
357.0
 31
0.0
  0
LINE
  5
C9
100
AcDbEntity
100
AcDbLine
  8
components
 62
256
370
-1
  6
ByLayer
 10
150.0000000000000568
 20
369.1956437194172054
 30
0.0
 11
146.0
 21
370.0
 31
0.0
  0
LINE
  5
CA
100
AcDbEntity
100
AcDbLine
  8
components
 62
256
370
-1
  6
ByLayer
 10
146.0
 20
370.0
 30
0.0
 11
146.0
 21
372.0
 31
0.0
  0
LINE
  5
CB
100
AcDbEntity
100
AcDbLine
  8
components
 62
256
370
-1
  6
ByLayer
 10
135.9999999999999432
 20
371.0
 30
0.0
 11
136.0000000000000568
 21
391.0
 31
0.0
  0
LINE
  5
CC
100
AcDbEntity
100
AcDbLine
  8
components
 62
256
370
-1
  6
ByLayer
 10
136.0000000000000568
 20
391.0
 30
0.0
 11
150.0
 21
391.3645154975573632
 31
0.0
  0
LINE
  5
CD
100
AcDbEntity
100
AcDbLine
  8
components
 62
256
370
-1
  6
ByLayer
 10
146.0000000000000568
 20
386.0
 30
0.0
 11
146.0
 21
406.0
 31
0.0
  0
LINE
  5
CE
100
AcDbEntity
100
AcDbLine
  8
components
 62
256
370
-1
  6
ByLayer
 10
150.0
 20
406.1956437194172054
 30
0.0
 11
146.0
 21
406.0
 31
0.0
  0
LINE
  5
CF
100
AcDbEntity
100
AcDbLine
  8
wires
 62
256
370
-1
  6
ByLayer
 10
150.0
 20
362.0
 30
0.0
 11
142.0
 21
369.0
 31
0.0
  0
LINE
  5
D0
100
AcDbEntity
100
AcDbLine
  8
wires
 62
256
370
-1
  6
ByLayer
 10
142.0
 20
369.0
 30
0.0
 11
142.0000000000000568
 21
394.0
 31
0.0
  0
LINE
  5
D1
100
AcDbEntity
100
AcDbLine
  8
wires
 62
256
370
-1
  6
ByLayer
 10
142.0000000000000568
 20
394.0
 30
0.0
 11
150.0
 21
399.0
 31
0.0
  0
LINE
  5
D2
100
AcDbEntity
100
AcDbLine
  8
components
 62
256
370
-1
  6
ByLayer
 10
150.0
 20
336.0
 30
0.0
 11
150.0000000000002274
 21
314.0
 31
0.0
  0
LINE
  5
D3
100
AcDbEntity
100
AcDbLine
  8
components
 62
256
370
-1
  6
ByLayer
 10
150.0000000000002274
 20
314.0
 30
0.0
 11
159.0000000000011369
 21
314.0
 31
0.0
  0
LINE
  5
D4
100
AcDbEntity
100
AcDbLine
  8
components
 62
256
370
-1
  6
ByLayer
 10
159.0000000000011369
 20
314.0
 30
0.0
 11
158.9999999999994884
 21
336.0
 31
0.0
  0
LINE
  5
D5
100
AcDbEntity
100
AcDbLine
  8
components
 62
256
370
-1
  6
ByLayer
 10
158.9999999999994884
 20
336.0
 30
0.0
 11
150.0
 21
336.0
 31
0.0
  0
LINE
  5
D6
100
AcDbEntity
100
AcDbLine
  8
components
 62
256
370
-1
  6
ByLayer
 10
158.9999999999992042
 20
323.0
 30
0.0
 11
158.9999999999991473
 21
327.0
 31
0.0
  0
LINE
  5
D7
100
AcDbEntity
100
AcDbLine
  8
components
 62
256
370
-1
  6
ByLayer
 10
158.9999999999991473
 20
327.0
 30
0.0
 11
165.9999999999998863
 21
327.0
 31
0.0
  0
LINE
  5
D8
100
AcDbEntity
100
AcDbLine
  8
components
 62
256
370
-1
  6
ByLayer
 10
165.9999999999998863
 20
327.0
 30
0.0
 11
165.9999999999998863
 21
323.0
 31
0.0
  0
LINE
  5
D9
100
AcDbEntity
100
AcDbLine
  8
components
 62
256
370
-1
  6
ByLayer
 10
165.9999999999998863
 20
323.0
 30
0.0
 11
158.9999999999992042
 21
323.0
 31
0.0
  0
CIRCLE
  5
DA
100
AcDbEntity
100
AcDbCircle
  8
components
 62
256
370
-1
  6
ByLayer
 10
149.9999999999998295
 20
317.3645154975573632
 30
0.0
 40
0.4
  0
CIRCLE
  5
DB
100
AcDbEntity
100
AcDbCircle
  8
components
 62
256
370
-1
  6
ByLayer
 10
150.0
 20
324.9872182708037371
 30
0.0
 40
0.4
  0
CIRCLE
  5
DC
100
AcDbEntity
100
AcDbCircle
  8
components
 62
256
370
-1
  6
ByLayer
 10
149.9999999999998863
 20
332.1956437194172054
 30
0.0
 40
0.4
  0
LINE
  5
DD
100
AcDbEntity
100
AcDbLine
  8
components
 62
256
370
-1
  6
ByLayer
 10
149.9999999999999432
 20
299.0
 30
0.0
 11
150.0000000000001705
 21
277.0
 31
0.0
  0
LINE
  5
DE
100
AcDbEntity
100
AcDbLine
  8
components
 62
256
370
-1
  6
ByLayer
 10
150.0000000000001705
 20
277.0
 30
0.0
 11
158.9999999999996589
 21
277.0
 31
0.0
  0
LINE
  5
DF
100
AcDbEntity
100
AcDbLine
  8
components
 62
256
370
-1
  6
ByLayer
 10
158.9999999999996589
 20
277.0
 30
0.0
 11
159.0000000000013642
 21
299.0
 31
0.0
  0
LINE
  5
E0
100
AcDbEntity
100
AcDbLine
  8
components
 62
256
370
-1
  6
ByLayer
 10
159.0000000000013642
 20
299.0
 30
0.0
 11
149.9999999999999432
 21
299.0
 31
0.0
  0
LINE
  5
E1
100
AcDbEntity
100
AcDbLine
  8
components
 62
256
370
-1
  6
ByLayer
 10
158.9999999999981242
 20
286.0
 30
0.0
 11
158.9999999999975557
 21
290.0
 31
0.0
  0
LINE
  5
E2
100
AcDbEntity
100
AcDbLine
  8
components
 62
256
370
-1
  6
ByLayer
 10
158.9999999999975557
 20
290.0
 30
0.0
 11
166.0000000000002274
 21
290.0
 31
0.0
  0
LINE
  5
E3
100
AcDbEntity
100
AcDbLine
  8
components
 62
256
370
-1
  6
ByLayer
 10
166.0000000000002274
 20
290.0
 30
0.0
 11
166.0000000000001137
 21
286.0
 31
0.0
  0
LINE
  5
E4
100
AcDbEntity
100
AcDbLine
  8
components
 62
256
370
-1
  6
ByLayer
 10
166.0000000000001137
 20
286.0
 30
0.0
 11
158.9999999999981242
 21
286.0
 31
0.0
  0
CIRCLE
  5
E5
100
AcDbEntity
100
AcDbCircle
  8
components
 62
256
370
-1
  6
ByLayer
 10
149.9999999999999432
 20
280.3645154975573632
 30
0.0
 40
0.4
  0
CIRCLE
  5
E6
100
AcDbEntity
100
AcDbCircle
  8
components
 62
256
370
-1
  6
ByLayer
 10
149.9999999999998863
 20
287.9872182708037371
 30
0.0
 40
0.4
  0
CIRCLE
  5
E7
100
AcDbEntity
100
AcDbCircle
  8
components
 62
256
370
-1
  6
ByLayer
 10
150.0000000000001137
 20
295.1956437194172054
 30
0.0
 40
0.4
  0
LINE
  5
E8
100
AcDbEntity
100
AcDbLine
  8
wires
 62
256
370
-1
  6
ByLayer
 10
150.0000000000001137
 20
325.0
 30
0.0
 11
116.0
 21
385.0
 31
0.0
  0
LINE
  5
E9
100
AcDbEntity
100
AcDbLine
  8
wires
 62
256
370
-1
  6
ByLayer
 10
116.0
 20
385.0
 30
0.0
 11
62.0
 21
385.0
 31
0.0
  0
LINE
  5
EA
100
AcDbEntity
100
AcDbLine
  8
transformers
 62
256
370
-1
  6
ByLayer
 10
59.9999999999999432
 20
240.0000000000000568
 30
0.0
 11
59.9999999999998863
 21
170.0000000000000568
 31
0.0
  0
LINE
  5
EB
100
AcDbEntity
100
AcDbLine
  8
transformers
 62
256
370
-1
  6
ByLayer
 10
59.9999999999998863
 20
170.0000000000000568
 30
0.0
 11
20.0000000000002274
 21
169.9999999999999432
 31
0.0
  0
LINE
  5
EC
100
AcDbEntity
100
AcDbLine
  8
transformers
 62
256
370
-1
  6
ByLayer
 10
20.0000000000002274
 20
169.9999999999999432
 30
0.0
 11
20.0000000000001137
 21
239.9999999999999432
 31
0.0
  0
LINE
  5
ED
100
AcDbEntity
100
AcDbLine
  8
transformers
 62
256
370
-1
  6
ByLayer
 10
20.0000000000001137
 20
239.9999999999999432
 30
0.0
 11
59.9999999999999432
 21
240.0000000000000568
 31
0.0
  0
LINE
  5
EE
100
AcDbEntity
100
AcDbLine
  8
board
 62
256
370
-1
  6
ByLayer
 10
-5.0000000000000568
 20
5.0
 30
0.0
 11
-5.0
 21
450.0
 31
0.0
  0
LINE
  5
EF
100
AcDbEntity
100
AcDbLine
  8
board
 62
256
370
-1
  6
ByLayer
 10
-5.0
 20
450.0
 30
0.0
 11
160.0
 21
450.0
 31
0.0
  0
LINE
  5
F0
100
AcDbEntity
100
AcDbLine
  8
board
 62
256
370
-1
  6
ByLayer
 10
160.0
 20
450.0
 30
0.0
 11
159.9999999999999432
 21
5.0
 31
0.0
  0
LINE
  5
F1
100
AcDbEntity
100
AcDbLine
  8
board
 62
256
370
-1
  6
ByLayer
 10
159.9999999999999432
 20
5.0
 30
0.0
 11
-5.0000000000000568
 21
5.0
 31
0.0
  0
LINE
  5
F2
100
AcDbEntity
100
AcDbLine
  8
wires
 62
256
370
-1
  6
ByLayer
 10
60.0
 20
390.0
 30
0.0
 11
60.0
 21
390.0
 31
0.0
  0
LINE
  5
F3
100
AcDbEntity
100
AcDbLine
  8
wires
 62
256
370
-1
  6
ByLayer
 10
60.0
 20
270.0
 30
0.0
 11
60.0
 21
280.0
 31
0.0
  0
LINE
  5
F4
100
AcDbEntity
100
AcDbLine
  8
wires
 62
256
370
-1
  6
ByLayer
 10
59.9999999999998863
 20
260.0
 30
0.0
 11
69.9999999999998863
 21
250.0
 31
0.0
  0
CIRCLE
  5
F5
100
AcDbEntity
100
AcDbCircle
  8
transformers
 62
256
370
-1
  6
ByLayer
 10
40.0000000000001137
 20
189.9999999999999432
 30
0.0
 40
3.1622776601683795
  0
CIRCLE
  5
F6
100
AcDbEntity
100
AcDbCircle
  8
transformers
 62
256
370
-1
  6
ByLayer
 10
39.9999999999998295
 20
220.0000000000000853
 30
0.0
 40
3.0
  0
LINE
  5
F7
100
AcDbEntity
100
AcDbLine
  8
wires
 62
256
370
-1
  6
ByLayer
 10
40.9999999999997726
 20
219.0000000000000853
 30
0.0
 11
49.9999999999998863
 21
200.0000000000000284
 31
0.0
  0
LINE
  5
F8
100
AcDbEntity
100
AcDbLine
  8
wires
 62
256
370
-1
  6
ByLayer
 10
59.9999999999999432
 20
260.0
 30
0.0
 11
29.9999999999999432
 21
260.0
 31
0.0
  0
LINE
  5
F9
100
AcDbEntity
100
AcDbLine
  8
components
 62
256
370
-1
  6
ByLayer
 10
30.0000000000001137
 20
251.9999999999999432
 30
0.0
 11
29.9999999999998863
 21
247.9999999999999716
 31
0.0
  0
LINE
  5
FA
100
AcDbEntity
100
AcDbLine
  8
components
 62
256
370
-1
  6
ByLayer
 10
29.9999999999998863
 20
247.9999999999999716
 30
0.0
 11
40.0
 21
247.9999999999999716
 31
0.0
  0
LINE
  5
FB
100
AcDbEntity
100
AcDbLine
  8
components
 62
256
370
-1
  6
ByLayer
 10
40.0
 20
247.9999999999999716
 30
0.0
 11
40.0
 21
251.9999999999999432
 31
0.0
  0
LINE
  5
FC
100
AcDbEntity
100
AcDbLine
  8
components
 62
256
370
-1
  6
ByLayer
 10
40.0
 20
251.9999999999999432
 30
0.0
 11
30.0000000000001137
 21
251.9999999999999432
 31
0.0
  0
LINE
  5
FD
100
AcDbEntity
100
AcDbLine
  8
wires
 62
256
370
-1
  6
ByLayer
 10
50.0000000000001705
 20
229.9999999999999432
 30
0.0
 11
40.0
 21
250.0
 31
0.0
  0
LINE
  5
FE
100
AcDbEntity
100
AcDbLine
  8
components
 62
256
370
-1
  6
ByLayer
 10
30.0000000000000568
 20
249.9999999999999432
 30
0.0
 11
30.0000000000000568
 21
249.9999999999999432
 31
0.0
  0
LINE
  5
FF
100
AcDbEntity
100
AcDbLine
  8
components
 62
256
370
-1
  6
ByLayer
 10
30.0000000000000568
 20
249.9999999999999432
 30
0.0
 11
23.0
 21
250.0
 31
0.0
  0
LINE
  5
100
100
AcDbEntity
100
AcDbLine
  8
wires
 62
256
370
-1
  6
ByLayer
 10
29.9999999999999432
 20
260.0
 30
0.0
 11
23.0
 21
260.0
 31
0.0
  0
LINE
  5
101
100
AcDbEntity
100
AcDbLine
  8
wires
 62
256
370
-1
  6
ByLayer
 10
38.9999999999999432
 20
221.0
 30
0.0
 11
11.9999999999998863
 21
248.0000000000001137
 31
0.0
  0
MTEXT
  5
102
100
AcDbEntity
100
AcDbMText
  8
wires
 62
256
370
-1
  6
ByLayer
 10
9.0000000000000568
 20
244.9999999999999716
 30
0.0
 40
1.5
 41
100.0
 71
1
 72
2
  1
V3plate\P
  7
iso8859-11
 50
90.0
 73
1
 44
1.0
  0
MTEXT
  5
103
100
AcDbEntity
100
AcDbMText
  8
wires
 62
256
370
-1
  6
ByLayer
 10
19.9999999999999432
 20
245.0
 30
0.0
 40
1.5
 41
100.0
 71
1
 72
2
  1
V3screen\P\P
  7
iso8859-11
 50
90.0
 73
1
 44
1.0
  0
MTEXT
  5
104
100
AcDbEntity
100
AcDbMText
  8
wires
 62
256
370
-1
  6
ByLayer
 10
16.9999999999999432
 20
254.0000000000000568
 30
0.0
 40
1.5
 41
100.0
 71
1
 72
2
  1
V3cathode\P
  7
iso8859-11
 50
90.0
 73
1
 44
1.0
  0
MTEXT
  5
105
100
AcDbEntity
100
AcDbMText
  8
wires
 62
256
370
-1
  6
ByLayer
 10
19.9999999999998863
 20
267.0000000000000568
 30
0.0
 40
1.5
 41
100.0
 71
1
 72
2
  1
V3grid\P\P
  7
iso8859-11
 50
90.0
 73
1
 44
1.0
  0
MTEXT
  5
106
100
AcDbEntity
100
AcDbMText
  8
transformers
 62
256
370
-1
  6
ByLayer
 10
32.9999999999999432
 20
216.0000000000000284
 30
0.0
 40
1.5
 41
100.0
 71
1
 72
2
  1
Primary\P
  7
iso8859-11
 50
90.0
 73
1
 44
1.0
  0
MTEXT
  5
107
100
AcDbEntity
100
AcDbMText
  8
transformers
 62
256
370
-1
  6
ByLayer
 10
33.0
 20
185.0000000000000568
 30
0.0
 40
1.5
 41
100.0
 71
1
 72
2
  1
Secondary\P
  7
iso8859-11
 50
90.0
 73
1
 44
1.0
  0
CIRCLE
  5
108
100
AcDbEntity
100
AcDbCircle
  8
transformers
 62
256
370
-1
  6
ByLayer
 10
69.9999999999998863
 20
40.0
 30
0.0
 40
3.6055512754639891
  0
CIRCLE
  5
109
100
AcDbEntity
100
AcDbCircle
  8
transformers
 62
256
370
-1
  6
ByLayer
 10
69.9999999999997726
 20
70.0
 30
0.0
 40
4.0
  0
MTEXT
  5
10A
100
AcDbEntity
100
AcDbMText
  8
wires
 62
256
370
-1
  6
ByLayer
 10
66.0
 20
103.0000000000000568
 30
0.0
 40
1.5
 41
100.0
 71
1
 72
2
  1
(twisted)
  7
iso8859-11
 50
90.0
 73
1
 44
1.0
  0
MTEXT
  5
10B
100
AcDbEntity
100
AcDbMText
  8
wires
 62
256
370
-1
  6
ByLayer
 10
78.0000000000000568
 20
103.0
 30
0.0
 40
1.5
 41
100.0
 71
1
 72
2
  1
(twisted)
  7
iso8859-11
 50
90.0
 73
1
 44
1.0
  0
LINE
  5
10C
100
AcDbEntity
100
AcDbLine
  8
components
 62
256
370
-1
  6
ByLayer
 10
-8.0
 20
20.0
 30
0.0
 11
-8.0000000000001137
 21
60.0000000000000568
 31
0.0
  0
LINE
  5
10D
100
AcDbEntity
100
AcDbLine
  8
components
 62
256
370
-1
  6
ByLayer
 10
-8.0000000000001137
 20
60.0000000000000568
 30
0.0
 11
-6.0000000000001137
 21
60.0
 31
0.0
  0
LINE
  5
10E
100
AcDbEntity
100
AcDbLine
  8
components
 62
256
370
-1
  6
ByLayer
 10
-6.0000000000001137
 20
60.0
 30
0.0
 11
-5.9999999999998863
 21
57.0
 31
0.0
  0
LINE
  5
10F
100
AcDbEntity
100
AcDbLine
  8
components
 62
256
370
-1
  6
ByLayer
 10
-5.9999999999998863
 20
57.0
 30
0.0
 11
-4.0000000000002274
 21
57.0000000000000568
 31
0.0
  0
LINE
  5
110
100
AcDbEntity
100
AcDbLine
  8
components
 62
256
370
-1
  6
ByLayer
 10
-4.0000000000002274
 20
57.0000000000000568
 30
0.0
 11
-4.0000000000002274
 21
60.0000000000001137
 31
0.0
  0
LINE
  5
111
100
AcDbEntity
100
AcDbLine
  8
components
 62
256
370
-1
  6
ByLayer
 10
-4.0000000000002274
 20
60.0000000000001137
 30
0.0
 11
-1.0000000000001137
 21
60.0
 31
0.0
  0
LINE
  5
112
100
AcDbEntity
100
AcDbLine
  8
components
 62
256
370
-1
  6
ByLayer
 10
-1.0000000000001137
 20
60.0
 30
0.0
 11
-1.0
 21
20.0
 31
0.0
  0
LINE
  5
113
100
AcDbEntity
100
AcDbLine
  8
components
 62
256
370
-1
  6
ByLayer
 10
-1.0
 20
20.0
 30
0.0
 11
-4.0000000000001137
 21
20.0
 31
0.0
  0
LINE
  5
114
100
AcDbEntity
100
AcDbLine
  8
components
 62
256
370
-1
  6
ByLayer
 10
-4.0000000000001137
 20
20.0
 30
0.0
 11
-3.9999999999998863
 21
22.9999999999998863
 31
0.0
  0
LINE
  5
115
100
AcDbEntity
100
AcDbLine
  8
components
 62
256
370
-1
  6
ByLayer
 10
-3.9999999999998863
 20
22.9999999999998863
 30
0.0
 11
-6.0000000000001137
 21
23.0
 31
0.0
  0
LINE
  5
116
100
AcDbEntity
100
AcDbLine
  8
components
 62
256
370
-1
  6
ByLayer
 10
-6.0000000000001137
 20
23.0
 30
0.0
 11
-6.0000000000001137
 21
20.0000000000000568
 31
0.0
  0
LINE
  5
117
100
AcDbEntity
100
AcDbLine
  8
components
 62
256
370
-1
  6
ByLayer
 10
-6.0000000000001137
 20
20.0000000000000568
 30
0.0
 11
-8.0
 21
20.0
 31
0.0
  0
MTEXT
  5
118
100
AcDbEntity
100
AcDbMText
  8
components
 62
256
370
-1
  6
ByLayer
 10
-11.0
 20
37.0
 30
0.0
 40
1.5
 41
100.0
 71
1
 72
2
  1
Wall\P
  7
iso8859-11
 50
90.0
 73
1
 44
1.0
  0
LINE
  5
119
100
AcDbEntity
100
AcDbLine
  8
components
 62
256
370
-1
  6
ByLayer
 10
-8.0
 20
70.0
 30
0.0
 11
-8.0000000000001137
 21
85.0
 31
0.0
  0
LINE
  5
11A
100
AcDbEntity
100
AcDbLine
  8
components
 62
256
370
-1
  6
ByLayer
 10
-8.0000000000001137
 20
85.0
 30
0.0
 11
-5.9999999999999432
 21
85.0
 31
0.0
  0
LINE
  5
11B
100
AcDbEntity
100
AcDbLine
  8
components
 62
256
370
-1
  6
ByLayer
 10
-5.9999999999999432
 20
85.0
 30
0.0
 11
-6.0000000000000568
 21
83.0
 31
0.0
  0
LINE
  5
11C
100
AcDbEntity
100
AcDbLine
  8
components
 62
256
370
-1
  6
ByLayer
 10
-6.0000000000000568
 20
83.0
 30
0.0
 11
-4.0
 21
83.0
 31
0.0
  0
LINE
  5
11D
100
AcDbEntity
100
AcDbLine
  8
components
 62
256
370
-1
  6
ByLayer
 10
-4.0
 20
83.0
 30
0.0
 11
-4.0
 21
84.9999999999999432
 31
0.0
  0
LINE
  5
11E
100
AcDbEntity
100
AcDbLine
  8
components
 62
256
370
-1
  6
ByLayer
 10
-4.0
 20
84.9999999999999432
 30
0.0
 11
-1.9999999999998863
 21
85.0
 31
0.0
  0
LINE
  5
11F
100
AcDbEntity
100
AcDbLine
  8
components
 62
256
370
-1
  6
ByLayer
 10
-1.9999999999998863
 20
85.0
 30
0.0
 11
-2.0000000000000568
 21
82.0000000000000568
 31
0.0
  0
LINE
  5
120
100
AcDbEntity
100
AcDbLine
  8
components
 62
256
370
-1
  6
ByLayer
 10
-2.0000000000000568
 20
82.0000000000000568
 30
0.0
 11
-2.0000000000001137
 21
70.0000000000000568
 31
0.0
  0
LINE
  5
121
100
AcDbEntity
100
AcDbLine
  8
components
 62
256
370
-1
  6
ByLayer
 10
-2.0000000000001137
 20
70.0000000000000568
 30
0.0
 11
-3.9999999999997726
 21
69.9999999999998863
 31
0.0
  0
LINE
  5
122
100
AcDbEntity
100
AcDbLine
  8
components
 62
256
370
-1
  6
ByLayer
 10
-3.9999999999997726
 20
69.9999999999998863
 30
0.0
 11
-4.0000000000001137
 21
73.0000000000000568
 31
0.0
  0
LINE
  5
123
100
AcDbEntity
100
AcDbLine
  8
components
 62
256
370
-1
  6
ByLayer
 10
-4.0000000000001137
 20
73.0000000000000568
 30
0.0
 11
-6.0
 21
73.0000000000000568
 31
0.0
  0
LINE
  5
124
100
AcDbEntity
100
AcDbLine
  8
components
 62
256
370
-1
  6
ByLayer
 10
-6.0
 20
73.0000000000000568
 30
0.0
 11
-6.0
 21
70.0
 31
0.0
  0
LINE
  5
125
100
AcDbEntity
100
AcDbLine
  8
components
 62
256
370
-1
  6
ByLayer
 10
-6.0
 20
70.0
 30
0.0
 11
-8.0
 21
70.0
 31
0.0
  0
LINE
  5
126
100
AcDbEntity
100
AcDbLine
  8
components
 62
256
370
-1
  6
ByLayer
 10
-8.0
 20
70.0
 30
0.0
 11
-7.9999999999997726
 21
71.9999999999998863
 31
0.0
  0
LINE
  5
127
100
AcDbEntity
100
AcDbLine
  8
components
 62
256
370
-1
  6
ByLayer
 10
-7.9999999999997726
 20
71.9999999999998863
 30
0.0
 11
-12.0000000000002274
 21
73.0000000000000568
 31
0.0
  0
LINE
  5
128
100
AcDbEntity
100
AcDbLine
  8
components
 62
256
370
-1
  6
ByLayer
 10
-12.0000000000002274
 20
73.0000000000000568
 30
0.0
 11
-12.0000000000001137
 21
82.0
 31
0.0
  0
LINE
  5
129
100
AcDbEntity
100
AcDbLine
  8
components
 62
256
370
-1
  6
ByLayer
 10
-12.0000000000001137
 20
82.0
 30
0.0
 11
-7.9999999999998863
 21
82.9999999999998863
 31
0.0
  0
LINE
  5
12A
100
AcDbEntity
100
AcDbLine
  8
components
 62
256
370
-1
  6
ByLayer
 10
-2.0000000000000568
 20
72.0000000000000568
 30
0.0
 11
30.0
 21
73.0
 31
0.0
  0
LINE
  5
12B
100
AcDbEntity
100
AcDbLine
  8
components
 62
256
370
-1
  6
ByLayer
 10
30.0
 20
73.0
 30
0.0
 11
29.9999999999997726
 21
82.0
 31
0.0
  0
LINE
  5
12C
100
AcDbEntity
100
AcDbLine
  8
components
 62
256
370
-1
  6
ByLayer
 10
29.9999999999997726
 20
82.0
 30
0.0
 11
-1.9999999999998863
 21
83.0
 31
0.0
  0
MTEXT
  5
12D
100
AcDbEntity
100
AcDbMText
  8
components
 62
256
370
-1
  6
ByLayer
 10
-11.0
 20
43.0
 30
0.0
 40
2.0
 41
100.0
 71
1
 72
2
  1
Wall\P
  7
iso8859-11
 50
90.0
 73
1
 44
1.0
  0
MTEXT
  5
12E
100
AcDbEntity
100
AcDbMText
  8
components
 62
256
370
-1
  6
ByLayer
 10
-17.0000000000001137
 20
74.0000000000000568
 30
0.0
 40
2.0
 41
100.0
 71
1
 72
2
  1
Fuse
  7
iso8859-11
 50
90.0
 73
1
 44
1.0
  0
LINE
  5
12F
100
AcDbEntity
100
AcDbLine
  8
components
 62
256
370
-1
  6
ByLayer
 10
140.0
 20
19.0
 30
0.0
 11
140.0000000000000568
 21
39.0
 31
0.0
  0
LINE
  5
130
100
AcDbEntity
100
AcDbLine
  8
components
 62
256
370
-1
  6
ByLayer
 10
140.0000000000000568
 20
39.0
 30
0.0
 11
159.0000000000003411
 21
39.0
 31
0.0
  0
LINE
  5
131
100
AcDbEntity
100
AcDbLine
  8
components
 62
256
370
-1
  6
ByLayer
 10
159.0000000000003411
 20
39.0
 30
0.0
 11
158.9999999999843112
 21
34.0
 31
0.0
  0
LINE
  5
132
100
AcDbEntity
100
AcDbLine
  8
components
 62
256
370
-1
  6
ByLayer
 10
158.9999999999843112
 20
34.0
 30
0.0
 11
161.0000000000155751
 21
34.0
 31
0.0
  0
LINE
  5
133
100
AcDbEntity
100
AcDbLine
  8
components
 62
256
370
-1
  6
ByLayer
 10
161.0000000000155751
 20
34.0
 30
0.0
 11
160.9999999999859597
 21
36.0
 31
0.0
  0
LINE
  5
134
100
AcDbEntity
100
AcDbLine
  8
components
 62
256
370
-1
  6
ByLayer
 10
160.9999999999859597
 20
36.0
 30
0.0
 11
162.0000000000014779
 21
36.0
 31
0.0
  0
LINE
  5
135
100
AcDbEntity
100
AcDbLine
  8
components
 62
256
370
-1
  6
ByLayer
 10
162.0000000000014779
 20
36.0
 30
0.0
 11
161.9999999999995453
 21
23.0
 31
0.0
  0
LINE
  5
136
100
AcDbEntity
100
AcDbLine
  8
components
 62
256
370
-1
  6
ByLayer
 10
161.9999999999995453
 20
23.0
 30
0.0
 11
160.9999999999918145
 21
23.0
 31
0.0
  0
LINE
  5
137
100
AcDbEntity
100
AcDbLine
  8
components
 62
256
370
-1
  6
ByLayer
 10
160.9999999999918145
 20
23.0
 30
0.0
 11
160.9999999999953388
 21
25.0
 31
0.0
  0
LINE
  5
138
100
AcDbEntity
100
AcDbLine
  8
components
 62
256
370
-1
  6
ByLayer
 10
160.9999999999953388
 20
25.0
 30
0.0
 11
159.0000000000044906
 21
25.0
 31
0.0
  0
LINE
  5
139
100
AcDbEntity
100
AcDbLine
  8
components
 62
256
370
-1
  6
ByLayer
 10
159.0000000000044906
 20
25.0
 30
0.0
 11
159.000000000002899
 21
19.0
 31
0.0
  0
LINE
  5
13A
100
AcDbEntity
100
AcDbLine
  8
components
 62
256
370
-1
  6
ByLayer
 10
159.000000000002899
 20
19.0
 30
0.0
 11
140.0
 21
19.0
 31
0.0
  0
LINE
  5
13B
100
AcDbEntity
100
AcDbLine
  8
components
 62
256
370
-1
  6
ByLayer
 10
162.0000000000046043
 20
28.0
 30
0.0
 11
178.9999999999991473
 21
27.0
 31
0.0
  0
LINE
  5
13C
100
AcDbEntity
100
AcDbLine
  8
components
 62
256
370
-1
  6
ByLayer
 10
161.999999999995282
 20
31.0
 30
0.0
 11
178.9999999999998863
 21
32.0
 31
0.0
  0
ARC
  5
13D
100
AcDbEntity
  8
components
 62
256
370
-1
  6
ByLayer
100
AcDbCircle
 10
178.5
 20
29.5
 30
0.0
 40
2.5495097567963922
100
AcDbArc
 50
281.3099324740201723
 51
101.3099324740202007
  0
LINE
  5
13E
100
AcDbEntity
100
AcDbLine
  8
components
 62
256
370
-1
  6
ByLayer
 10
140.0
 20
23.0
 30
0.0
 11
136.0000000000001705
 21
23.0
 31
0.0
  0
LINE
  5
13F
100
AcDbEntity
100
AcDbLine
  8
components
 62
256
370
-1
  6
ByLayer
 10
136.0000000000001705
 20
23.0
 30
0.0
 11
136.0000000000000568
 21
24.0
 31
0.0
  0
LINE
  5
140
100
AcDbEntity
100
AcDbLine
  8
components
 62
256
370
-1
  6
ByLayer
 10
136.0000000000000568
 20
24.0
 30
0.0
 11
140.000000000000739
 21
24.0
 31
0.0
  0
LINE
  5
141
100
AcDbEntity
100
AcDbLine
  8
components
 62
256
370
-1
  6
ByLayer
 10
139.9999999999994316
 20
35.0
 30
0.0
 11
135.9999999999998295
 21
35.0
 31
0.0
  0
LINE
  5
142
100
AcDbEntity
100
AcDbLine
  8
components
 62
256
370
-1
  6
ByLayer
 10
135.9999999999998295
 20
35.0
 30
0.0
 11
135.9999999999994884
 21
34.0
 31
0.0
  0
LINE
  5
143
100
AcDbEntity
100
AcDbLine
  8
components
 62
256
370
-1
  6
ByLayer
 10
135.9999999999994884
 20
34.0
 30
0.0
 11
135.9999999999994884
 21
34.0
 31
0.0
  0
LINE
  5
144
100
AcDbEntity
100
AcDbLine
  8
components
 62
256
370
-1
  6
ByLayer
 10
135.9999999999994884
 20
34.0
 30
0.0
 11
139.9999999999998295
 21
34.0
 31
0.0
  0
LINE
  5
145
100
AcDbEntity
100
AcDbLine
  8
components
 62
256
370
-1
  6
ByLayer
 10
-1.0
 20
28.0
 30
0.0
 11
3.0000000000002274
 21
27.9999999999998863
 31
0.0
  0
LINE
  5
146
100
AcDbEntity
100
AcDbLine
  8
components
 62
256
370
-1
  6
ByLayer
 10
3.0000000000002274
 20
27.9999999999998863
 30
0.0
 11
2.9999999999998863
 21
29.0000000000000568
 31
0.0
  0
LINE
  5
147
100
AcDbEntity
100
AcDbLine
  8
components
 62
256
370
-1
  6
ByLayer
 10
2.9999999999998863
 20
29.0000000000000568
 30
0.0
 11
-0.9999999999998863
 21
28.9999999999999432
 31
0.0
  0
LINE
  5
148
100
AcDbEntity
100
AcDbLine
  8
components
 62
256
370
-1
  6
ByLayer
 10
-1.0
 20
52.0
 30
0.0
 11
3.0
 21
52.0
 31
0.0
  0
LINE
  5
149
100
AcDbEntity
100
AcDbLine
  8
components
 62
256
370
-1
  6
ByLayer
 10
3.0
 20
52.0
 30
0.0
 11
3.0000000000001137
 21
50.9999999999999432
 31
0.0
  0
LINE
  5
14A
100
AcDbEntity
100
AcDbLine
  8
components
 62
256
370
-1
  6
ByLayer
 10
3.0000000000001137
 20
50.9999999999999432
 30
0.0
 11
-1.0000000000000568
 21
51.0
 31
0.0
  0
LINE
  5
14B
100
AcDbEntity
100
AcDbLine
  8
components
 62
256
370
-1
  6
ByLayer
 10
-0.9999999999998863
 20
39.0
 30
0.0
 11
3.0000000000000568
 21
39.0
 31
0.0
  0
LINE
  5
14C
100
AcDbEntity
100
AcDbLine
  8
components
 62
256
370
-1
  6
ByLayer
 10
3.0000000000000568
 20
39.0
 30
0.0
 11
2.9999999999999432
 21
41.0
 31
0.0
  0
LINE
  5
14D
100
AcDbEntity
100
AcDbLine
  8
components
 62
256
370
-1
  6
ByLayer
 10
2.9999999999999432
 20
41.0
 30
0.0
 11
-1.0
 21
40.9999999999999432
 31
0.0
  0
LINE
  5
14E
100
AcDbEntity
100
AcDbLine
  8
components
 62
256
370
-1
  6
ByLayer
 10
29.9999999999998863
 20
74.0000000000000568
 30
0.0
 11
32.9999999999998863
 21
74.0000000000000568
 31
0.0
  0
LINE
  5
14F
100
AcDbEntity
100
AcDbLine
  8
components
 62
256
370
-1
  6
ByLayer
 10
32.9999999999998863
 20
74.0000000000000568
 30
0.0
 11
33.0000000000001137
 21
75.0
 31
0.0
  0
LINE
  5
150
100
AcDbEntity
100
AcDbLine
  8
components
 62
256
370
-1
  6
ByLayer
 10
33.0000000000001137
 20
75.0
 30
0.0
 11
30.0000000000002274
 21
74.9999999999999432
 31
0.0
  0
LINE
  5
151
100
AcDbEntity
100
AcDbLine
  8
components
 62
256
370
-1
  6
ByLayer
 10
29.9999999999998863
 20
81.0
 30
0.0
 11
33.0000000000002274
 21
80.9999999999999432
 31
0.0
  0
LINE
  5
152
100
AcDbEntity
100
AcDbLine
  8
components
 62
256
370
-1
  6
ByLayer
 10
33.0000000000002274
 20
80.9999999999999432
 30
0.0
 11
32.9999999999998863
 21
80.0000000000000568
 31
0.0
  0
LINE
  5
153
100
AcDbEntity
100
AcDbLine
  8
components
 62
256
370
-1
  6
ByLayer
 10
32.9999999999998863
 20
80.0000000000000568
 30
0.0
 11
30.0
 21
80.0000000000000568
 31
0.0
  0
MTEXT
  5
154
100
AcDbEntity
100
AcDbMText
  8
transformers
 62
256
370
-1
  6
ByLayer
 10
75.0000000000001705
 20
42.0
 30
0.0
 40
1.5
 41
100.0
 71
1
 72
2
  1
Primary
  7
iso8859-11
 50
90.0
 73
1
 44
1.0
  0
CIRCLE
  5
155
100
AcDbEntity
100
AcDbCircle
  8
chassis
 62
256
370
-1
  6
ByLayer
 10
19.9999999999998863
 20
40.0
 30
0.0
 40
3.0
  0
LINE
  5
156
100
AcDbEntity
100
AcDbLine
  8
wires
 62
256
370
-1
  6
ByLayer
 10
3.0000000000001137
 20
40.0
 30
0.0
 11
19.9999999999998863
 21
40.0
 31
0.0
  0
MTEXT
  5
157
100
AcDbEntity
100
AcDbMText
  8
chassis
 62
256
370
-1
  6
ByLayer
 10
23.9999999999996589
 20
34.0000000000001137
 30
0.0
 40
1.5
 41
100.0
 71
1
 72
2
  1
Ground\~Lug
  7
iso8859-11
 50
90.0
 73
1
 44
1.0
  0
LINE
  5
158
100
AcDbEntity
100
AcDbLine
  8
wires
 62
256
370
-1
  6
ByLayer
 10
3.0
 20
28.5
 30
0.0
 11
136.0000000000003411
 21
23.5
 31
0.0
  0
LINE
  5
159
100
AcDbEntity
100
AcDbLine
  8
wires
 62
256
370
-1
  6
ByLayer
 10
136.0000000000005116
 20
34.5
 30
0.0
 11
72.0
 21
40.0
 31
0.0
  0
LINE
  5
15A
100
AcDbEntity
100
AcDbLine
  8
wires
 62
256
370
-1
  6
ByLayer
 10
67.9999999999997158
 20
40.0000000000000568
 30
0.0
 11
32.9999999999998295
 21
80.5000000000000568
 31
0.0
  0
LINE
  5
15B
100
AcDbEntity
100
AcDbLine
  8
wires
 62
256
370
-1
  6
ByLayer
 10
32.9999999999998863
 20
74.5
 30
0.0
 11
35.0
 21
72.0
 31
0.0
  0
LINE
  5
15C
100
AcDbEntity
100
AcDbLine
  8
wires
 62
256
370
-1
  6
ByLayer
 10
35.0
 20
72.0
 30
0.0
 11
3.0000000000001137
 21
51.4999999999999432
 31
0.0
  0
LINE
  5
15D
100
AcDbEntity
100
AcDbLine
  8
components
 62
256
370
-1
  6
ByLayer
 10
156.0
 20
425.0
 30
0.0
 11
156.0
 21
441.0
 31
0.0
  0
LINE
  5
15E
100
AcDbEntity
100
AcDbLine
  8
components
 62
256
370
-1
  6
ByLayer
 10
156.0
 20
441.0
 30
0.0
 11
159.0
 21
441.0
 31
0.0
  0
LINE
  5
15F
100
AcDbEntity
100
AcDbLine
  8
components
 62
256
370
-1
  6
ByLayer
 10
159.0
 20
441.0
 30
0.0
 11
158.9999999999999432
 21
425.0
 31
0.0
  0
LINE
  5
160
100
AcDbEntity
100
AcDbLine
  8
components
 62
256
370
-1
  6
ByLayer
 10
158.9999999999999432
 20
425.0
 30
0.0
 11
156.0
 21
425.0
 31
0.0
  0
LINE
  5
161
100
AcDbEntity
100
AcDbLine
  8
components
 62
256
370
-1
  6
ByLayer
 10
158.9999999999999432
 20
429.0
 30
0.0
 11
166.0
 21
429.0
 31
0.0
  0
LINE
  5
162
100
AcDbEntity
100
AcDbLine
  8
components
 62
256
370
-1
  6
ByLayer
 10
166.0
 20
429.0
 30
0.0
 11
166.0
 21
437.0
 31
0.0
  0
LINE
  5
163
100
AcDbEntity
100
AcDbLine
  8
components
 62
256
370
-1
  6
ByLayer
 10
166.0
 20
437.0
 30
0.0
 11
159.0
 21
437.0
 31
0.0
  0
LINE
  5
164
100
AcDbEntity
100
AcDbLine
  8
components
 62
256
370
-1
  6
ByLayer
 10
161.0
 20
427.0
 30
0.0
 11
162.0
 21
427.0
 31
0.0
  0
LINE
  5
165
100
AcDbEntity
100
AcDbLine
  8
components
 62
256
370
-1
  6
ByLayer
 10
162.0
 20
427.0
 30
0.0
 11
162.0
 21
439.0
 31
0.0
  0
LINE
  5
166
100
AcDbEntity
100
AcDbLine
  8
components
 62
256
370
-1
  6
ByLayer
 10
162.0
 20
439.0
 30
0.0
 11
161.0
 21
439.0
 31
0.0
  0
LINE
  5
167
100
AcDbEntity
100
AcDbLine
  8
components
 62
256
370
-1
  6
ByLayer
 10
161.0
 20
439.0
 30
0.0
 11
161.0
 21
427.0
 31
0.0
  0
LINE
  5
168
100
AcDbEntity
100
AcDbLine
  8
components
 62
256
370
-1
  6
ByLayer
 10
156.0
 20
429.0
 30
0.0
 11
139.0
 21
429.0
 31
0.0
  0
LINE
  5
169
100
AcDbEntity
100
AcDbLine
  8
components
 62
256
370
-1
  6
ByLayer
 10
139.0
 20
429.0
 30
0.0
 11
137.0
 21
431.0
 31
0.0
  0
LINE
  5
16A
100
AcDbEntity
100
AcDbLine
  8
components
 62
256
370
-1
  6
ByLayer
 10
137.0
 20
431.0
 30
0.0
 11
136.0
 21
429.0
 31
0.0
  0
LINE
  5
16B
100
AcDbEntity
100
AcDbLine
  8
components
 62
256
370
-1
  6
ByLayer
 10
136.0
 20
429.0
 30
0.0
 11
134.0
 21
429.0
 31
0.0
  0
LINE
  5
16C
100
AcDbEntity
100
AcDbLine
  8
components
 62
256
370
-1
  6
ByLayer
 10
154.0
 20
436.0
 30
0.0
 11
146.0
 21
436.0
 31
0.0
  0
LINE
  5
16D
100
AcDbEntity
100
AcDbLine
  8
components
 62
256
370
-1
  6
ByLayer
 10
146.0
 20
436.0
 30
0.0
 11
146.0
 21
441.0
 31
0.0
  0
LINE
  5
16E
100
AcDbEntity
100
AcDbLine
  8
components
 62
256
370
-1
  6
ByLayer
 10
144.0
 20
441.0
 30
0.0
 11
149.0
 21
441.0
 31
0.0
  0
LINE
  5
16F
100
AcDbEntity
100
AcDbLine
  8
components
 62
256
370
-1
  6
ByLayer
 10
149.0
 20
441.0
 30
0.0
 11
143.0
 21
441.0
 31
0.0
  0
LINE
  5
170
100
AcDbEntity
100
AcDbLine
  8
components
 62
256
370
-1
  6
ByLayer
 10
144.0
 20
442.0
 30
0.0
 11
148.0
 21
442.0
 31
0.0
  0
LINE
  5
171
100
AcDbEntity
100
AcDbLine
  8
components
 62
256
370
-1
  6
ByLayer
 10
145.0
 20
443.0
 30
0.0
 11
147.0
 21
443.0
 31
0.0
  0
LINE
  5
172
100
AcDbEntity
100
AcDbLine
  8
components
 62
256
370
-1
  6
ByLayer
 10
149.0
 20
436.0
 30
0.0
 11
149.0
 21
430.0
 31
0.0
  0
LINE
  5
173
100
AcDbEntity
100
AcDbLine
  8
components
 62
256
370
-1
  6
ByLayer
 10
149.0
 20
430.0
 30
0.0
 11
148.0
 21
431.0
 31
0.0
  0
LINE
  5
174
100
AcDbEntity
100
AcDbLine
  8
components
 62
256
370
-1
  6
ByLayer
 10
149.0
 20
430.0
 30
0.0
 11
150.0
 21
431.0
 31
0.0
  0
LINE
  5
175
100
AcDbEntity
100
AcDbLine
  8
components
 62
256
370
-1
  6
ByLayer
 10
-1.0
 20
180.0
 30
0.0
 11
-1.0000000000000568
 21
196.0000000000000568
 31
0.0
  0
LINE
  5
176
100
AcDbEntity
100
AcDbLine
  8
components
 62
256
370
-1
  6
ByLayer
 10
-1.0000000000000568
 20
196.0000000000000568
 30
0.0
 11
-4.0000000000002274
 21
196.0000000000001137
 31
0.0
  0
LINE
  5
177
100
AcDbEntity
100
AcDbLine
  8
components
 62
256
370
-1
  6
ByLayer
 10
-4.0000000000002274
 20
196.0000000000001137
 30
0.0
 11
-4.0
 21
180.0
 31
0.0
  0
LINE
  5
178
100
AcDbEntity
100
AcDbLine
  8
components
 62
256
370
-1
  6
ByLayer
 10
-4.0
 20
180.0
 30
0.0
 11
-1.0
 21
180.0
 31
0.0
  0
LINE
  5
179
100
AcDbEntity
100
AcDbLine
  8
components
 62
256
370
-1
  6
ByLayer
 10
-4.0
 20
184.0000000000000568
 30
0.0
 11
-11.0
 21
184.0000000000000568
 31
0.0
  0
LINE
  5
17A
100
AcDbEntity
100
AcDbLine
  8
components
 62
256
370
-1
  6
ByLayer
 10
-11.0
 20
184.0000000000000568
 30
0.0
 11
-10.9999999999998863
 21
191.9999999999999432
 31
0.0
  0
LINE
  5
17B
100
AcDbEntity
100
AcDbLine
  8
components
 62
256
370
-1
  6
ByLayer
 10
-10.9999999999998863
 20
191.9999999999999432
 30
0.0
 11
-4.0000000000000568
 21
192.0
 31
0.0
  0
LINE
  5
17C
100
AcDbEntity
100
AcDbLine
  8
components
 62
256
370
-1
  6
ByLayer
 10
-6.0
 20
181.9999999999999432
 30
0.0
 11
-7.0000000000001137
 21
182.0000000000000568
 31
0.0
  0
LINE
  5
17D
100
AcDbEntity
100
AcDbLine
  8
components
 62
256
370
-1
  6
ByLayer
 10
-7.0000000000001137
 20
182.0000000000000568
 30
0.0
 11
-6.9999999999999432
 21
193.9999999999999432
 31
0.0
  0
LINE
  5
17E
100
AcDbEntity
100
AcDbLine
  8
components
 62
256
370
-1
  6
ByLayer
 10
-6.9999999999999432
 20
193.9999999999999432
 30
0.0
 11
-5.9999999999998863
 21
193.9999999999999432
 31
0.0
  0
LINE
  5
17F
100
AcDbEntity
100
AcDbLine
  8
components
 62
256
370
-1
  6
ByLayer
 10
-5.9999999999998863
 20
193.9999999999999432
 30
0.0
 11
-6.0
 21
181.9999999999999432
 31
0.0
  0
LINE
  5
180
100
AcDbEntity
100
AcDbLine
  8
components
 62
256
370
-1
  6
ByLayer
 10
-0.9999999999997726
 20
183.9999999999998863
 30
0.0
 11
16.0000000000001137
 21
183.9999999999999432
 31
0.0
  0
LINE
  5
181
100
AcDbEntity
100
AcDbLine
  8
components
 62
256
370
-1
  6
ByLayer
 10
16.0000000000001137
 20
183.9999999999999432
 30
0.0
 11
17.9999999999998863
 21
186.0000000000001137
 31
0.0
  0
LINE
  5
182
100
AcDbEntity
100
AcDbLine
  8
components
 62
256
370
-1
  6
ByLayer
 10
17.9999999999998863
 20
186.0000000000001137
 30
0.0
 11
19.0000000000000568
 21
184.0
 31
0.0
  0
LINE
  5
183
100
AcDbEntity
100
AcDbLine
  8
components
 62
256
370
-1
  6
ByLayer
 10
19.0000000000000568
 20
184.0
 30
0.0
 11
21.0
 21
184.0
 31
0.0
  0
LINE
  5
184
100
AcDbEntity
100
AcDbLine
  8
components
 62
256
370
-1
  6
ByLayer
 10
0.9999999999998863
 20
191.0000000000000568
 30
0.0
 11
8.9999999999998863
 21
191.0000000000000568
 31
0.0
  0
LINE
  5
185
100
AcDbEntity
100
AcDbLine
  8
components
 62
256
370
-1
  6
ByLayer
 10
6.0
 20
190.9999999999999432
 30
0.0
 11
6.0
 21
185.0
 31
0.0
  0
LINE
  5
186
100
AcDbEntity
100
AcDbLine
  8
components
 62
256
370
-1
  6
ByLayer
 10
6.0
 20
185.0
 30
0.0
 11
6.9999999999998863
 21
186.0000000000000568
 31
0.0
  0
LINE
  5
187
100
AcDbEntity
100
AcDbLine
  8
components
 62
256
370
-1
  6
ByLayer
 10
6.0
 20
185.0
 30
0.0
 11
4.9999999999998863
 21
186.0000000000001137
 31
0.0
  0
LINE
  5
188
100
AcDbEntity
100
AcDbLine
  8
wires
 62
256
370
-1
  6
ByLayer
 10
21.0
 20
184.0
 30
0.0
 11
38.9999999999998863
 21
189.0000000000000568
 31
0.0
  0
LINE
  5
189
100
AcDbEntity
100
AcDbLine
  8
wires
 62
256
370
-1
  6
ByLayer
 10
38.9999999999998863
 20
191.0000000000000568
 30
0.0
 11
10.0
 21
191.0
 31
0.0
  0
MTEXT
  5
18A
100
AcDbEntity
100
AcDbMText
  8
components
 62
256
370
-1
  6
ByLayer
 10
169.0
 20
430.0
 30
0.0
 40
2.0
 41
100.0
 71
1
 72
2
  1
Input
  7
iso8859-11
 50
90.0
 73
1
 44
1.0
  0
MTEXT
  5
18B
100
AcDbEntity
100
AcDbMText
  8
components
 62
256
370
-1
  6
ByLayer
 10
168.9999999999999432
 20
395.0
 30
0.0
 40
2.0
 41
100.0
 71
1
 72
2
  1
Volume
  7
iso8859-11
 50
90.0
 73
1
 44
1.0
  0
MTEXT
  5
18C
100
AcDbEntity
100
AcDbMText
  8
components
 62
256
370
-1
  6
ByLayer
 10
168.9999999999999432
 20
359.0
 30
0.0
 40
2.0
 41
100.0
 71
1
 72
2
  1
Tone
  7
iso8859-11
 50
90.0
 73
1
 44
1.0
  0
MTEXT
  5
18D
100
AcDbEntity
100
AcDbMText
  8
components
 62
256
370
-1
  6
ByLayer
 10
169.0000000000000568
 20
322.0
 30
0.0
 40
2.0
 41
100.0
 71
1
 72
2
  1
Depth
  7
iso8859-11
 50
90.0
 73
1
 44
1.0
  0
MTEXT
  5
18E
100
AcDbEntity
100
AcDbMText
  8
components
 62
256
370
-1
  6
ByLayer
 10
168.9999999999999432
 20
284.0
 30
0.0
 40
2.0
 41
100.0
 71
1
 72
2
  1
Speed
  7
iso8859-11
 50
90.0
 73
1
 44
1.0
  0
MTEXT
  5
18F
100
AcDbEntity
100
AcDbMText
  8
components
 62
256
370
-1
  6
ByLayer
 10
149.0000000000009095
 20
25.0
 30
0.0
 40
2.0
 41
100.0
 71
1
 72
2
  1
Power
  7
iso8859-11
 50
90.0
 73
1
 44
1.0
  0
MTEXT
  5
190
100
AcDbEntity
100
AcDbMText
  8
components
 62
256
370
-1
  6
ByLayer
 10
-19.0
 20
182.0000000000000568
 30
0.0
 40
2.0
 41
100.0
 71
1
 72
2
  1
Speaker
  7
iso8859-11
 50
90.0
 73
1
 44
1.0
  0
MTEXT
  5
191
100
AcDbEntity
100
AcDbMText
  8
components
 62
256
370
-1
  6
ByLayer
 10
79.9999999999998863
 20
200.0000000000000284
 30
0.0
 40
2.0
 41
100.0
 71
1
 72
2
  1
C1
  7
iso8859-11
 50
90.0
 73
1
 44
1.0
  0
MTEXT
  5
192
100
AcDbEntity
100
AcDbMText
  8
components
 62
256
370
-1
  6
ByLayer
 10
79.9999999999998295
 20
230.0000000000000568
 30
0.0
 40
2.0
 41
100.0
 71
1
 72
2
  1
C2
  7
iso8859-11
 50
90.0
 73
1
 44
1.0
  0
MTEXT
  5
193
100
AcDbEntity
100
AcDbMText
  8
components
 62
256
370
-1
  6
ByLayer
 10
49.0
 20
183.0
 30
0.0
 40
2.0
 41
100.0
 71
1
 72
2
  1
R3
  7
iso8859-11
 50
90.0
 73
1
 44
1.0
  0
MTEXT
  5
194
100
AcDbEntity
100
AcDbMText
  8
components
 62
256
370
-1
  6
ByLayer
 10
49.0
 20
214.0000000000000284
 30
0.0
 40
2.0
 41
100.0
 71
1
 72
2
  1
R4
  7
iso8859-11
 50
90.0
 73
1
 44
1.0
  0
MTEXT
  5
195
100
AcDbEntity
100
AcDbMText
  8
components
 62
256
370
-1
  6
ByLayer
 10
91.0
 20
249.0000000000000284
 30
0.0
 40
2.0
 41
100.0
 71
1
 72
2
  1
C3
  7
iso8859-11
 50
90.0
 73
1
 44
1.0
  0
MTEXT
  5
196
100
AcDbEntity
100
AcDbMText
  8
components
 62
256
370
-1
  6
ByLayer
 10
33.9999999999998863
 20
249.0000000000000568
 30
0.0
 40
2.0
 41
100.0
 71
1
 72
2
  1
R6
  7
iso8859-11
 50
90.0
 73
1
 44
1.0
  0
MTEXT
  5
197
100
AcDbEntity
100
AcDbMText
  8
components
 62
256
370
-1
  6
ByLayer
 10
78.9999999999998863
 20
258.0000000000000568
 30
0.0
 40
2.0
 41
100.0
 71
1
 72
2
  1
R7
  7
iso8859-11
 50
90.0
 73
1
 44
1.0
  0
MTEXT
  5
198
100
AcDbEntity
100
AcDbMText
  8
components
 62
256
370
-1
  6
ByLayer
 10
79.1075522584795294
 20
268.378447625140268
 30
0.0
 40
2.0
 41
100.0
 71
1
 72
2
  1
R8
  7
iso8859-11
 50
90.0
 73
1
 44
1.0
  0
MTEXT
  5
199
100
AcDbEntity
100
AcDbMText
  8
components
 62
256
370
-1
  6
ByLayer
 10
79.0732817259585659
 20
278.4347926880724344
 30
0.0
 40
2.0
 41
100.0
 71
1
 72
2
  1
C4
  7
iso8859-11
 50
90.0
 73
1
 44
1.0
  0
MTEXT
  5
19A
100
AcDbEntity
100
AcDbMText
  8
transformers
 62
256
370
-1
  6
ByLayer
 10
75.9999999999998295
 20
60.0000000000000568
 30
0.0
 40
1.5
 41
100.0
 71
1
 72
2
  1
Main\~Secondary\P
  7
iso8859-11
 50
90.0
 73
1
 44
1.0
  0
MTEXT
  5
19B
100
AcDbEntity
100
AcDbMText
  8
chassis
 62
256
370
-1
  6
ByLayer
 10
10.9999999999998863
 20
259.0
 30
0.0
 40
3.0
 41
100.0
 71
1
 72
2
  1
V3
  7
iso8859-11
 50
90.0
 73
1
 44
1.0
  0
LINE
  5
19C
100
AcDbEntity
100
AcDbLine
  8
wires
 62
256
370
-1
  6
ByLayer
 10
125.0
 20
436.0
 30
0.0
 11
146.0
 21
436.0
 31
0.0
  0
LINE
  5
19D
100
AcDbEntity
100
AcDbLine
  8
wires
 62
256
370
-1
  6
ByLayer
 10
8.9999999999998863
 20
191.0000000000000568
 30
0.0
 11
10.0
 21
191.0
 31
0.0
  0
LINE
  5
19E
100
AcDbEntity
100
AcDbLine
  8
wires
 62
256
370
-1
  6
ByLayer
 10
10.0
 20
191.0
 30
0.0
 11
18.0
 21
193.0
 31
0.0
  0
LINE
  5
19F
100
AcDbEntity
100
AcDbLine
  8
wires
 62
256
370
-1
  6
ByLayer
 10
18.0
 20
193.0
 30
0.0
 11
110.0000000000000568
 21
199.9999999999999716
 31
0.0
  0
LINE
  5
1A0
100
AcDbEntity
100
AcDbLine
  8
components
 62
256
370
-1
  6
ByLayer
 10
30.0
 20
272.0
 30
0.0
 11
29.9999999999999432
 21
268.0
 31
0.0
  0
LINE
  5
1A1
100
AcDbEntity
100
AcDbLine
  8
components
 62
256
370
-1
  6
ByLayer
 10
29.9999999999999432
 20
268.0
 30
0.0
 11
39.9999999999998863
 21
268.0
 31
0.0
  0
LINE
  5
1A2
100
AcDbEntity
100
AcDbLine
  8
components
 62
256
370
-1
  6
ByLayer
 10
39.9999999999998863
 20
268.0
 30
0.0
 11
39.9999999999999432
 21
272.0
 31
0.0
  0
LINE
  5
1A3
100
AcDbEntity
100
AcDbLine
  8
components
 62
256
370
-1
  6
ByLayer
 10
39.9999999999999432
 20
272.0
 30
0.0
 11
30.0
 21
272.0
 31
0.0
  0
LINE
  5
1A4
100
AcDbEntity
100
AcDbLine
  8
components
 62
256
370
-1
  6
ByLayer
 10
29.9999999999999432
 20
270.0
 30
0.0
 11
23.0000000000001137
 21
269.9999999999999432
 31
0.0
  0
LINE
  5
1A5
100
AcDbEntity
100
AcDbLine
  8
components
 62
256
370
-1
  6
ByLayer
 10
40.0000000000000568
 20
269.9999999999999432
 30
0.0
 11
60.0
 21
270.0
 31
0.0
  0
LINE
  5
1A6
100
AcDbEntity
100
AcDbLine
  8
components
 62
256
370
-1
  6
ByLayer
 10
150.0
 20
321.0
 30
0.0
 11
144.9999999999998295
 21
321.0
 31
0.0
  0
LINE
  5
1A7
100
AcDbEntity
100
AcDbLine
  8
components
 62
256
370
-1
  6
ByLayer
 10
149.9999999999998295
 20
329.0
 30
0.0
 11
144.9999999999998295
 21
329.0
 31
0.0
  0
CIRCLE
  5
1A8
100
AcDbEntity
100
AcDbCircle
  8
components
 62
256
370
-1
  6
ByLayer
 10
144.9999999999998295
 20
321.0
 30
0.0
 40
0.5
  0
CIRCLE
  5
1A9
100
AcDbEntity
100
AcDbCircle
  8
components
 62
256
370
-1
  6
ByLayer
 10
144.9999999999998295
 20
329.0
 30
0.0
 40
0.5
  0
CIRCLE
  5
1AA
100
AcDbEntity
100
AcDbCircle
  8
chassis
 62
256
370
-1
  6
ByLayer
 10
20.0
 20
403.0000000000000568
 30
0.0
 40
9.5
  0
CIRCLE
  5
1AB
100
AcDbEntity
100
AcDbCircle
  8
chassis
 62
256
370
-1
  6
ByLayer
 10
28.9578527856489245
 20
399.8366357353852436
 30
0.0
 40
0.4
  0
CIRCLE
  5
1AC
100
AcDbEntity
100
AcDbCircle
  8
chassis
 62
256
370
-1
  6
ByLayer
 10
10.5005636692688995
 20
403.1034862231653051
 30
0.0
 40
0.4
  0
CIRCLE
  5
1AD
100
AcDbEntity
100
AcDbCircle
  8
chassis
 62
256
370
-1
  6
ByLayer
 10
28.8641707541704591
 20
406.4170860160244274
 30
0.0
 40
0.4
  0
CIRCLE
  5
1AE
100
AcDbEntity
100
AcDbCircle
  8
chassis
 62
256
370
-1
  6
ByLayer
 10
13.0980240958310219
 20
396.472157430033235
 30
0.0
 40
0.4
  0
CIRCLE
  5
1AF
100
AcDbEntity
100
AcDbCircle
  8
chassis
 62
256
370
-1
  6
ByLayer
 10
21.717543138347537
 20
393.6565506600658182
 30
0.0
 40
0.4
  0
CIRCLE
  5
1B0
100
AcDbEntity
100
AcDbCircle
  8
chassis
 62
256
370
-1
  6
ByLayer
 10
26.6426159982884201
 20
396.2084130941816511
 30
0.0
 40
0.4
  0
CIRCLE
  5
1B1
100
AcDbEntity
100
AcDbCircle
  8
chassis
 62
256
370
-1
  6
ByLayer
 10
13.2196389072033753
 20
409.654074199412662
 30
0.0
 40
0.4
  0
CIRCLE
  5
1B2
100
AcDbEntity
100
AcDbCircle
  8
chassis
 62
256
370
-1
  6
ByLayer
 10
21.0308763458506291
 20
412.443902475119387
 30
0.0
 40
0.4
  0
CIRCLE
  5
1B3
100
AcDbEntity
100
AcDbCircle
  8
chassis
 62
256
370
-1
  6
ByLayer
 10
26.6122065495777065
 20
409.8211967092088344
 30
0.0
 40
0.4
  0
MTEXT
  5
1B4
100
AcDbEntity
100
AcDbMText
  8
chassis
 62
256
370
-1
  6
ByLayer
 10
26.4584665579103557
 20
400.0552691680297244
 30
0.0
 40
1.5
 41
100.0
 71
1
 72
2
  1
1
  7
iso8859-11
 50
90.0
 73
1
 44
1.0
  0
MTEXT
  5
1B5
100
AcDbEntity
100
AcDbMText
  8
chassis
 62
256
370
-1
  6
ByLayer
 10
24.2576182707977637
 20
397.4660358890737371
 30
0.0
 40
1.5
 41
100.0
 71
1
 72
2
  1
2
  7
iso8859-11
 50
90.0
 73
1
 44
1.0
  0
MTEXT
  5
1B6
100
AcDbEntity
100
AcDbMText
  8
chassis
 62
256
370
-1
  6
ByLayer
 10
20.7621533442072064
 20
395.1357259380133655
 30
0.0
 40
1.5
 41
100.0
 71
1
 72
2
  1
3
  7
iso8859-11
 50
90.0
 73
1
 44
1.0
  0
MTEXT
  5
1B7
100
AcDbEntity
100
AcDbMText
  8
chassis
 62
256
370
-1
  6
ByLayer
 10
14.0301468189215939
 20
397.0776508972303986
 30
0.0
 40
1.5
 41
100.0
 71
1
 72
2
  1
4
  7
iso8859-11
 50
90.0
 73
1
 44
1.0
  0
MTEXT
  5
1B8
100
AcDbEntity
100
AcDbMText
  8
chassis
 62
256
370
-1
  6
ByLayer
 10
11.8292985318090587
 20
403.1623491027769433
 30
0.0
 40
1.5
 41
100.0
 71
1
 72
2
  1
5
  7
iso8859-11
 50
90.0
 73
1
 44
1.0
  0
MTEXT
  5
1B9
100
AcDbEntity
100
AcDbMText
  8
chassis
 62
256
370
-1
  6
ByLayer
 10
13.6417618270782555
 20
407.8229690048976863
 30
0.0
 40
1.5
 41
100.0
 71
1
 72
2
  1
6
  7
iso8859-11
 50
90.0
 73
1
 44
1.0
  0
MTEXT
  5
1BA
100
AcDbEntity
100
AcDbMText
  8
chassis
 62
256
370
-1
  6
ByLayer
 10
20.8916150081549858
 20
410.4122022838536168
 30
0.0
 40
1.5
 41
100.0
 71
1
 72
2
  1
7
  7
iso8859-11
 50
90.0
 73
1
 44
1.0
  0
MTEXT
  5
1BB
100
AcDbEntity
100
AcDbMText
  8
chassis
 62
256
370
-1
  6
ByLayer
 10
24.6460032626412158
 20
408.0818923327932453
 30
0.0
 40
1.5
 41
100.0
 71
1
 72
2
  1
8
  7
iso8859-11
 50
90.0
 73
1
 44
1.0
  0
MTEXT
  5
1BC
100
AcDbEntity
100
AcDbMText
  8
chassis
 62
256
370
-1
  6
ByLayer
 10
26.7173898858059715
 20
405.2337357259416422
 30
0.0
 40
1.5
 41
100.0
 71
1
 72
2
  1
9
  7
iso8859-11
 50
90.0
 73
1
 44
1.0
  0
MTEXT
  5
1BD
100
AcDbEntity
100
AcDbMText
  8
chassis
 62
256
370
-1
  6
ByLayer
 10
19.0
 20
401.0
 30
0.0
 40
3.0
 41
100.0
 71
1
 72
2
  1
V1
  7
iso8859-11
 50
90.0
 73
1
 44
1.0
  0
LINE
  5
1BE
100
AcDbEntity
100
AcDbLine
  8
components
 62
256
370
-1
  6
ByLayer
 10
136.0
 20
426.0
 30
0.0
 11
136.0
 21
422.0
 31
0.0
  0
LINE
  5
1BF
100
AcDbEntity
100
AcDbLine
  8
components
 62
256
370
-1
  6
ByLayer
 10
136.0
 20
422.0
 30
0.0
 11
146.0
 21
422.0
 31
0.0
  0
LINE
  5
1C0
100
AcDbEntity
100
AcDbLine
  8
components
 62
256
370
-1
  6
ByLayer
 10
146.0
 20
422.0
 30
0.0
 11
145.9999999999999432
 21
426.0
 31
0.0
  0
LINE
  5
1C1
100
AcDbEntity
100
AcDbLine
  8
components
 62
256
370
-1
  6
ByLayer
 10
145.9999999999999432
 20
426.0
 30
0.0
 11
136.0
 21
426.0
 31
0.0
  0
LINE
  5
1C2
100
AcDbEntity
100
AcDbLine
  8
components
 62
256
370
-1
  6
ByLayer
 10
136.0
 20
424.0
 30
0.0
 11
134.0
 21
424.0
 31
0.0
  0
LINE
  5
1C3
100
AcDbEntity
100
AcDbLine
  8
components
 62
256
370
-1
  6
ByLayer
 10
134.0
 20
424.0
 30
0.0
 11
134.0
 21
429.0
 31
0.0
  0
LINE
  5
1C4
100
AcDbEntity
100
AcDbLine
  8
components
 62
256
370
-1
  6
ByLayer
 10
146.0
 20
424.0
 30
0.0
 11
147.0
 21
424.0
 31
0.0
  0
LINE
  5
1C5
100
AcDbEntity
100
AcDbLine
  8
components
 62
256
370
-1
  6
ByLayer
 10
147.0
 20
424.0
 30
0.0
 11
147.0
 21
436.0
 31
0.0
  0
LINE
  5
1C6
100
AcDbEntity
100
AcDbLine
  8
components
 62
256
370
-1
  6
ByLayer
 10
29.0
 20
417.0
 30
0.0
 11
29.0
 21
413.0
 31
0.0
  0
LINE
  5
1C7
100
AcDbEntity
100
AcDbLine
  8
components
 62
256
370
-1
  6
ByLayer
 10
29.0
 20
413.0
 30
0.0
 11
39.0
 21
413.0000000000000568
 31
0.0
  0
LINE
  5
1C8
100
AcDbEntity
100
AcDbLine
  8
components
 62
256
370
-1
  6
ByLayer
 10
38.9999999999999432
 20
417.0
 30
0.0
 11
29.0
 21
417.0
 31
0.0
  0
LINE
  5
1C9
100
AcDbEntity
100
AcDbLine
  8
components
 62
256
370
-1
  6
ByLayer
 10
29.0
 20
398.0
 30
0.0
 11
29.0
 21
394.0
 31
0.0
  0
LINE
  5
1CA
100
AcDbEntity
100
AcDbLine
  8
components
 62
256
370
-1
  6
ByLayer
 10
29.0
 20
394.0
 30
0.0
 11
39.0
 21
394.0
 31
0.0
  0
LINE
  5
1CB
100
AcDbEntity
100
AcDbLine
  8
components
 62
256
370
-1
  6
ByLayer
 10
39.0
 20
394.0
 30
0.0
 11
38.9999999999998863
 21
398.0
 31
0.0
  0
LINE
  5
1CC
100
AcDbEntity
100
AcDbLine
  8
components
 62
256
370
-1
  6
ByLayer
 10
38.9999999999998863
 20
398.0
 30
0.0
 11
29.0
 21
398.0
 31
0.0
  0
LINE
  5
1CD
100
AcDbEntity
100
AcDbLine
  8
components
 62
256
370
-1
  6
ByLayer
 10
29.0
 20
396.0
 30
0.0
 11
26.6426159982884201
 21
396.2084130941816511
 31
0.0
  0
LINE
  5
1CE
100
AcDbEntity
100
AcDbLine
  8
components
 62
256
370
-1
  6
ByLayer
 10
29.0
 20
415.0
 30
0.0
 11
21.0308763458506291
 21
412.443902475119387
 31
0.0
  0
LINE
  5
1CF
100
AcDbEntity
100
AcDbLine
  8
components
 62
256
370
-1
  6
ByLayer
 10
39.0
 20
413.0000000000000568
 30
0.0
 11
38.9999999999999432
 21
417.0
 31
0.0
  0
LINE
  5
1D0
100
AcDbEntity
100
AcDbLine
  8
board
 62
256
370
-1
  6
ByLayer
 10
40.0
 20
440.0
 30
0.0
 11
120.0
 21
440.0
 31
0.0
  0
CIRCLE
  5
1D1
100
AcDbEntity
100
AcDbCircle
  8
board
 62
256
370
-1
  6
ByLayer
 10
46.0
 20
434.0000000000000568
 30
0.0
 40
2.3999999999999999
  0
CIRCLE
  5
1D2
100
AcDbEntity
100
AcDbCircle
  8
board
 62
256
370
-1
  6
ByLayer
 10
113.9999999999999432
 20
434.0
 30
0.0
 40
2.3999999999999999
  0
CIRCLE
  5
1D3
100
AcDbEntity
100
AcDbCircle
  8
board
 62
256
370
-1
  6
ByLayer
 10
60.0
 20
430.0
 30
0.0
 40
1.2
  0
CIRCLE
  5
1D4
100
AcDbEntity
100
AcDbCircle
  8
board
 62
256
370
-1
  6
ByLayer
 10
100.0
 20
430.0
 30
0.0
 40
1.2
  0
CIRCLE
  5
1D5
100
AcDbEntity
100
AcDbCircle
  8
board
 62
256
370
-1
  6
ByLayer
 10
60.0
 20
420.0
 30
0.0
 40
1.2
  0
ELLIPSE
  5
1D6
100
AcDbEntity
100
AcDbEllipse
  8
components
 62
256
370
-1
  6
ByLayer
 10
80.0
 20
420.0
 30
0.0
 11
-10.0
 21
0.0000000000000012
 31
0.0
 40
0.2
 41
0.0
 42
0.0
  0
LINE
  5
1D7
100
AcDbEntity
100
AcDbLine
  8
components
 62
256
370
-1
  6
ByLayer
 10
78.9999999999999432
 20
412.0
 30
0.0
 11
78.9999999999999432
 21
408.0
 31
0.0
  0
LINE
  5
1D8
100
AcDbEntity
100
AcDbLine
  8
components
 62
256
370
-1
  6
ByLayer
 10
78.9999999999999432
 20
408.0
 30
0.0
 11
88.9999999999999432
 21
408.0
 31
0.0
  0
LINE
  5
1D9
100
AcDbEntity
100
AcDbLine
  8
components
 62
256
370
-1
  6
ByLayer
 10
88.9999999999999432
 20
408.0
 30
0.0
 11
89.0
 21
412.0
 31
0.0
  0
LINE
  5
1DA
100
AcDbEntity
100
AcDbLine
  8
components
 62
256
370
-1
  6
ByLayer
 10
89.0
 20
412.0
 30
0.0
 11
78.9999999999999432
 21
412.0
 31
0.0
  0
LINE
  5
1DB
100
AcDbEntity
100
AcDbLine
  8
components
 62
256
370
-1
  6
ByLayer
 10
90.0
 20
413.0
 30
0.0
 11
80.0
 21
413.0
 31
0.0
  0
LINE
  5
1DC
100
AcDbEntity
100
AcDbLine
  8
components
 62
256
370
-1
  6
ByLayer
 10
76.0
 20
413.0
 30
0.0
 11
76.0
 21
407.0
 31
0.0
  0
LINE
  5
1DD
100
AcDbEntity
100
AcDbLine
  8
components
 62
256
370
-1
  6
ByLayer
 10
80.0
 20
407.0
 30
0.0
 11
90.0
 21
407.0
 31
0.0
  0
LINE
  5
1DE
100
AcDbEntity
100
AcDbLine
  8
components
 62
256
370
-1
  6
ByLayer
 10
90.0
 20
407.0
 30
0.0
 11
90.0
 21
413.0
 31
0.0
  0
ARC
  5
1DF
100
AcDbEntity
  8
components
 62
256
370
-1
  6
ByLayer
100
AcDbCircle
 10
78.0
 20
405.5
 30
0.0
 40
2.5
100
AcDbArc
 50
36.8698976458440129
 51
143.13010235415598
  0
ARC
  5
1E0
100
AcDbEntity
  8
components
 62
256
370
-1
  6
ByLayer
100
AcDbCircle
 10
78.0
 20
414.5
 30
0.0
 40
2.5
100
AcDbArc
 50
216.86989764584402
 51
323.1301023541560085
  0
LINE
  5
1E1
100
AcDbEntity
100
AcDbLine
  8
components
 62
256
370
-1
  6
ByLayer
 10
75.0
 20
432.0
 30
0.0
 11
74.9999999999999432
 21
428.0
 31
0.0
  0
LINE
  5
1E2
100
AcDbEntity
100
AcDbLine
  8
components
 62
256
370
-1
  6
ByLayer
 10
74.9999999999999432
 20
428.0
 30
0.0
 11
84.9999999999999432
 21
428.0
 31
0.0
  0
LINE
  5
1E3
100
AcDbEntity
100
AcDbLine
  8
components
 62
256
370
-1
  6
ByLayer
 10
84.9999999999999432
 20
428.0
 30
0.0
 11
85.0
 21
432.0
 31
0.0
  0
LINE
  5
1E4
100
AcDbEntity
100
AcDbLine
  8
components
 62
256
370
-1
  6
ByLayer
 10
85.0
 20
432.0
 30
0.0
 11
75.0
 21
432.0
 31
0.0
  0
LINE
  5
1E5
100
AcDbEntity
100
AcDbLine
  8
components
 62
256
370
-1
  6
ByLayer
 10
75.0
 20
430.0
 30
0.0
 11
60.0
 21
430.0
 31
0.0
  0
LINE
  5
1E6
100
AcDbEntity
100
AcDbLine
  8
components
 62
256
370
-1
  6
ByLayer
 10
70.0
 20
420.0
 30
0.0
 11
60.0
 21
420.0
 31
0.0
  0
LINE
  5
1E7
100
AcDbEntity
100
AcDbLine
  8
components
 62
256
370
-1
  6
ByLayer
 10
85.0
 20
430.0
 30
0.0
 11
100.0
 21
430.0
 31
0.0
  0
LINE
  5
1E8
100
AcDbEntity
100
AcDbLine
  8
wires
 62
256
370
-1
  6
ByLayer
 10
60.0
 20
430.0
 30
0.0
 11
60.0
 21
420.0
 31
0.0
  0
CIRCLE
  5
1E9
100
AcDbEntity
100
AcDbCircle
  8
board
 62
256
370
-1
  6
ByLayer
 10
60.0
 20
410.0
 30
0.0
 40
1.2
  0
CIRCLE
  5
1EA
100
AcDbEntity
100
AcDbCircle
  8
board
 62
256
370
-1
  6
ByLayer
 10
50.0
 20
420.0
 30
0.0
 40
1.2
  0
LINE
  5
1EB
100
AcDbEntity
100
AcDbLine
  8
components
 62
256
370
-1
  6
ByLayer
 10
39.0
 20
415.0
 30
0.0
 11
50.0
 21
420.0
 31
0.0
  0
LINE
  5
1EC
100
AcDbEntity
100
AcDbLine
  8
wires
 62
256
370
-1
  6
ByLayer
 10
60.0
 20
430.0
 30
0.0
 11
15.0
 21
414.0
 31
0.0
  0
LINE
  5
1ED
100
AcDbEntity
100
AcDbLine
  8
wires
 62
256
370
-1
  6
ByLayer
 10
15.0
 20
414.0
 30
0.0
 11
13.2196389072033753
 21
409.654074199412662
 31
0.0
  0
LINE
  5
1EE
100
AcDbEntity
100
AcDbLine
  8
wires
 62
256
370
-1
  6
ByLayer
 10
26.6122065495777065
 20
409.8211967092088344
 30
0.0
 11
60.0
 21
410.0
 31
0.0
  0
LINE
  5
1EF
100
AcDbEntity
100
AcDbLine
  8
wires
 62
256
370
-1
  6
ByLayer
 10
110.0
 20
410.0
 30
0.0
 11
110.0
 21
390.0
 31
0.0
  0
CIRCLE
  5
1F0
100
AcDbEntity
100
AcDbCircle
  8
board
 62
256
370
-1
  6
ByLayer
 10
110.0
 20
410.0
 30
0.0
 40
1.2
  0
LINE
  5
1F1
100
AcDbEntity
100
AcDbLine
  8
wires
 62
256
370
-1
  6
ByLayer
 10
125.0
 20
436.0
 30
0.0
 11
110.0
 21
410.0
 31
0.0
  0
LINE
  5
1F2
100
AcDbEntity
100
AcDbLine
  8
components
 62
256
370
-1
  6
ByLayer
 10
76.0
 20
410.0
 30
0.0
 11
60.0
 21
410.0
 31
0.0
  0
LINE
  5
1F3
100
AcDbEntity
100
AcDbLine
  8
components
 62
256
370
-1
  6
ByLayer
 10
90.0
 20
410.0
 30
0.0
 11
110.0
 21
410.0
 31
0.0
  0
CIRCLE
  5
1F4
100
AcDbEntity
100
AcDbCircle
  8
board
 62
256
370
-1
  6
ByLayer
 10
110.0
 20
420.0
 30
0.0
 40
1.2
  0
LINE
  5
1F5
100
AcDbEntity
100
AcDbLine
  8
components
 62
256
370
-1
  6
ByLayer
 10
90.0
 20
420.0
 30
0.0
 11
110.0
 21
420.0
 31
0.0
  0
LINE
  5
1F6
100
AcDbEntity
100
AcDbLine
  8
wires
 62
256
370
-1
  6
ByLayer
 10
110.0
 20
420.0
 30
0.0
 11
150.0
 21
391.3645154975573632
 31
0.0
  0
LINE
  5
1F7
100
AcDbEntity
100
AcDbLine
  8
wires
 62
256
370
-1
  6
ByLayer
 10
150.0
 20
406.1956437194172054
 30
0.0
 11
110.0
 21
390.0
 31
0.0
  0
LINE
  5
1F8
100
AcDbEntity
100
AcDbLine
  8
wires
 62
256
370
-1
  6
ByLayer
 10
134.0
 20
429.0
 30
0.0
 11
50.0
 21
420.0
 31
0.0
  0
CIRCLE
  5
1F9
100
AcDbEntity
100
AcDbCircle
  8
board
 62
256
370
-1
  6
ByLayer
 10
60.0
 20
400.0
 30
0.0
 40
1.2
  0
CIRCLE
  5
1FA
100
AcDbEntity
100
AcDbCircle
  8
board
 62
256
370
-1
  6
ByLayer
 10
100.0
 20
400.0
 30
0.0
 40
1.2
  0
CIRCLE
  5
1FB
100
AcDbEntity
100
AcDbCircle
  8
board
 62
256
370
-1
  6
ByLayer
 10
50.0
 20
390.0
 30
0.0
 40
1.2
  0
LINE
  5
1FC
100
AcDbEntity
100
AcDbLine
  8
components
 62
256
370
-1
  6
ByLayer
 10
50.0
 20
390.0
 30
0.0
 11
67.0
 21
390.0
 31
0.0
  0
LINE
  5
1FD
100
AcDbEntity
100
AcDbLine
  8
wires
 62
256
370
-1
  6
ByLayer
 10
62.0
 20
385.0
 30
0.0
 11
50.0
 21
390.0
 31
0.0
  0
LINE
  5
1FE
100
AcDbEntity
100
AcDbLine
  8
components
 62
256
370
-1
  6
ByLayer
 10
75.0
 20
402.0
 30
0.0
 11
75.0
 21
398.0
 31
0.0
  0
LINE
  5
1FF
100
AcDbEntity
100
AcDbLine
  8
components
 62
256
370
-1
  6
ByLayer
 10
75.0
 20
398.0
 30
0.0
 11
85.0
 21
398.0
 31
0.0
  0
LINE
  5
200
100
AcDbEntity
100
AcDbLine
  8
components
 62
256
370
-1
  6
ByLayer
 10
85.0
 20
398.0
 30
0.0
 11
84.9999999999999432
 21
402.0
 31
0.0
  0
LINE
  5
201
100
AcDbEntity
100
AcDbLine
  8
components
 62
256
370
-1
  6
ByLayer
 10
84.9999999999999432
 20
402.0
 30
0.0
 11
75.0
 21
402.0
 31
0.0
  0
LINE
  5
202
100
AcDbEntity
100
AcDbLine
  8
components
 62
256
370
-1
  6
ByLayer
 10
60.0
 20
400.0
 30
0.0
 11
75.0
 21
400.0
 31
0.0
  0
LINE
  5
203
100
AcDbEntity
100
AcDbLine
  8
components
 62
256
370
-1
  6
ByLayer
 10
85.0
 20
400.0
 30
0.0
 11
100.0
 21
400.0
 31
0.0
  0
LINE
  5
204
100
AcDbEntity
100
AcDbLine
  8
wires
 62
256
370
-1
  6
ByLayer
 10
60.0
 20
400.0
 30
0.0
 11
28.9578527856489245
 21
399.8366357353852436
 31
0.0
  0
LINE
  5
205
100
AcDbEntity
100
AcDbLine
  8
wires
 62
256
370
-1
  6
ByLayer
 10
50.0
 20
390.0
 30
0.0
 11
21.717543138347537
 21
393.6565506600658182
 31
0.0
  0
CIRCLE
  5
206
100
AcDbEntity
100
AcDbCircle
  8
board
 62
256
370
-1
  6
ByLayer
 10
55.0
 20
395.0
 30
0.0
 40
1.2
  0
LINE
  5
207
100
AcDbEntity
100
AcDbLine
  8
components
 62
256
370
-1
  6
ByLayer
 10
38.9999999999999432
 20
396.0
 30
0.0
 11
55.0
 21
395.0
 31
0.0
  0
LINE
  5
208
100
AcDbEntity
100
AcDbLine
  8
wires
 62
256
370
-1
  6
ByLayer
 10
150.0
 20
399.0
 30
0.0
 11
94.0
 21
397.0
 31
0.0
  0
LINE
  5
209
100
AcDbEntity
100
AcDbLine
  8
wires
 62
256
370
-1
  6
ByLayer
 10
94.0
 20
397.0
 30
0.0
 11
68.0
 21
397.0
 31
0.0
  0
LINE
  5
20A
100
AcDbEntity
100
AcDbLine
  8
wires
 62
256
370
-1
  6
ByLayer
 10
68.0
 20
397.0
 30
0.0
 11
55.0
 21
395.0
 31
0.0
  0
CIRCLE
  5
20B
100
AcDbEntity
100
AcDbCircle
  8
board
 62
256
370
-1
  6
ByLayer
 10
50.0
 20
380.0
 30
0.0
 40
1.2
  0
LINE
  5
20C
100
AcDbEntity
100
AcDbLine
  8
components
 62
256
370
-1
  6
ByLayer
 10
65.0
 20
382.0
 30
0.0
 11
65.0
 21
378.0
 31
0.0
  0
LINE
  5
20D
100
AcDbEntity
100
AcDbLine
  8
components
 62
256
370
-1
  6
ByLayer
 10
65.0
 20
378.0
 30
0.0
 11
75.0
 21
378.0
 31
0.0
  0
LINE
  5
20E
100
AcDbEntity
100
AcDbLine
  8
components
 62
256
370
-1
  6
ByLayer
 10
75.0
 20
378.0
 30
0.0
 11
74.9999999999999432
 21
382.0
 31
0.0
  0
LINE
  5
20F
100
AcDbEntity
100
AcDbLine
  8
components
 62
256
370
-1
  6
ByLayer
 10
74.9999999999999432
 20
382.0
 30
0.0
 11
65.0
 21
382.0
 31
0.0
  0
LINE
  5
210
100
AcDbEntity
100
AcDbLine
  8
wires
 62
256
370
-1
  6
ByLayer
 10
85.0
 20
380.0
 30
0.0
 11
85.0
 21
390.0
 31
0.0
  0
CIRCLE
  5
211
100
AcDbEntity
100
AcDbCircle
  8
board
 62
256
370
-1
  6
ByLayer
 10
85.0
 20
380.0
 30
0.0
 40
1.2
  0
LINE
  5
212
100
AcDbEntity
100
AcDbLine
  8
components
 62
256
370
-1
  6
ByLayer
 10
65.0
 20
380.0
 30
0.0
 11
50.0
 21
380.0
 31
0.0
  0
LINE
  5
213
100
AcDbEntity
100
AcDbLine
  8
components
 62
256
370
-1
  6
ByLayer
 10
85.0
 20
380.0
 30
0.0
 11
75.0
 21
380.0
 31
0.0
  0
CIRCLE
  5
214
100
AcDbEntity
100
AcDbCircle
  8
board
 62
256
370
-1
  6
ByLayer
 10
50.0000000000001705
 20
309.9999999999999432
 30
0.0
 40
1.2
  0
LINE
  5
215
100
AcDbEntity
100
AcDbLine
  8
components
 62
256
370
-1
  6
ByLayer
 10
47.9999999999999432
 20
307.0000000000000568
 30
0.0
 11
47.9999999999999432
 21
293.0
 31
0.0
  0
LINE
  5
216
100
AcDbEntity
100
AcDbLine
  8
components
 62
256
370
-1
  6
ByLayer
 10
47.9999999999999432
 20
293.0
 30
0.0
 11
51.9999999999999432
 21
293.0
 31
0.0
  0
LINE
  5
217
100
AcDbEntity
100
AcDbLine
  8
components
 62
256
370
-1
  6
ByLayer
 10
51.9999999999999432
 20
293.0
 30
0.0
 11
52.0
 21
307.0
 31
0.0
  0
LINE
  5
218
100
AcDbEntity
100
AcDbLine
  8
components
 62
256
370
-1
  6
ByLayer
 10
52.0
 20
307.0
 30
0.0
 11
47.9999999999999432
 21
307.0000000000000568
 31
0.0
  0
LINE
  5
219
100
AcDbEntity
100
AcDbLine
  8
components
 62
256
370
-1
  6
ByLayer
 10
50.0000000000001705
 20
309.9999999999999432
 30
0.0
 11
49.9999999999999432
 21
307.0000000000000568
 31
0.0
  0
LINE
  5
21A
100
AcDbEntity
100
AcDbLine
  8
components
 62
256
370
-1
  6
ByLayer
 10
107.0
 20
323.0
 30
0.0
 11
61.0000000000000568
 21
322.9999999999999432
 31
0.0
  0
LINE
  5
21B
100
AcDbEntity
100
AcDbLine
  8
components
 62
256
370
-1
  6
ByLayer
 10
53.0
 20
323.0
 30
0.0
 11
53.0000000000000568
 21
297.0
 31
0.0
  0
LINE
  5
21C
100
AcDbEntity
100
AcDbLine
  8
components
 62
256
370
-1
  6
ByLayer
 10
60.9999999999998863
 20
297.0000000000000568
 30
0.0
 11
107.0000000000002274
 21
297.0
 31
0.0
  0
LINE
  5
21D
100
AcDbEntity
100
AcDbLine
  8
components
 62
256
370
-1
  6
ByLayer
 10
107.0000000000002274
 20
297.0
 30
0.0
 11
107.0
 21
323.0
 31
0.0
  0
ARC
  5
21E
100
AcDbEntity
  8
components
 62
256
370
-1
  6
ByLayer
100
AcDbCircle
 10
57.0
 20
326.0
 30
0.0
 40
5.0
100
AcDbArc
 50
216.86989764584402
 51
323.1301023541560085
  0
ARC
  5
21F
100
AcDbEntity
  8
components
 62
256
370
-1
  6
ByLayer
100
AcDbCircle
 10
56.9999999999998863
 20
294.0
 30
0.0
 40
5.0
100
AcDbArc
 50
36.8698976458440129
 51
143.13010235415598
  0
LINE
  5
220
100
AcDbEntity
100
AcDbLine
  8
components
 62
256
370
-1
  6
ByLayer
 10
52.9999999999999432
 20
310.0
 30
0.0
 11
50.0000000000001705
 21
309.9999999999999432
 31
0.0
  0
LINE
  5
221
100
AcDbEntity
100
AcDbLine
  8
components
 62
256
370
-1
  6
ByLayer
 10
106.9999999999999432
 20
310.0
 30
0.0
 11
109.9999999999998295
 21
310.0
 31
0.0
  0
CIRCLE
  5
222
100
AcDbEntity
100
AcDbCircle
  8
board
 62
256
370
-1
  6
ByLayer
 10
109.9999999999999432
 20
310.0
 30
0.0
 40
1.2
  0
CIRCLE
  5
223
100
AcDbEntity
100
AcDbCircle
  8
chassis
 62
256
370
-1
  6
ByLayer
 10
20.0
 20
350.0
 30
0.0
 40
9.5
  0
CIRCLE
  5
224
100
AcDbEntity
100
AcDbCircle
  8
chassis
 62
256
370
-1
  6
ByLayer
 10
28.9578527856489245
 20
346.8366357353853004
 30
0.0
 40
0.4
  0
CIRCLE
  5
225
100
AcDbEntity
100
AcDbCircle
  8
chassis
 62
256
370
-1
  6
ByLayer
 10
10.5005636692688427
 20
350.1034862231653051
 30
0.0
 40
0.4
  0
CIRCLE
  5
226
100
AcDbEntity
100
AcDbCircle
  8
chassis
 62
256
370
-1
  6
ByLayer
 10
28.8641707541704591
 20
353.4170860160244274
 30
0.0
 40
0.4
  0
CIRCLE
  5
227
100
AcDbEntity
100
AcDbCircle
  8
chassis
 62
256
370
-1
  6
ByLayer
 10
13.0980240958310787
 20
343.4721574300331781
 30
0.0
 40
0.4
  0
CIRCLE
  5
228
100
AcDbEntity
100
AcDbCircle
  8
chassis
 62
256
370
-1
  6
ByLayer
 10
21.717543138347537
 20
340.656550660065875
 30
0.0
 40
0.4
  0
CIRCLE
  5
229
100
AcDbEntity
100
AcDbCircle
  8
chassis
 62
256
370
-1
  6
ByLayer
 10
26.6426159982884201
 20
343.2084130941816511
 30
0.0
 40
0.4
  0
CIRCLE
  5
22A
100
AcDbEntity
100
AcDbCircle
  8
chassis
 62
256
370
-1
  6
ByLayer
 10
13.2196389072033185
 20
356.654074199412662
 30
0.0
 40
0.4
  0
CIRCLE
  5
22B
100
AcDbEntity
100
AcDbCircle
  8
chassis
 62
256
370
-1
  6
ByLayer
 10
21.0308763458506291
 20
359.4439024751193301
 30
0.0
 40
0.4
  0
CIRCLE
  5
22C
100
AcDbEntity
100
AcDbCircle
  8
chassis
 62
256
370
-1
  6
ByLayer
 10
26.6122065495777065
 20
356.8211967092088344
 30
0.0
 40
0.4
  0
MTEXT
  5
22D
100
AcDbEntity
100
AcDbMText
  8
chassis
 62
256
370
-1
  6
ByLayer
 10
26.4584665579103557
 20
347.0552691680297244
 30
0.0
 40
1.5
 41
100.0
 71
1
 72
2
  1
1
  7
iso8859-11
 50
90.0
 73
1
 44
1.0
  0
MTEXT
  5
22E
100
AcDbEntity
100
AcDbMText
  8
chassis
 62
256
370
-1
  6
ByLayer
 10
24.2576182707978205
 20
344.4660358890737371
 30
0.0
 40
1.5
 41
100.0
 71
1
 72
2
  1
2
  7
iso8859-11
 50
90.0
 73
1
 44
1.0
  0
MTEXT
  5
22F
100
AcDbEntity
100
AcDbMText
  8
chassis
 62
256
370
-1
  6
ByLayer
 10
20.7621533442072632
 20
342.1357259380133655
 30
0.0
 40
1.5
 41
100.0
 71
1
 72
2
  1
3
  7
iso8859-11
 50
90.0
 73
1
 44
1.0
  0
MTEXT
  5
230
100
AcDbEntity
100
AcDbMText
  8
chassis
 62
256
370
-1
  6
ByLayer
 10
14.0301468189216507
 20
344.0776508972303418
 30
0.0
 40
1.5
 41
100.0
 71
1
 72
2
  1
4
  7
iso8859-11
 50
90.0
 73
1
 44
1.0
  0
MTEXT
  5
231
100
AcDbEntity
100
AcDbMText
  8
chassis
 62
256
370
-1
  6
ByLayer
 10
11.8292985318090587
 20
350.1623491027768864
 30
0.0
 40
1.5
 41
100.0
 71
1
 72
2
  1
5
  7
iso8859-11
 50
90.0
 73
1
 44
1.0
  0
MTEXT
  5
232
100
AcDbEntity
100
AcDbMText
  8
chassis
 62
256
370
-1
  6
ByLayer
 10
13.6417618270782555
 20
354.8229690048976295
 30
0.0
 40
1.5
 41
100.0
 71
1
 72
2
  1
6
  7
iso8859-11
 50
90.0
 73
1
 44
1.0
  0
MTEXT
  5
233
100
AcDbEntity
100
AcDbMText
  8
chassis
 62
256
370
-1
  6
ByLayer
 10
20.8916150081549858
 20
357.4122022838536168
 30
0.0
 40
1.5
 41
100.0
 71
1
 72
2
  1
7
  7
iso8859-11
 50
90.0
 73
1
 44
1.0
  0
MTEXT
  5
234
100
AcDbEntity
100
AcDbMText
  8
chassis
 62
256
370
-1
  6
ByLayer
 10
24.6460032626412158
 20
355.0818923327932453
 30
0.0
 40
1.5
 41
100.0
 71
1
 72
2
  1
8
  7
iso8859-11
 50
90.0
 73
1
 44
1.0
  0
MTEXT
  5
235
100
AcDbEntity
100
AcDbMText
  8
chassis
 62
256
370
-1
  6
ByLayer
 10
26.7173898858060284
 20
352.2337357259416422
 30
0.0
 40
1.5
 41
100.0
 71
1
 72
2
  1
9
  7
iso8859-11
 50
90.0
 73
1
 44
1.0
  0
MTEXT
  5
236
100
AcDbEntity
100
AcDbMText
  8
components
 62
256
370
-1
  6
ByLayer
 10
79.2446343885629858
 20
309.3398175258196261
 30
0.0
 40
2.0
 41
100.0
 71
1
 72
2
  1
C5
  7
iso8859-11
 50
90.0
 73
1
 44
1.0
  0
MTEXT
  5
237
100
AcDbEntity
100
AcDbMText
  8
chassis
 62
256
370
-1
  6
ByLayer
 10
19.0
 20
348.0
 30
0.0
 40
3.0
 41
100.0
 71
1
 72
2
  1
V2
  7
iso8859-11
 50
90.0
 73
1
 44
1.0
  0
LINE
  5
238
100
AcDbEntity
100
AcDbLine
  8
wires
 62
256
370
-1
  6
ByLayer
 10
26.6426159982884201
 20
343.2084130941816511
 30
0.0
 11
13.2196389072033185
 21
356.654074199412662
 31
0.0
  0
LINE
  5
239
100
AcDbEntity
100
AcDbLine
  8
wires
 62
256
370
-1
  6
ByLayer
 10
50.0
 20
310.0
 30
0.0
 11
28.9578527856489245
 21
346.8366357353853004
 31
0.0
  0
CIRCLE
  5
23A
100
AcDbEntity
100
AcDbCircle
  8
board
 62
256
370
-1
  6
ByLayer
 10
50.0000000000000568
 20
340.0
 30
0.0
 40
1.2
  0
CIRCLE
  5
23B
100
AcDbEntity
100
AcDbCircle
  8
board
 62
256
370
-1
  6
ByLayer
 10
70.0
 20
340.0000000000000568
 30
0.0
 40
1.2
  0
ELLIPSE
  5
23C
100
AcDbEntity
100
AcDbEllipse
  8
components
 62
256
370
-1
  6
ByLayer
 10
60.0
 20
340.0
 30
0.0
 11
-6.0
 21
0.0000000000000007
 31
0.0
 40
0.3333333333333333
 41
0.0
 42
6.2831853071795862
  0
ELLIPSE
  5
23D
100
AcDbEntity
100
AcDbEllipse
  8
components
 62
256
370
-1
  6
ByLayer
 10
70.0
 20
350.0
 30
0.0
 11
-0.0000000000000011
 21
-6.0
 31
0.0
 40
0.3333333333333333
 41
0.0
 42
6.2831853071795862
  0
LINE
  5
23E
100
AcDbEntity
100
AcDbLine
  8
components
 62
256
370
-1
  6
ByLayer
 10
62.0
 20
332.0
 30
0.0
 11
61.9999999999998295
 21
328.0000000000000568
 31
0.0
  0
LINE
  5
23F
100
AcDbEntity
100
AcDbLine
  8
components
 62
256
370
-1
  6
ByLayer
 10
61.9999999999998295
 20
328.0000000000000568
 30
0.0
 11
71.9999999999999432
 21
328.0
 31
0.0
  0
LINE
  5
240
100
AcDbEntity
100
AcDbLine
  8
components
 62
256
370
-1
  6
ByLayer
 10
71.9999999999999432
 20
328.0
 30
0.0
 11
71.9999999999999432
 21
332.0
 31
0.0
  0
LINE
  5
241
100
AcDbEntity
100
AcDbLine
  8
components
 62
256
370
-1
  6
ByLayer
 10
71.9999999999999432
 20
332.0
 30
0.0
 11
62.0
 21
332.0
 31
0.0
  0
CIRCLE
  5
242
100
AcDbEntity
100
AcDbCircle
  8
board
 62
256
370
-1
  6
ByLayer
 10
57.0000000000001137
 20
330.0
 30
0.0
 40
1.2
  0
CIRCLE
  5
243
100
AcDbEntity
100
AcDbCircle
  8
board
 62
256
370
-1
  6
ByLayer
 10
77.0000000000000568
 20
330.0
 30
0.0
 40
1.2
  0
CIRCLE
  5
244
100
AcDbEntity
100
AcDbCircle
  8
board
 62
256
370
-1
  6
ByLayer
 10
83.0000000000000568
 20
330.0
 30
0.0
 40
1.2
  0
CIRCLE
  5
245
100
AcDbEntity
100
AcDbCircle
  8
board
 62
256
370
-1
  6
ByLayer
 10
102.9999999999999432
 20
330.0
 30
0.0
 40
1.2
  0
LINE
  5
246
100
AcDbEntity
100
AcDbLine
  8
components
 62
256
370
-1
  6
ByLayer
 10
87.9999999999999432
 20
332.0
 30
0.0
 11
87.9999999999998295
 21
328.0
 31
0.0
  0
LINE
  5
247
100
AcDbEntity
100
AcDbLine
  8
components
 62
256
370
-1
  6
ByLayer
 10
87.9999999999998295
 20
328.0
 30
0.0
 11
97.9999999999999432
 21
328.0
 31
0.0
  0
LINE
  5
248
100
AcDbEntity
100
AcDbLine
  8
components
 62
256
370
-1
  6
ByLayer
 10
97.9999999999999432
 20
328.0
 30
0.0
 11
97.9999999999999432
 21
332.0
 31
0.0
  0
LINE
  5
249
100
AcDbEntity
100
AcDbLine
  8
components
 62
256
370
-1
  6
ByLayer
 10
97.9999999999999432
 20
332.0
 30
0.0
 11
87.9999999999999432
 21
332.0
 31
0.0
  0
LINE
  5
24A
100
AcDbEntity
100
AcDbLine
  8
wires
 62
256
370
-1
  6
ByLayer
 10
77.0000000000000568
 20
330.0
 30
0.0
 11
70.0
 21
340.0000000000000568
 31
0.0
  0
LINE
  5
24B
100
AcDbEntity
100
AcDbLine
  8
wires
 62
256
370
-1
  6
ByLayer
 10
83.0000000000000568
 20
330.0
 30
0.0
 11
78.9999999999999432
 21
335.0
 31
0.0
  0
LINE
  5
24C
100
AcDbEntity
100
AcDbLine
  8
wires
 62
256
370
-1
  6
ByLayer
 10
78.9999999999999432
 20
335.0
 30
0.0
 11
31.0
 21
337.0
 31
0.0
  0
LINE
  5
24D
100
AcDbEntity
100
AcDbLine
  8
wires
 62
256
370
-1
  6
ByLayer
 10
31.0
 20
337.0
 30
0.0
 11
21.717543138347537
 21
340.656550660065875
 31
0.0
  0
LINE
  5
24E
100
AcDbEntity
100
AcDbLine
  8
underboard wires
 62
256
370
-1
  6
ByLayer
 10
57.0000000000001137
 20
330.0
 30
0.0
 11
50.0000000000001705
 21
309.9999999999999432
 31
0.0
  0
CIRCLE
  5
24F
100
AcDbEntity
100
AcDbCircle
  8
board
 62
256
370
-1
  6
ByLayer
 10
70.0000000000000568
 20
360.0
 30
0.0
 40
1.2
  0
CIRCLE
  5
250
100
AcDbEntity
100
AcDbCircle
  8
board
 62
256
370
-1
  6
ByLayer
 10
50.0000000000000568
 20
360.0
 30
0.0
 40
1.2
  0
ELLIPSE
  5
251
100
AcDbEntity
100
AcDbEllipse
  8
components
 62
256
370
-1
  6
ByLayer
 10
60.0
 20
360.0
 30
0.0
 11
-6.0
 21
0.0000000000000007
 31
0.0
 40
0.3333333333333333
 41
0.0
 42
6.2831853071795862
  0
LINE
  5
252
100
AcDbEntity
100
AcDbLine
  8
wires
 62
256
370
-1
  6
ByLayer
 10
50.0000000000000568
 20
360.0
 30
0.0
 11
21.0308763458506291
 21
359.4439024751193301
 31
0.0
  0
CIRCLE
  5
253
100
AcDbEntity
100
AcDbCircle
  8
board
 62
256
370
-1
  6
ByLayer
 10
90.0
 20
360.0
 30
0.0
 40
1.2
  0
CIRCLE
  5
254
100
AcDbEntity
100
AcDbCircle
  8
board
 62
256
370
-1
  6
ByLayer
 10
110.0
 20
360.0
 30
0.0
 40
1.2
  0
LINE
  5
255
100
AcDbEntity
100
AcDbLine
  8
components
 62
256
370
-1
  6
ByLayer
 10
75.0
 20
362.0
 30
0.0
 11
74.9999999999998863
 21
358.0
 31
0.0
  0
LINE
  5
256
100
AcDbEntity
100
AcDbLine
  8
components
 62
256
370
-1
  6
ByLayer
 10
74.9999999999998863
 20
358.0
 30
0.0
 11
84.9999999999999432
 21
358.0
 31
0.0
  0
LINE
  5
257
100
AcDbEntity
100
AcDbLine
  8
components
 62
256
370
-1
  6
ByLayer
 10
84.9999999999999432
 20
358.0
 30
0.0
 11
85.0
 21
362.0
 31
0.0
  0
LINE
  5
258
100
AcDbEntity
100
AcDbLine
  8
components
 62
256
370
-1
  6
ByLayer
 10
85.0
 20
362.0
 30
0.0
 11
75.0
 21
362.0
 31
0.0
  0
ELLIPSE
  5
259
100
AcDbEntity
100
AcDbEllipse
  8
components
 62
256
370
-1
  6
ByLayer
 10
100.0000000000000568
 20
360.0
 30
0.0
 11
-6.0
 21
0.0000000000000007
 31
0.0
 40
0.3333333333333333
 41
0.0
 42
6.2831853071795862
  0
CIRCLE
  5
25A
100
AcDbEntity
100
AcDbCircle
  8
board
 62
256
370
-1
  6
ByLayer
 10
80.0
 20
350.0
 30
0.0
 40
1.2
  0
CIRCLE
  5
25B
100
AcDbEntity
100
AcDbCircle
  8
board
 62
256
370
-1
  6
ByLayer
 10
110.0
 20
350.0
 30
0.0
 40
1.2
  0
CIRCLE
  5
25C
100
AcDbEntity
100
AcDbCircle
  8
board
 62
256
370
-1
  6
ByLayer
 10
110.0
 20
370.0
 30
0.0
 40
1.2
  0
LINE
  5
25D
100
AcDbEntity
100
AcDbLine
  8
components
 62
256
370
-1
  6
ByLayer
 10
90.0
 20
352.0
 30
0.0
 11
89.9999999999998863
 21
348.0
 31
0.0
  0
LINE
  5
25E
100
AcDbEntity
100
AcDbLine
  8
components
 62
256
370
-1
  6
ByLayer
 10
89.9999999999998863
 20
348.0
 30
0.0
 11
99.9999999999998863
 21
348.0
 31
0.0
  0
LINE
  5
25F
100
AcDbEntity
100
AcDbLine
  8
components
 62
256
370
-1
  6
ByLayer
 10
99.9999999999998863
 20
348.0
 30
0.0
 11
99.9999999999999432
 21
352.0
 31
0.0
  0
LINE
  5
260
100
AcDbEntity
100
AcDbLine
  8
components
 62
256
370
-1
  6
ByLayer
 10
99.9999999999999432
 20
352.0
 30
0.0
 11
90.0
 21
352.0
 31
0.0
  0
LINE
  5
261
100
AcDbEntity
100
AcDbLine
  8
wires
 62
256
370
-1
  6
ByLayer
 10
80.0
 20
350.0
 30
0.0
 11
26.6122065495777065
 21
356.8211967092088344
 31
0.0
  0
LINE
  5
262
100
AcDbEntity
100
AcDbLine
  8
components
 62
256
370
-1
  6
ByLayer
 10
57.0000000000001137
 20
330.0
 30
0.0
 11
61.9999999999998863
 21
330.0000000000000568
 31
0.0
  0
LINE
  5
263
100
AcDbEntity
100
AcDbLine
  8
components
 62
256
370
-1
  6
ByLayer
 10
71.9999999999999432
 20
330.0
 30
0.0
 11
77.0000000000000568
 21
330.0
 31
0.0
  0
LINE
  5
264
100
AcDbEntity
100
AcDbLine
  8
components
 62
256
370
-1
  6
ByLayer
 10
83.0000000000000568
 20
330.0
 30
0.0
 11
88.0
 21
330.0
 31
0.0
  0
LINE
  5
265
100
AcDbEntity
100
AcDbLine
  8
components
 62
256
370
-1
  6
ByLayer
 10
97.9999999999998863
 20
330.0000000000000568
 30
0.0
 11
102.9999999999999432
 21
330.0
 31
0.0
  0
LINE
  5
266
100
AcDbEntity
100
AcDbLine
  8
components
 62
256
370
-1
  6
ByLayer
 10
70.0
 20
340.0000000000000568
 30
0.0
 11
66.0
 21
340.0
 31
0.0
  0
LINE
  5
267
100
AcDbEntity
100
AcDbLine
  8
components
 62
256
370
-1
  6
ByLayer
 10
54.0
 20
340.0
 30
0.0
 11
50.0
 21
340.0
 31
0.0
  0
LINE
  5
268
100
AcDbEntity
100
AcDbLine
  8
components
 62
256
370
-1
  6
ByLayer
 10
70.0
 20
340.0000000000000568
 30
0.0
 11
69.9999999999999432
 21
344.0000000000000568
 31
0.0
  0
LINE
  5
269
100
AcDbEntity
100
AcDbLine
  8
components
 62
256
370
-1
  6
ByLayer
 10
70.0
 20
356.0
 30
0.0
 11
70.0
 21
360.0
 31
0.0
  0
LINE
  5
26A
100
AcDbEntity
100
AcDbLine
  8
components
 62
256
370
-1
  6
ByLayer
 10
70.0
 20
360.0
 30
0.0
 11
66.0
 21
360.0
 31
0.0
  0
LINE
  5
26B
100
AcDbEntity
100
AcDbLine
  8
components
 62
256
370
-1
  6
ByLayer
 10
54.0
 20
360.0
 30
0.0
 11
50.0
 21
360.0
 31
0.0
  0
LINE
  5
26C
100
AcDbEntity
100
AcDbLine
  8
components
 62
256
370
-1
  6
ByLayer
 10
70.0
 20
360.0
 30
0.0
 11
75.0
 21
360.0
 31
0.0
  0
LINE
  5
26D
100
AcDbEntity
100
AcDbLine
  8
components
 62
256
370
-1
  6
ByLayer
 10
80.0
 20
350.0
 30
0.0
 11
89.9999999999999432
 21
350.0000000000000568
 31
0.0
  0
LINE
  5
26E
100
AcDbEntity
100
AcDbLine
  8
components
 62
256
370
-1
  6
ByLayer
 10
85.0
 20
360.0
 30
0.0
 11
90.0
 21
360.0
 31
0.0
  0
LINE
  5
26F
100
AcDbEntity
100
AcDbLine
  8
components
 62
256
370
-1
  6
ByLayer
 10
90.0
 20
360.0
 30
0.0
 11
90.0
 21
360.0
 31
0.0
  0
LINE
  5
270
100
AcDbEntity
100
AcDbLine
  8
components
 62
256
370
-1
  6
ByLayer
 10
90.0
 20
360.0
 30
0.0
 11
94.0000000000000568
 21
359.9999999999999432
 31
0.0
  0
LINE
  5
271
100
AcDbEntity
100
AcDbLine
  8
components
 62
256
370
-1
  6
ByLayer
 10
100.0
 20
350.0
 30
0.0
 11
110.0
 21
350.0
 31
0.0
  0
LINE
  5
272
100
AcDbEntity
100
AcDbLine
  8
components
 62
256
370
-1
  6
ByLayer
 10
106.0
 20
360.0
 30
0.0
 11
110.0
 21
360.0
 31
0.0
  0
CIRCLE
  5
273
100
AcDbEntity
100
AcDbCircle
  8
board
 62
256
370
-1
  6
ByLayer
 10
70.0
 20
370.0
 30
0.0
 40
1.2
  0
LINE
  5
274
100
AcDbEntity
100
AcDbLine
  8
components
 62
256
370
-1
  6
ByLayer
 10
85.0
 20
372.0
 30
0.0
 11
84.9999999999998863
 21
368.0
 31
0.0
  0
LINE
  5
275
100
AcDbEntity
100
AcDbLine
  8
components
 62
256
370
-1
  6
ByLayer
 10
84.9999999999998863
 20
368.0
 30
0.0
 11
95.0
 21
367.9999999999999432
 31
0.0
  0
LINE
  5
276
100
AcDbEntity
100
AcDbLine
  8
components
 62
256
370
-1
  6
ByLayer
 10
95.0
 20
367.9999999999999432
 30
0.0
 11
94.9999999999998863
 21
372.0
 31
0.0
  0
LINE
  5
277
100
AcDbEntity
100
AcDbLine
  8
components
 62
256
370
-1
  6
ByLayer
 10
94.9999999999998863
 20
372.0
 30
0.0
 11
85.0
 21
372.0
 31
0.0
  0
LINE
  5
278
100
AcDbEntity
100
AcDbLine
  8
components
 62
256
370
-1
  6
ByLayer
 10
70.0
 20
370.0
 30
0.0
 11
85.0
 21
370.0
 31
0.0
  0
LINE
  5
279
100
AcDbEntity
100
AcDbLine
  8
components
 62
256
370
-1
  6
ByLayer
 10
95.0
 20
370.0
 30
0.0
 11
110.0
 21
370.0
 31
0.0
  0
LINE
  5
27A
100
AcDbEntity
100
AcDbLine
  8
wires
 62
256
370
-1
  6
ByLayer
 10
70.0
 20
370.0
 30
0.0
 11
50.0
 21
360.0
 31
0.0
  0
LINE
  5
27B
100
AcDbEntity
100
AcDbLine
  8
wires
 62
256
370
-1
  6
ByLayer
 10
90.0
 20
360.0
 30
0.0
 11
98.0
 21
355.0
 31
0.0
  0
LINE
  5
27C
100
AcDbEntity
100
AcDbLine
  8
wires
 62
256
370
-1
  6
ByLayer
 10
98.0
 20
355.0
 30
0.0
 11
115.0
 21
353.0
 31
0.0
  0
LINE
  5
27D
100
AcDbEntity
100
AcDbLine
  8
wires
 62
256
370
-1
  6
ByLayer
 10
110.0
 20
360.0
 30
0.0
 11
108.0
 21
360.0
 31
0.0
  0
LINE
  5
27E
100
AcDbEntity
100
AcDbLine
  8
components
 62
256
370
-1
  6
ByLayer
 10
48.0
 20
332.0
 30
0.0
 11
47.9999999999998863
 21
318.0
 31
0.0
  0
LINE
  5
27F
100
AcDbEntity
100
AcDbLine
  8
components
 62
256
370
-1
  6
ByLayer
 10
47.9999999999998863
 20
318.0
 30
0.0
 11
51.9999999999999432
 21
318.0
 31
0.0
  0
LINE
  5
280
100
AcDbEntity
100
AcDbLine
  8
components
 62
256
370
-1
  6
ByLayer
 10
51.9999999999999432
 20
318.0
 30
0.0
 11
52.0
 21
332.0
 31
0.0
  0
LINE
  5
281
100
AcDbEntity
100
AcDbLine
  8
components
 62
256
370
-1
  6
ByLayer
 10
52.0
 20
332.0
 30
0.0
 11
48.0
 21
332.0
 31
0.0
  0
LINE
  5
282
100
AcDbEntity
100
AcDbLine
  8
components
 62
256
370
-1
  6
ByLayer
 10
50.0
 20
318.0
 30
0.0
 11
50.0
 21
310.0
 31
0.0
  0
LINE
  5
283
100
AcDbEntity
100
AcDbLine
  8
components
 62
256
370
-1
  6
ByLayer
 10
50.0
 20
340.0
 30
0.0
 11
50.0
 21
332.0
 31
0.0
  0
LINE
  5
284
100
AcDbEntity
100
AcDbLine
  8
wires
 62
256
370
-1
  6
ByLayer
 10
50.0
 20
340.0
 30
0.0
 11
26.6426159982884201
 21
343.2084130941816511
 31
0.0
  0
LINE
  5
285
100
AcDbEntity
100
AcDbLine
  8
components
 62
256
370
-1
  6
ByLayer
 10
49.9999999999999432
 20
293.0
 30
0.0
 11
49.9999999999998863
 21
280.0000000000000568
 31
0.0
  0
LINE
  5
286
100
AcDbEntity
100
AcDbLine
  8
wires
 62
256
370
-1
  6
ByLayer
 10
109.9999999999999432
 20
310.0
 30
0.0
 11
149.9999999999999432
 21
280.3650000000000091
 31
0.0
  0
LINE
  5
287
100
AcDbEntity
100
AcDbLine
  8
wires
 62
256
370
-1
  6
ByLayer
 10
102.9999999999999432
 20
330.0
 30
0.0
 11
150.0000000000002274
 21
317.3650000000000091
 31
0.0
  0
LINE
  5
288
100
AcDbEntity
100
AcDbLine
  8
wires
 62
256
370
-1
  6
ByLayer
 10
115.0
 20
353.0
 30
0.0
 11
144.9999999999998295
 21
321.0
 31
0.0
  0
LINE
  5
289
100
AcDbEntity
100
AcDbLine
  8
wires
 62
256
370
-1
  6
ByLayer
 10
144.9999999999998295
 20
329.0
 30
0.0
 11
110.0
 21
360.0
 31
0.0
  0
CIRCLE
  5
28A
100
AcDbEntity
100
AcDbCircle
  8
board
 62
256
370
-1
  6
ByLayer
 10
100.0
 20
340.0
 30
0.0
 40
1.2
  0
LINE
  5
28B
100
AcDbEntity
100
AcDbLine
  8
components
 62
256
370
-1
  6
ByLayer
 10
80.0
 20
342.0
 30
0.0
 11
79.9999999999999432
 21
338.0
 31
0.0
  0
LINE
  5
28C
100
AcDbEntity
100
AcDbLine
  8
components
 62
256
370
-1
  6
ByLayer
 10
79.9999999999999432
 20
338.0
 30
0.0
 11
90.0
 21
337.9999999999999432
 31
0.0
  0
LINE
  5
28D
100
AcDbEntity
100
AcDbLine
  8
components
 62
256
370
-1
  6
ByLayer
 10
90.0
 20
337.9999999999999432
 30
0.0
 11
90.0
 21
342.0
 31
0.0
  0
LINE
  5
28E
100
AcDbEntity
100
AcDbLine
  8
components
 62
256
370
-1
  6
ByLayer
 10
90.0
 20
342.0
 30
0.0
 11
80.0
 21
342.0
 31
0.0
  0
LINE
  5
28F
100
AcDbEntity
100
AcDbLine
  8
components
 62
256
370
-1
  6
ByLayer
 10
80.0
 20
340.0
 30
0.0
 11
70.0
 21
340.0000000000000568
 31
0.0
  0
LINE
  5
290
100
AcDbEntity
100
AcDbLine
  8
components
 62
256
370
-1
  6
ByLayer
 10
100.0
 20
340.0
 30
0.0
 11
90.0000000000001137
 21
340.0
 31
0.0
  0
LINE
  5
291
100
AcDbEntity
100
AcDbLine
  8
wires
 62
256
370
-1
  6
ByLayer
 10
100.0
 20
340.0
 30
0.0
 11
149.9999999999998863
 21
288.0
 31
0.0
  0
CIRCLE
  5
292
100
AcDbEntity
100
AcDbCircle
  8
board
 62
256
370
-1
  6
ByLayer
 10
60.0
 20
290.0
 30
0.0
 40
1.2
  0
CIRCLE
  5
293
100
AcDbEntity
100
AcDbCircle
  8
board
 62
256
370
-1
  6
ByLayer
 10
100.0
 20
290.0
 30
0.0
 40
1.2
  0
LINE
  5
294
100
AcDbEntity
100
AcDbLine
  8
components
 62
256
370
-1
  6
ByLayer
 10
74.9999999999999432
 20
292.0
 30
0.0
 11
74.9999999999998863
 21
288.0
 31
0.0
  0
LINE
  5
295
100
AcDbEntity
100
AcDbLine
  8
components
 62
256
370
-1
  6
ByLayer
 10
74.9999999999998863
 20
288.0
 30
0.0
 11
84.9999999999998863
 21
288.0
 31
0.0
  0
LINE
  5
296
100
AcDbEntity
100
AcDbLine
  8
components
 62
256
370
-1
  6
ByLayer
 10
84.9999999999998863
 20
288.0
 30
0.0
 11
84.9999999999998863
 21
292.0
 31
0.0
  0
LINE
  5
297
100
AcDbEntity
100
AcDbLine
  8
components
 62
256
370
-1
  6
ByLayer
 10
84.9999999999998863
 20
292.0
 30
0.0
 11
74.9999999999999432
 21
292.0
 31
0.0
  0
LINE
  5
298
100
AcDbEntity
100
AcDbLine
  8
components
 62
256
370
-1
  6
ByLayer
 10
74.9999999999998863
 20
290.0000000000000568
 30
0.0
 11
60.0
 21
290.0
 31
0.0
  0
LINE
  5
299
100
AcDbEntity
100
AcDbLine
  8
components
 62
256
370
-1
  6
ByLayer
 10
85.0
 20
290.0
 30
0.0
 11
100.0
 21
290.0
 31
0.0
  0
LINE
  5
29A
100
AcDbEntity
100
AcDbLine
  8
underboard wires
 62
256
370
-1
  6
ByLayer
 10
50.0
 20
310.0
 30
0.0
 11
60.0
 21
290.0
 31
0.0
  0
LINE
  5
29B
100
AcDbEntity
100
AcDbLine
  8
components
 62
256
370
-1
  6
ByLayer
 10
158.0000000000015916
 20
262.0
 30
0.0
 11
158.0000000000005684
 21
268.0
 31
0.0
  0
LINE
  5
29C
100
AcDbEntity
100
AcDbLine
  8
components
 62
256
370
-1
  6
ByLayer
 10
158.0000000000005684
 20
268.0
 30
0.0
 11
159.0000000000014211
 21
268.0
 31
0.0
  0
LINE
  5
29D
100
AcDbEntity
100
AcDbLine
  8
components
 62
256
370
-1
  6
ByLayer
 10
159.0000000000014211
 20
268.0
 30
0.0
 11
158.9999999999998295
 21
267.0
 31
0.0
  0
LINE
  5
29E
100
AcDbEntity
100
AcDbLine
  8
components
 62
256
370
-1
  6
ByLayer
 10
158.9999999999998295
 20
267.0
 30
0.0
 11
161.0000000000001137
 21
267.0
 31
0.0
  0
LINE
  5
29F
100
AcDbEntity
100
AcDbLine
  8
components
 62
256
370
-1
  6
ByLayer
 10
161.0000000000001137
 20
267.0
 30
0.0
 11
160.9999999999985221
 21
268.0
 31
0.0
  0
LINE
  5
2A0
100
AcDbEntity
100
AcDbLine
  8
components
 62
256
370
-1
  6
ByLayer
 10
160.9999999999985221
 20
268.0
 30
0.0
 11
161.9999999999993747
 21
268.0
 31
0.0
  0
LINE
  5
2A1
100
AcDbEntity
100
AcDbLine
  8
components
 62
256
370
-1
  6
ByLayer
 10
161.9999999999993747
 20
268.0
 30
0.0
 11
162.0000000000005684
 21
266.0
 31
0.0
  0
LINE
  5
2A2
100
AcDbEntity
100
AcDbLine
  8
components
 62
256
370
-1
  6
ByLayer
 10
158.0000000000015916
 20
262.0
 30
0.0
 11
158.9999999999985221
 21
262.0
 31
0.0
  0
LINE
  5
2A3
100
AcDbEntity
100
AcDbLine
  8
components
 62
256
370
-1
  6
ByLayer
 10
158.9999999999985221
 20
262.0
 30
0.0
 11
158.9999999999982379
 21
263.0
 31
0.0
  0
LINE
  5
2A4
100
AcDbEntity
100
AcDbLine
  8
components
 62
256
370
-1
  6
ByLayer
 10
158.9999999999982379
 20
263.0
 30
0.0
 11
161.0000000000016485
 21
263.0
 31
0.0
  0
LINE
  5
2A5
100
AcDbEntity
100
AcDbLine
  8
components
 62
256
370
-1
  6
ByLayer
 10
161.0000000000016485
 20
263.0
 30
0.0
 11
161.0000000000014211
 21
262.0
 31
0.0
  0
LINE
  5
2A6
100
AcDbEntity
100
AcDbLine
  8
components
 62
256
370
-1
  6
ByLayer
 10
161.0000000000014211
 20
262.0
 30
0.0
 11
161.9999999999983515
 21
262.0
 31
0.0
  0
LINE
  5
2A7
100
AcDbEntity
100
AcDbLine
  8
components
 62
256
370
-1
  6
ByLayer
 10
161.9999999999983515
 20
262.0
 30
0.0
 11
162.0000000000005684
 21
266.0
 31
0.0
  0
ARC
  5
2A8
100
AcDbEntity
  8
components
 62
256
370
-1
  6
ByLayer
100
AcDbCircle
 10
162.0000000000001137
 20
265.0
 30
0.0
 40
2.0
100
AcDbArc
 50
270.0
 51
90.0
  0
LINE
  5
2A9
100
AcDbEntity
100
AcDbLine
  8
components
 62
256
370
-1
  6
ByLayer
 10
157.9999999999993747
 20
264.0
 30
0.0
 11
151.0000000000000568
 21
264.0
 31
0.0
  0
LINE
  5
2AA
100
AcDbEntity
100
AcDbLine
  8
components
 62
256
370
-1
  6
ByLayer
 10
157.9999999999993179
 20
266.0
 30
0.0
 11
152.9999999999996589
 21
266.0
 31
0.0
  0
MTEXT
  5
2AB
100
AcDbEntity
100
AcDbMText
  8
components
 62
256
370
-1
  6
ByLayer
 10
155.0000000000000568
 20
269.0
 30
0.0
 40
2.0
 41
100.0
 71
1
 72
2
  1
LED
  7
iso8859-11
 50
90.0
 73
1
 44
1.0
  0
MTEXT
  5
2AC
100
AcDbEntity
100
AcDbMText
  8
components
 62
256
370
-1
  6
ByLayer
 10
168.9999999999998863
 20
261.0
 30
0.0
 40
2.0
 41
100.0
 71
1
 72
2
  1
Status
  7
iso8859-11
 50
90.0
 73
1
 44
1.0
  0
LINE
  5
2AD
100
AcDbEntity
100
AcDbLine
  8
wires
 62
256
370
-1
  6
ByLayer
 10
151.0000000000000568
 20
264.0
 30
0.0
 11
100.0
 21
290.0
 31
0.0
  0
LINE
  5
2AE
100
AcDbEntity
100
AcDbLine
  8
wires
 62
256
370
-1
  6
ByLayer
 10
152.9999999999996589
 20
266.0
 30
0.0
 11
109.9999999999999432
 21
310.0
 31
0.0
  0
LINE
  5
2AF
100
AcDbEntity
100
AcDbLine
  8
underboard wires
 62
256
370
-1
  6
ByLayer
 10
57.0000000000000568
 20
329.9999999999999432
 30
0.0
 11
100.0
 21
400.0
 31
0.0
  0
LINE
  5
2B0
100
AcDbEntity
100
AcDbLine
  8
underboard wires
 62
256
370
-1
  6
ByLayer
 10
100.0
 20
400.0
 30
0.0
 11
100.0
 21
400.0
 31
0.0
  0
LINE
  5
2B1
100
AcDbEntity
100
AcDbLine
  8
underboard wires
 62
256
370
-1
  6
ByLayer
 10
100.0
 20
400.0
 30
0.0
 11
100.0
 21
430.0
 31
0.0
  0
LINE
  5
2B2
100
AcDbEntity
100
AcDbLine
  8
wires
 62
256
370
-1
  6
ByLayer
 10
21.0
 20
184.0
 30
0.0
 11
-2.0
 21
207.9999999999999716
 31
0.0
  0
LINE
  5
2B3
100
AcDbEntity
100
AcDbLine
  8
wires
 62
256
370
-1
  6
ByLayer
 10
-2.0
 20
207.9999999999999716
 30
0.0
 11
-2.0
 21
380.0
 31
0.0
  0
LINE
  5
2B4
100
AcDbEntity
100
AcDbLine
  8
wires
 62
256
370
-1
  6
ByLayer
 10
-2.0
 20
380.0
 30
0.0
 11
50.0
 21
380.0
 31
0.0
  0
MTEXT
  5
2B5
100
AcDbEntity
100
AcDbMText
  8
components
 62
256
370
-1
  6
ByLayer
 10
33.0
 20
269.0
 30
0.0
 40
2.0
 41
100.0
 71
1
 72
2
  1
R\P9
  7
iso8859-11
 50
90.0
 73
0
 44
1.0
  0
MTEXT
  5
2B6
100
AcDbEntity
100
AcDbMText
  8
components
 62
256
370
-1
  6
ByLayer
 10
78.0000000000000568
 20
289.0
 30
0.0
 40
2.0
 41
100.0
 71
1
 72
2
  1
R\P10
  7
iso8859-11
 50
90.0
 73
0
 44
1.0
  0
MTEXT
  5
2B7
100
AcDbEntity
100
AcDbMText
  8
components
 62
256
370
-1
  6
ByLayer
 10
48.9999999999998863
 20
298.0000000000001137
 30
0.0
 40
2.0
 41
100.0
 71
1
 72
2
  1
R11
  7
iso8859-11
 50
90.0
 73
0
 44
1.0
  0
MTEXT
  5
2B8
100
AcDbEntity
100
AcDbMText
  8
components
 62
256
370
-1
  6
ByLayer
 10
49.0
 20
323.0
 30
0.0
 40
2.0
 41
100.0
 71
1
 72
2
  1
R12
  7
iso8859-11
 50
90.0
 73
0
 44
1.0
  0
MTEXT
  5
2B9
100
AcDbEntity
100
AcDbMText
  8
components
 62
256
370
-1
  6
ByLayer
 10
65.0
 20
329.0
 30
0.0
 40
2.0
 41
100.0
 71
1
 72
2
  1
R\P13
  7
iso8859-11
 50
90.0
 73
0
 44
1.0
  0
MTEXT
  5
2BA
100
AcDbEntity
100
AcDbMText
  8
components
 62
256
370
-1
  6
ByLayer
 10
91.0
 20
329.0
 30
0.0
 40
2.0
 41
100.0
 71
1
 72
2
  1
R\P14
  7
iso8859-11
 50
90.0
 73
0
 44
1.0
  0
MTEXT
  5
2BB
100
AcDbEntity
100
AcDbMText
  8
components
 62
256
370
-1
  6
ByLayer
 10
83.0
 20
339.0
 30
0.0
 40
2.0
 41
100.0
 71
1
 72
2
  1
R\P15
  7
iso8859-11
 50
90.0
 73
0
 44
1.0
  0
MTEXT
  5
2BC
100
AcDbEntity
100
AcDbMText
  8
components
 62
256
370
-1
  6
ByLayer
 10
91.9999999999999432
 20
349.0
 30
0.0
 40
2.0
 41
100.0
 71
1
 72
2
  1
R\P16
  7
iso8859-11
 50
90.0
 73
0
 44
1.0
  0
MTEXT
  5
2BD
100
AcDbEntity
100
AcDbMText
  8
components
 62
256
370
-1
  6
ByLayer
 10
77.9999999999999432
 20
359.0
 30
0.0
 40
2.0
 41
100.0
 71
1
 72
2
  1
R\P17
  7
iso8859-11
 50
90.0
 73
0
 44
1.0
  0
MTEXT
  5
2BE
100
AcDbEntity
100
AcDbMText
  8
components
 62
256
370
-1
  6
ByLayer
 10
88.0
 20
369.0
 30
0.0
 40
2.0
 41
100.0
 71
1
 72
2
  1
R\P18
  7
iso8859-11
 50
90.0
 73
0
 44
1.0
  0
MTEXT
  5
2BF
100
AcDbEntity
100
AcDbMText
  8
components
 62
256
370
-1
  6
ByLayer
 10
67.0
 20
378.0
 30
0.0
 40
2.0
 41
100.0
 71
1
 72
2
  1
R\P19
  7
iso8859-11
 50
90.0
 73
0
 44
1.0
  0
MTEXT
  5
2C0
100
AcDbEntity
100
AcDbMText
  8
components
 62
256
370
-1
  6
ByLayer
 10
69.0
 20
388.0
 30
0.0
 40
2.0
 41
100.0
 71
1
 72
2
  1
R\P20
  7
iso8859-11
 50
90.0
 73
0
 44
1.0
  0
MTEXT
  5
2C1
100
AcDbEntity
100
AcDbMText
  8
components
 62
256
370
-1
  6
ByLayer
 10
96.0
 20
389.0
 30
0.0
 40
2.0
 41
100.0
 71
1
 72
2
  1
R\P21
  7
iso8859-11
 50
90.0
 73
0
 44
1.0
  0
MTEXT
  5
2C2
100
AcDbEntity
100
AcDbMText
  8
components
 62
256
370
-1
  6
ByLayer
 10
78.0
 20
398.0
 30
0.0
 40
2.0
 41
100.0
 71
1
 72
2
  1
R\P22
  7
iso8859-11
 50
90.0
 73
0
 44
1.0
  0
MTEXT
  5
2C3
100
AcDbEntity
100
AcDbMText
  8
components
 62
256
370
-1
  6
ByLayer
 10
31.0
 20
395.0
 30
0.0
 40
2.0
 41
100.0
 71
1
 72
2
  1
R\P23
  7
iso8859-11
 50
90.0
 73
0
 44
1.0
  0
MTEXT
  5
2C4
100
AcDbEntity
100
AcDbMText
  8
components
 62
256
370
-1
  6
ByLayer
 10
82.0
 20
409.0
 30
0.0
 40
2.0
 41
100.0
 71
1
 72
2
  1
R\P24
  7
iso8859-11
 50
90.0
 73
0
 44
1.0
  0
MTEXT
  5
2C5
100
AcDbEntity
100
AcDbMText
  8
components
 62
256
370
-1
  6
ByLayer
 10
30.7332071778094473
 20
413.8754349102910055
 30
0.0
 40
2.0
 41
100.0
 71
1
 72
2
  1
R\P25
  7
iso8859-11
 50
90.0
 73
0
 44
1.0
  0
MTEXT
  5
2C6
100
AcDbEntity
100
AcDbMText
  8
components
 62
256
370
-1
  6
ByLayer
 10
77.1189037520359761
 20
428.6237076672244939
 30
0.0
 40
2.0
 41
100.0
 71
1
 72
2
  1
R\P26
  7
iso8859-11
 50
90.0
 73
0
 44
1.0
  0
MTEXT
  5
2C7
100
AcDbEntity
100
AcDbMText
  8
components
 62
256
370
-1
  6
ByLayer
 10
138.3718107667197614
 20
422.9146988580889115
 30
0.0
 40
2.0
 41
100.0
 71
1
 72
2
  1
R\P27
  7
iso8859-11
 50
90.0
 73
0
 44
1.0
  0
MTEXT
  5
2C8
100
AcDbEntity
100
AcDbMText
  8
components
 62
256
370
-1
  6
ByLayer
 10
56.8757100163092559
 20
339.3728699510721754
 30
0.0
 40
2.0
 41
100.0
 71
1
 72
2
  1
C\P6
  7
iso8859-11
 50
90.0
 73
0
 44
1.0
  0
MTEXT
  5
2C9
100
AcDbEntity
100
AcDbMText
  8
components
 62
256
370
-1
  6
ByLayer
 10
69.1500789559507894
 20
346.0333802283969931
 30
0.0
 40
2.0
 41
100.0
 71
1
 72
2
  1
C7
  7
iso8859-11
 50
90.0
 73
0
 44
1.0
  0
MTEXT
  5
2CA
100
AcDbEntity
100
AcDbMText
  8
components
 62
256
370
-1
  6
ByLayer
 10
57.446610897222854
 20
359.2592506362277618
 30
0.0
 40
2.0
 41
100.0
 71
1
 72
2
  1
C\P8
  7
iso8859-11
 50
90.0
 73
0
 44
1.0
  0
MTEXT
  5
2CB
100
AcDbEntity
100
AcDbMText
  8
components
 62
256
370
-1
  6
ByLayer
 10
97.5999728548097778
 20
359.0689503425899147
 30
0.0
 40
2.0
 41
100.0
 71
1
 72
2
  1
C\P9
  7
iso8859-11
 50
90.0
 73
0
 44
1.0
  0
MTEXT
  5
2CC
100
AcDbEntity
100
AcDbMText
  8
components
 62
256
370
-1
  6
ByLayer
 10
134.9939805546478055
 20
360.8768031321495187
 30
0.0
 40
2.0
 41
100.0
 71
1
 72
2
  1
C10
  7
iso8859-11
 50
90.0
 73
0
 44
1.0
  0
MTEXT
  5
2CD
100
AcDbEntity
100
AcDbMText
  8
components
 62
256
370
-1
  6
ByLayer
 10
145.0798961174540409
 20
376.576577357272356
 30
0.0
 40
2.0
 41
100.0
 71
1
 72
2
  1
C11
  7
iso8859-11
 50
90.0
 73
0
 44
1.0
  0
MTEXT
  5
2CE
100
AcDbEntity
100
AcDbMText
  8
components
 62
256
370
-1
  6
ByLayer
 10
69.8161299836832541
 20
393.7036037846791032
 30
0.0
 40
2.0
 41
100.0
 71
1
 72
2
  1
C\P12
  7
iso8859-11
 50
90.0
 73
0
 44
1.0
  0
MTEXT
  5
2CF
100
AcDbEntity
100
AcDbMText
  8
components
 62
256
370
-1
  6
ByLayer
 10
81.1389974551354953
 20
413.7802847634725936
 30
0.0
 40
2.0
 41
100.0
 71
1
 72
2
  1
C\P13
  7
iso8859-11
 50
90.0
 73
0
 44
1.0
  0
MTEXT
  5
2D0
100
AcDbEntity
100
AcDbMText
  8
components
 62
256
370
-1
  6
ByLayer
 10
77.4281417291973639
 20
418.9183926916945779
 30
0.0
 40
2.0
 41
100.0
 71
1
 72
2
  1
C\P14
  7
iso8859-11
 50
90.0
 73
0
 44
1.0
  0
LINE
  5
2D1
100
AcDbEntity
100
AcDbLine
  8
wires
 62
256
370
-1
  6
ByLayer
 10
60.0
 20
400.0
 30
0.0
 11
76.0
 21
368.0
 31
0.0
  0
LINE
  5
2D2
100
AcDbEntity
100
AcDbLine
  8
wires
 62
256
370
-1
  6
ByLayer
 10
76.0
 20
368.0
 30
0.0
 11
100.0
 21
280.0
 31
0.0
  0
LINE
  5
2D3
100
AcDbEntity
100
AcDbLine
  8
transformers
 62
256
370
-1
  6
ByLayer
 10
49.9999999999999432
 20
20.0
 30
0.0
 11
50.0000000000001137
 21
83.9999999999999432
 31
0.0
  0
LINE
  5
2D4
100
AcDbEntity
100
AcDbLine
  8
transformers
 62
256
370
-1
  6
ByLayer
 10
50.0000000000001137
 20
83.9999999999999432
 30
0.0
 11
104.9999999999997726
 21
84.0
 31
0.0
  0
LINE
  5
2D5
100
AcDbEntity
100
AcDbLine
  8
transformers
 62
256
370
-1
  6
ByLayer
 10
104.9999999999997726
 20
84.0
 30
0.0
 11
105.0
 21
20.0
 31
0.0
  0
LINE
  5
2D6
100
AcDbEntity
100
AcDbLine
  8
transformers
 62
256
370
-1
  6
ByLayer
 10
105.0
 20
20.0
 30
0.0
 11
49.9999999999999432
 21
20.0
 31
0.0
  0
CIRCLE
  5
2D7
100
AcDbEntity
100
AcDbCircle
  8
board
 62
256
370
-1
  6
ByLayer
 10
79.9999999999999432
 20
170.0
 30
0.0
 40
1.2
  0
CIRCLE
  5
2D8
100
AcDbEntity
100
AcDbCircle
  8
board
 62
256
370
-1
  6
ByLayer
 10
80.0000000000001705
 20
159.9999999999999432
 30
0.0
 40
1.2
  0
LINE
  5
2D9
100
AcDbEntity
100
AcDbLine
  8
components
 62
256
370
-1
  6
ByLayer
 10
60.0000000000001705
 20
172.0
 30
0.0
 11
59.9999999999997726
 21
168.0000000000000568
 31
0.0
  0
LINE
  5
2DA
100
AcDbEntity
100
AcDbLine
  8
components
 62
256
370
-1
  6
ByLayer
 10
59.9999999999997726
 20
168.0000000000000568
 30
0.0
 11
69.9999999999997158
 21
168.0
 31
0.0
  0
LINE
  5
2DB
100
AcDbEntity
100
AcDbLine
  8
components
 62
256
370
-1
  6
ByLayer
 10
69.9999999999997158
 20
168.0
 30
0.0
 11
70.0000000000001705
 21
171.9999999999999432
 31
0.0
  0
LINE
  5
2DC
100
AcDbEntity
100
AcDbLine
  8
components
 62
256
370
-1
  6
ByLayer
 10
70.0000000000001705
 20
171.9999999999999432
 30
0.0
 11
60.0000000000001705
 21
172.0
 31
0.0
  0
LINE
  5
2DD
100
AcDbEntity
100
AcDbLine
  8
components
 62
256
370
-1
  6
ByLayer
 10
60.0000000000001705
 20
172.0
 30
0.0
 11
59.9999999999997726
 21
168.0000000000000568
 31
0.0
  0
LINE
  5
2DE
100
AcDbEntity
100
AcDbLine
  8
components
 62
256
370
-1
  6
ByLayer
 10
59.9999999999997726
 20
168.0000000000000568
 30
0.0
 11
61.9999999999997726
 21
168.0
 31
0.0
  0
LINE
  5
2DF
100
AcDbEntity
100
AcDbLine
  8
components
 62
256
370
-1
  6
ByLayer
 10
61.9999999999997726
 20
168.0
 30
0.0
 11
61.9999999999998295
 21
172.0
 31
0.0
  0
LINE
  5
2E0
100
AcDbEntity
100
AcDbLine
  8
components
 62
256
370
-1
  6
ByLayer
 10
61.9999999999998295
 20
172.0
 30
0.0
 11
60.0000000000001705
 21
172.0
 31
0.0
  0
LINE
  5
2E1
100
AcDbEntity
100
AcDbLine
  8
components
 62
256
370
-1
  6
ByLayer
 10
59.9999999999997158
 20
162.0
 30
0.0
 11
59.9999999999998863
 21
158.0
 31
0.0
  0
LINE
  5
2E2
100
AcDbEntity
100
AcDbLine
  8
components
 62
256
370
-1
  6
ByLayer
 10
59.9999999999998863
 20
158.0
 30
0.0
 11
69.9999999999998295
 21
158.0
 31
0.0
  0
LINE
  5
2E3
100
AcDbEntity
100
AcDbLine
  8
components
 62
256
370
-1
  6
ByLayer
 10
69.9999999999998295
 20
158.0
 30
0.0
 11
70.0000000000001137
 21
162.0
 31
0.0
  0
LINE
  5
2E4
100
AcDbEntity
100
AcDbLine
  8
components
 62
256
370
-1
  6
ByLayer
 10
70.0000000000001137
 20
162.0
 30
0.0
 11
59.9999999999997158
 21
162.0
 31
0.0
  0
LINE
  5
2E5
100
AcDbEntity
100
AcDbLine
  8
components
 62
256
370
-1
  6
ByLayer
 10
59.9999999999997158
 20
162.0
 30
0.0
 11
59.9999999999998863
 21
158.0
 31
0.0
  0
LINE
  5
2E6
100
AcDbEntity
100
AcDbLine
  8
components
 62
256
370
-1
  6
ByLayer
 10
59.9999999999998863
 20
158.0
 30
0.0
 11
62.0000000000003411
 21
158.0
 31
0.0
  0
LINE
  5
2E7
100
AcDbEntity
100
AcDbLine
  8
components
 62
256
370
-1
  6
ByLayer
 10
62.0000000000003411
 20
158.0
 30
0.0
 11
62.0000000000002274
 21
161.9999999999999432
 31
0.0
  0
LINE
  5
2E8
100
AcDbEntity
100
AcDbLine
  8
components
 62
256
370
-1
  6
ByLayer
 10
62.0000000000002274
 20
161.9999999999999432
 30
0.0
 11
59.9999999999997158
 21
162.0
 31
0.0
  0
CIRCLE
  5
2E9
100
AcDbEntity
100
AcDbCircle
  8
board
 62
256
370
-1
  6
ByLayer
 10
110.0000000000001705
 20
170.0
 30
0.0
 40
1.2
  0
CIRCLE
  5
2EA
100
AcDbEntity
100
AcDbCircle
  8
board
 62
256
370
-1
  6
ByLayer
 10
110.0000000000001137
 20
159.9999999999999432
 30
0.0
 40
1.2
  0
LINE
  5
2EB
100
AcDbEntity
100
AcDbLine
  8
components
 62
256
370
-1
  6
ByLayer
 10
90.0000000000000568
 20
172.0
 30
0.0
 11
89.9999999999998863
 21
168.0
 31
0.0
  0
LINE
  5
2EC
100
AcDbEntity
100
AcDbLine
  8
components
 62
256
370
-1
  6
ByLayer
 10
89.9999999999998863
 20
168.0
 30
0.0
 11
99.9999999999996589
 21
168.0
 31
0.0
  0
LINE
  5
2ED
100
AcDbEntity
100
AcDbLine
  8
components
 62
256
370
-1
  6
ByLayer
 10
99.9999999999996589
 20
168.0
 30
0.0
 11
100.0000000000001705
 21
171.9999999999999432
 31
0.0
  0
LINE
  5
2EE
100
AcDbEntity
100
AcDbLine
  8
components
 62
256
370
-1
  6
ByLayer
 10
100.0000000000001705
 20
171.9999999999999432
 30
0.0
 11
90.0000000000000568
 21
172.0
 31
0.0
  0
LINE
  5
2EF
100
AcDbEntity
100
AcDbLine
  8
components
 62
256
370
-1
  6
ByLayer
 10
90.0000000000000568
 20
172.0
 30
0.0
 11
89.9999999999998863
 21
168.0
 31
0.0
  0
LINE
  5
2F0
100
AcDbEntity
100
AcDbLine
  8
components
 62
256
370
-1
  6
ByLayer
 10
89.9999999999998863
 20
168.0
 30
0.0
 11
91.9999999999996589
 21
168.0
 31
0.0
  0
LINE
  5
2F1
100
AcDbEntity
100
AcDbLine
  8
components
 62
256
370
-1
  6
ByLayer
 10
91.9999999999996589
 20
168.0
 30
0.0
 11
91.9999999999998863
 21
172.0
 31
0.0
  0
LINE
  5
2F2
100
AcDbEntity
100
AcDbLine
  8
components
 62
256
370
-1
  6
ByLayer
 10
91.9999999999998863
 20
172.0
 30
0.0
 11
90.0000000000000568
 21
172.0
 31
0.0
  0
LINE
  5
2F3
100
AcDbEntity
100
AcDbLine
  8
components
 62
256
370
-1
  6
ByLayer
 10
89.9999999999996021
 20
162.0000000000000568
 30
0.0
 11
89.9999999999997726
 21
158.0
 31
0.0
  0
LINE
  5
2F4
100
AcDbEntity
100
AcDbLine
  8
components
 62
256
370
-1
  6
ByLayer
 10
89.9999999999997726
 20
158.0
 30
0.0
 11
99.9999999999998295
 21
157.9999999999999432
 31
0.0
  0
LINE
  5
2F5
100
AcDbEntity
100
AcDbLine
  8
components
 62
256
370
-1
  6
ByLayer
 10
99.9999999999998295
 20
157.9999999999999432
 30
0.0
 11
100.0000000000001137
 21
162.0
 31
0.0
  0
LINE
  5
2F6
100
AcDbEntity
100
AcDbLine
  8
components
 62
256
370
-1
  6
ByLayer
 10
100.0000000000001137
 20
162.0
 30
0.0
 11
89.9999999999996021
 21
162.0000000000000568
 31
0.0
  0
LINE
  5
2F7
100
AcDbEntity
100
AcDbLine
  8
components
 62
256
370
-1
  6
ByLayer
 10
89.9999999999996021
 20
162.0000000000000568
 30
0.0
 11
89.9999999999997726
 21
158.0
 31
0.0
  0
LINE
  5
2F8
100
AcDbEntity
100
AcDbLine
  8
components
 62
256
370
-1
  6
ByLayer
 10
89.9999999999997726
 20
158.0
 30
0.0
 11
92.0000000000002842
 21
157.9999999999999432
 31
0.0
  0
LINE
  5
2F9
100
AcDbEntity
100
AcDbLine
  8
components
 62
256
370
-1
  6
ByLayer
 10
92.0000000000002842
 20
157.9999999999999432
 30
0.0
 11
91.9999999999997726
 21
162.0000000000000568
 31
0.0
  0
LINE
  5
2FA
100
AcDbEntity
100
AcDbLine
  8
components
 62
256
370
-1
  6
ByLayer
 10
91.9999999999997726
 20
162.0000000000000568
 30
0.0
 11
89.9999999999996021
 21
162.0000000000000568
 31
0.0
  0
MTEXT
  5
2FB
100
AcDbEntity
100
AcDbMText
  8
components
 62
256
370
-1
  6
ByLayer
 10
94.9999999999998863
 20
159.0000000000000568
 30
0.0
 40
2.0
 41
100.0
 71
1
 72
2
  1
D1
  7
iso8859-11
 50
90.0
 73
1
 44
1.0
  0
MTEXT
  5
2FC
100
AcDbEntity
100
AcDbMText
  8
components
 62
256
370
-1
  6
ByLayer
 10
95.0000000000000568
 20
168.0
 30
0.0
 40
2.0
 41
100.0
 71
1
 72
2
  1
D2
  7
iso8859-11
 50
90.0
 73
1
 44
1.0
  0
LINE
  5
2FD
100
AcDbEntity
100
AcDbLine
  8
components
 62
256
370
-1
  6
ByLayer
 10
80.0000000000001705
 20
159.9999999999999432
 30
0.0
 11
70.0000000000002274
 21
159.9999999999999432
 31
0.0
  0
LINE
  5
2FE
100
AcDbEntity
100
AcDbLine
  8
components
 62
256
370
-1
  6
ByLayer
 10
79.9999999999999432
 20
170.0
 30
0.0
 11
70.0000000000001705
 21
169.9999999999999432
 31
0.0
  0
LINE
  5
2FF
100
AcDbEntity
100
AcDbLine
  8
components
 62
256
370
-1
  6
ByLayer
 10
80.0000000000001705
 20
159.9999999999999432
 30
0.0
 11
90.0000000000000568
 21
159.9999999999999432
 31
0.0
  0
LINE
  5
300
100
AcDbEntity
100
AcDbLine
  8
components
 62
256
370
-1
  6
ByLayer
 10
79.9999999999999432
 20
170.0
 30
0.0
 11
89.9999999999996589
 21
170.0000000000000568
 31
0.0
  0
LINE
  5
301
100
AcDbEntity
100
AcDbLine
  8
components
 62
256
370
-1
  6
ByLayer
 10
100.0000000000001705
 20
160.0
 30
0.0
 11
110.0000000000001137
 21
159.9999999999999432
 31
0.0
  0
LINE
  5
302
100
AcDbEntity
100
AcDbLine
  8
components
 62
256
370
-1
  6
ByLayer
 10
109.9999999999996589
 20
170.0
 30
0.0
 11
100.0
 21
170.0
 31
0.0
  0
LINE
  5
303
100
AcDbEntity
100
AcDbLine
  8
components
 62
256
370
-1
  6
ByLayer
 10
60.0
 20
160.0
 30
0.0
 11
49.9999999999997726
 21
160.0000000000000568
 31
0.0
  0
LINE
  5
304
100
AcDbEntity
100
AcDbLine
  8
components
 62
256
370
-1
  6
ByLayer
 10
59.9999999999998863
 20
170.0000000000000568
 30
0.0
 11
50.0
 21
170.0
 31
0.0
  0
LINE
  5
305
100
AcDbEntity
100
AcDbLine
  8
wires
 62
256
370
-1
  6
ByLayer
 10
71.9999999999998295
 20
70.0
 30
0.0
 11
76.0
 21
156.9999999999999432
 31
0.0
  0
LINE
  5
306
100
AcDbEntity
100
AcDbLine
  8
wires
 62
256
370
-1
  6
ByLayer
 10
72.9989447299525978
 20
69.9540715066688108
 30
0.0
 11
76.9989447299526546
 21
156.9540715066688676
 31
0.0
  0
LINE
  5
307
100
AcDbEntity
100
AcDbLine
  8
wires
 62
256
370
-1
  6
ByLayer
 10
76.0
 20
156.9999999999999432
 30
0.0
 11
79.9999999999999432
 21
170.0
 31
0.0
  0
LINE
  5
308
100
AcDbEntity
100
AcDbLine
  8
wires
 62
256
370
-1
  6
ByLayer
 10
76.9999999999998863
 20
157.0
 30
0.0
 11
80.0000000000001705
 21
159.9999999999999432
 31
0.0
  0
MTEXT
  5
309
100
AcDbEntity
100
AcDbMText
  8
transformers
 62
256
370
-1
  6
ByLayer
 10
62.9999999999997726
 20
74.0000000000000568
 30
0.0
 40
1.5
 41
100.0
 71
1
 72
2
  1
Heaters\P
  7
iso8859-11
 50
90.0
 73
1
 44
1.0
  0
MTEXT
  5
30A
100
AcDbEntity
100
AcDbMText
  8
components
 62
256
370
-1
  6
ByLayer
 10
65.0000000000001137
 20
158.9999999999999432
 30
0.0
 40
2.0
 41
100.0
 71
1
 72
2
  1
D3
  7
iso8859-11
 50
90.0
 73
1
 44
1.0
  0
MTEXT
  5
30B
100
AcDbEntity
100
AcDbMText
  8
components
 62
256
370
-1
  6
ByLayer
 10
65.0
 20
168.0
 30
0.0
 40
2.0
 41
100.0
 71
1
 72
2
  1
D4
  7
iso8859-11
 50
90.0
 73
1
 44
1.0
  0
LINE
  5
30C
100
AcDbEntity
100
AcDbLine
  8
wires
 62
256
370
-1
  6
ByLayer
 10
110.0000000000000568
 20
199.9999999999999716
 30
0.0
 11
110.0000000000001137
 21
159.9999999999999432
 31
0.0
  0
LINE
  5
30D
100
AcDbEntity
100
AcDbLine
  8
board
 62
256
370
-1
  6
ByLayer
 10
40.0000000000001137
 20
139.9999999999999432
 30
0.0
 11
40.0
 21
440.0
 31
0.0
  0
LINE
  5
30E
100
AcDbEntity
100
AcDbLine
  8
board
 62
256
370
-1
  6
ByLayer
 10
120.0
 20
440.0
 30
0.0
 11
119.9999999999997158
 21
140.0
 31
0.0
  0
LINE
  5
30F
100
AcDbEntity
100
AcDbLine
  8
board
 62
256
370
-1
  6
ByLayer
 10
119.9999999999997158
 20
140.0
 30
0.0
 11
39.9999999999998295
 21
140.0
 31
0.0
  0
CIRCLE
  5
310
100
AcDbEntity
100
AcDbCircle
  8
board
 62
256
370
-1
  6
ByLayer
 10
45.9999999999996589
 20
146.0000000000000568
 30
0.0
 40
2.3999999999999999
  0
CIRCLE
  5
311
100
AcDbEntity
100
AcDbCircle
  8
board
 62
256
370
-1
  6
ByLayer
 10
114.0000000000008527
 20
146.0
 30
0.0
 40
2.3999999999999999
  0
LINE
  5
312
100
AcDbEntity
100
AcDbLine
  8
components
 62
256
370
-1
  6
ByLayer
 10
-4.0000000000002274
 20
98.0000000000000568
 30
0.0
 11
-4.0000000000001137
 21
122.0000000000000568
 31
0.0
  0
LINE
  5
313
100
AcDbEntity
100
AcDbLine
  8
components
 62
256
370
-1
  6
ByLayer
 10
-4.0000000000001137
 20
122.0000000000000568
 30
0.0
 11
2.9999999999998863
 21
122.0000000000000568
 31
0.0
  0
LINE
  5
314
100
AcDbEntity
100
AcDbLine
  8
components
 62
256
370
-1
  6
ByLayer
 10
2.9999999999998863
 20
122.0000000000000568
 30
0.0
 11
2.9999999999998863
 21
98.0000000000001137
 31
0.0
  0
LINE
  5
315
100
AcDbEntity
100
AcDbLine
  8
components
 62
256
370
-1
  6
ByLayer
 10
2.9999999999998863
 20
98.0000000000001137
 30
0.0
 11
-4.0000000000002274
 21
98.0000000000000568
 31
0.0
  0
LINE
  5
316
100
AcDbEntity
100
AcDbLine
  8
components
 62
256
370
-1
  6
ByLayer
 10
-4.0000000000001137
 20
107.0000000000000568
 30
0.0
 11
-4.0
 21
113.0000000000000568
 31
0.0
  0
LINE
  5
317
100
AcDbEntity
100
AcDbLine
  8
components
 62
256
370
-1
  6
ByLayer
 10
-4.0
 20
113.0000000000000568
 30
0.0
 11
-6.0000000000001137
 21
113.0000000000000568
 31
0.0
  0
LINE
  5
318
100
AcDbEntity
100
AcDbLine
  8
components
 62
256
370
-1
  6
ByLayer
 10
-6.0000000000001137
 20
113.0000000000000568
 30
0.0
 11
-5.9999999999998863
 21
107.0
 31
0.0
  0
LINE
  5
319
100
AcDbEntity
100
AcDbLine
  8
components
 62
256
370
-1
  6
ByLayer
 10
-5.9999999999998863
 20
107.0
 30
0.0
 11
-4.0000000000001137
 21
107.0000000000000568
 31
0.0
  0
LINE
  5
31A
100
AcDbEntity
100
AcDbLine
  8
components
 62
256
370
-1
  6
ByLayer
 10
2.9999999999999432
 20
103.0
 30
0.0
 11
5.0000000000001137
 21
102.9999999999999432
 31
0.0
  0
LINE
  5
31B
100
AcDbEntity
100
AcDbLine
  8
components
 62
256
370
-1
  6
ByLayer
 10
2.9999999999998863
 20
110.0000000000000568
 30
0.0
 11
4.9999999999998863
 21
110.0
 31
0.0
  0
LINE
  5
31C
100
AcDbEntity
100
AcDbLine
  8
components
 62
256
370
-1
  6
ByLayer
 10
4.9999999999998863
 20
117.0000000000000568
 30
0.0
 11
3.0000000000001137
 21
116.9999999999999432
 31
0.0
  0
CIRCLE
  5
31D
100
AcDbEntity
100
AcDbCircle
  8
components
 62
256
370
-1
  6
ByLayer
 10
5.0000000000001137
 20
102.9999999999999432
 30
0.0
 40
0.5
  0
CIRCLE
  5
31E
100
AcDbEntity
100
AcDbCircle
  8
components
 62
256
370
-1
  6
ByLayer
 10
4.9999999999998863
 20
110.0
 30
0.0
 40
0.5
  0
CIRCLE
  5
31F
100
AcDbEntity
100
AcDbCircle
  8
components
 62
256
370
-1
  6
ByLayer
 10
4.9999999999998863
 20
117.0000000000000568
 30
0.0
 40
0.5
  0
LINE
  5
320
100
AcDbEntity
100
AcDbLine
  8
wires
 62
256
370
-1
  6
ByLayer
 10
5.0000000000001137
 20
102.9999999999999432
 30
0.0
 11
68.0000000000001137
 21
68.9999999999999432
 31
0.0
  0
LINE
  5
321
100
AcDbEntity
100
AcDbLine
  8
wires
 62
256
370
-1
  6
ByLayer
 10
68.0000000000001137
 20
68.9999999999999432
 30
0.0
 11
68.0000000000001137
 21
68.9999999999999432
 31
0.0
  0
LINE
  5
322
100
AcDbEntity
100
AcDbLine
  8
wires
 62
256
370
-1
  6
ByLayer
 10
68.0000000000000568
 20
71.0
 30
0.0
 11
68.0000000000000568
 21
71.0
 31
0.0
  0
LINE
  5
323
100
AcDbEntity
100
AcDbLine
  8
wires
 62
256
370
-1
  6
ByLayer
 10
68.0000000000000568
 20
71.0
 30
0.0
 11
7.0
 21
104.0
 31
0.0
  0
LINE
  5
324
100
AcDbEntity
100
AcDbLine
  8
wires
 62
256
370
-1
  6
ByLayer
 10
7.0
 20
104.0
 30
0.0
 11
4.9999999999998863
 21
117.0000000000000568
 31
0.0
  0
LINE
  5
325
100
AcDbEntity
100
AcDbLine
  8
wires
 62
256
370
-1
  6
ByLayer
 10
4.9999999999998863
 20
110.0
 30
0.0
 11
110.0000000000001137
 21
159.9999999999999432
 31
0.0
  0
MTEXT
  5
326
100
AcDbEntity
100
AcDbMText
  8
wires
 62
256
370
-1
  6
ByLayer
 10
21.9999999999997726
 20
98.0000000000000568
 30
0.0
 40
1.5
 41
100.0
 71
1
 72
2
  1
Heaters\P
  7
iso8859-11
 50
90.0
 73
1
 44
1.0
  0
MTEXT
  5
327
100
AcDbEntity
100
AcDbMText
  8
wires
 62
256
370
-1
  6
ByLayer
 10
24.0000000000001705
 20
96.9999999999999432
 30
0.0
 40
1.5
 41
100.0
 71
1
 72
2
  1
(twisted)
  7
iso8859-11
 50
90.0
 73
1
 44
1.0
  0
MTEXT
  5
328
100
AcDbEntity
100
AcDbMText
  8
components
 62
256
370
-1
  6
ByLayer
 10
-12.0
 20
103.0
 30
0.0
 40
2.0
 41
100.0
 71
1
 72
2
  1
Humdinger
  7
iso8859-11
 50
90.0
 73
0
 44
1.0
  0
ENDSEC
  0
SECTION
  2
OBJECTS
  0
DICTIONARY
  5
C
100
AcDbDictionary
280
0
281
1
  3
ACAD_GROUP
350
D
  3
ACAD_LAYOUT
350
1A
  3
ACAD_MLINESTYLE
350
17
  3
ACAD_PLOTSETTINGS
350
19
  3
ACAD_PLOTSTYLENAME
350
E
  3
AcDbVariableDictionary
350
329
  0
DICTIONARY
  5
D
100
AcDbDictionary
280
0
281
1
  0
ACDBDICTIONARYWDFLT
  5
E
100
AcDbDictionary
281
1
  3
Normal
350
F
100
AcDbDictionaryWithDefault
340
F
  0
ACDBPLACEHOLDER
  5
F
  0
DICTIONARY
  5
17
100
AcDbDictionary
280
0
281
1
  3
Standard
350
18
  0
MLINESTYLE
  5
18
100
AcDbMlineStyle
  2
STANDARD
 70
0
  3

 62
256
 51
90.0
 52
90.0
 71
2
 49
0.5
 62
256
  6
BYLAYER
 49
-0.5
 62
256
  6
BYLAYER
  0
DICTIONARY
  5
19
100
AcDbDictionary
280
0
281
1
  0
DICTIONARY
  5
1A
100
AcDbDictionary
281
1
  3
Layout1
350
1E
  3
Layout2
350
26
  3
Model
350
22
  0
LAYOUT
  5
1E
100
AcDbPlotSettings
  1

  2
C:\Program Files\AutoCAD 2002\plotters\DWF ePlot (optimized for plotting).pc3
  4

  6

 40
0.0
 41
0.0
 42
0.0
 43
0.0
 44
0.0
 45
0.0
 46
0.0
 47
0.0
 48
0.0
 49
0.0
140
0.0
141
0.0
142
1.0
143
1.0
 70
688
 72
0
 73
0
 74
5
  7

 75
16
147
1.0
148
0.0
149
0.0
100
AcDbLayout
  1
Layout1
 70
1
 71
1
 10
0.0
 20
0.0
 11
420.0
 21
297.0
 12
0.0
 22
0.0
 32
0.0
 14
100000000000000000000.0
 24
100000000000000000000.0
 34
100000000000000000000.0
 15
-100000000000000000000.0
 25
-100000000000000000000.0
 35
-100000000000000000000.0
146
0.0
 13
0.0
 23
0.0
 33
0.0
 16
1.0
 26
0.0
 36
0.0
 17
0.0
 27
1.0
 37
0.0
 76
0
330
1B
  0
LAYOUT
  5
22
100
AcDbPlotSettings
  1

  2
C:\Program Files\AutoCAD 2002\plotters\DWF ePlot (optimized for plotting).pc3
  4

  6

 40
0.0
 41
0.0
 42
0.0
 43
0.0
 44
0.0
 45
0.0
 46
0.0
 47
0.0
 48
0.0
 49
0.0
140
0.0
141
0.0
142
1.0
143
1.0
 70
1712
 72
0
 73
0
 74
0
  7

 75
0
147
1.0
148
0.0
149
0.0
100
AcDbLayout
  1
Model
 70
1
 71
0
 10
0.0
 20
0.0
 11
12.0
 21
9.0
 12
0.0
 22
0.0
 32
0.0
 14
0.0
 24
0.0
 34
0.0
 15
0.0
 25
0.0
 35
0.0
146
0.0
 13
0.0
 23
0.0
 33
0.0
 16
1.0
 26
0.0
 36
0.0
 17
0.0
 27
1.0
 37
0.0
 76
0
330
1F
  0
LAYOUT
  5
26
100
AcDbPlotSettings
  1

  2
C:\Program Files\AutoCAD 2002\plotters\DWF ePlot (optimized for plotting).pc3
  4

  6

 40
0.0
 41
0.0
 42
0.0
 43
0.0
 44
0.0
 45
0.0
 46
0.0
 47
0.0
 48
0.0
 49
0.0
140
0.0
141
0.0
142
1.0
143
1.0
 70
688
 72
0
 73
0
 74
5
  7

 75
16
147
1.0
148
0.0
149
0.0
100
AcDbLayout
  1
Layout2
 70
1
 71
2
 10
0.0
 20
0.0
 11
12.0
 21
9.0
 12
0.0
 22
0.0
 32
0.0
 14
0.0
 24
0.0
 34
0.0
 15
0.0
 25
0.0
 35
0.0
146
0.0
 13
0.0
 23
0.0
 33
0.0
 16
1.0
 26
0.0
 36
0.0
 17
0.0
 27
1.0
 37
0.0
 76
0
330
23
  0
DICTIONARY
  5
329
100
AcDbDictionary
281
1
  3
DIMASSOC
350
32B
  3
HIDETEXT
350
32A
  0
DICTIONARYVAR
  5
32A
100
DictionaryVariables
280
0
  1
2
  0
DICTIONARYVAR
  5
32B
100
DictionaryVariables
280
0
  1
1
  0
ENDSEC
  0
EOF
