<svg xmlns="http://www.w3.org/2000/svg" version="1.1" width="1000.0" height="737.945492662">
  <desc>Created by CircuitLab https://www.circuitlab.com/</desc><g transform="matrix(2.0964360587,0,0,2.0964360587,-5186.58280922,-2408.80503144)">
    <path style="stroke-linejoin: round;" fill="#fffffe" stroke="#000000" d="M0,50L12,36L23.666666666666664,36Z" stroke-width="2" stroke-linejoin="round" transform="translate(2875,1200)"/>
    <rect x="2775" y="1150" width="175" height="350" r="0" rx="0" ry="0" fill="none" stroke="none" style="stroke-opacity: 0;"/>
    <rect x="2775" y="1150" width="175" height="350" r="0" rx="0" ry="0" fill="none" stroke="#fffffe" stroke-dasharray="16,6" stroke-width="2"/>
    <rect x="2475" y="1150" width="225" height="350" r="0" rx="0" ry="0" fill="none" stroke="none" style="stroke-opacity: 0;"/>
    <rect x="2475" y="1150" width="225" height="350" r="0" rx="0" ry="0" fill="none" stroke="#fffffe" stroke-dasharray="16,6" stroke-width="2"/>
    <path style="stroke-linecap: round; stroke-miterlimit: 6;" fill="none" stroke="#fffffe" d="M25,20L25,0" stroke-width="2" stroke-linecap="round" stroke-miterlimit="6" transform="translate(2700,1400)"/>
    <path style="stroke-linecap: round; stroke-linejoin: round; stroke-miterlimit: 6;" fill="#000000" stroke="#fffffe" d="M5,20L25,40L45,20Z" stroke-width="2" stroke-linecap="round" stroke-linejoin="round" stroke-miterlimit="6" transform="translate(2700,1400)"/>
    <path style="stroke-linecap: round; stroke-miterlimit: 6;" fill="none" stroke="#fffffe" d="M25,21.87499L25,0" stroke-width="2" stroke-linecap="round" stroke-miterlimit="6" transform="matrix(0,1,-1,0,2675,1225)"/>
    <path style="stroke-linecap: round; stroke-miterlimit: 6;" fill="none" stroke="#fffffe" d="M25,78.12502L25,100" stroke-width="2" stroke-linecap="round" stroke-miterlimit="6" transform="matrix(0,1,-1,0,2675,1225)"/>
    <path style="stroke-linecap: round; stroke-miterlimit: 6;" fill="none" stroke="#fffffe" d="M25,21.87499L14.062504,26.56249L35.937495,35.93748L14.062504,45.31248L35.937495,54.68752L14.062504,64.06252L35.937495,73.43752L25,78.12502" stroke-width="2" stroke-linecap="round" stroke-miterlimit="6" transform="matrix(0,1,-1,0,2675,1225)"/>
    <text style="font-family: Arial; font-weight: bold; font-size: 16px; text-anchor: middle;" x="0" y="0" text-anchor="middle" stroke="none" fill="#fffffe" transform="translate(2625,1278.35)">
      <tspan dy="7.2">Rout</tspan>
    </text>
    <path style="stroke-linecap: round; stroke-miterlimit: 6;" fill="#000000" stroke="#fffffe" d="M50,50C50,36.19374,38.806255,25,25,25C11.193755,25,0,36.19374,0,50C0,63.80632,11.193755,75,25,75C38.806255,75,50,63.80632,50,50" stroke-width="2" stroke-linecap="round" stroke-miterlimit="6" transform="translate(2500,1275)"/>
    <path style="stroke-linecap: round; stroke-miterlimit: 6;" fill="none" stroke="#fffffe" d="M25,0L25,25" stroke-width="2" stroke-linecap="round" stroke-miterlimit="6" transform="translate(2500,1275)"/>
    <path style="stroke-linecap: round; stroke-miterlimit: 6;" fill="none" stroke="#fffffe" d="M25,100.00002L25,75" stroke-width="2" stroke-linecap="round" stroke-miterlimit="6" transform="translate(2500,1275)"/>
    <path style="font-size: 15px; font-weight: normal;" fill="#fffffe" stroke="none" d="M25.84227,33.168L24.157737,33.168L24.157737,40.48806L16.898932,40.48806L16.898932,42.17259L24.157737,42.17259L24.157737,49.49262L25.84227,49.49262L25.84227,42.17259L33.101076,42.17259L33.101076,40.48806L25.84227,40.48806L25.84227,33.168" font-size="15px" font-weight="normal" transform="translate(2500,1275)"/>
    <path style="font-size: 15px; font-weight: normal;" fill="#fffffe" stroke="none" d="M17.006089,60.39372L17.006089,62.07822L33.055093,62.07822L33.055093,60.39372L17.006089,60.39372" font-size="15px" font-weight="normal" transform="translate(2500,1275)"/>
    <text style="font-family: Arial; font-weight: bold; font-size: 16px; text-anchor: start;" x="0" y="0" text-anchor="start" stroke="none" fill="#fffffe" transform="translate(2556.25,1325)">
      <tspan dy="7.2">Vout</tspan>
    </text>
    <path style="stroke-linecap: round;" fill="none" stroke="#fffffe" d="M 2525 1250 L 2525 1275" stroke-width="2" stroke-linecap="round" class="cl_wire"/>
    <path style="stroke-linecap: round;" fill="none" stroke="#fffffe" d="M 2525 1250 L 2575 1250" stroke-width="2" stroke-linecap="round" class="cl_wire"/>
    <path style="stroke-linecap: round;" fill="none" stroke="#fffffe" d="M 2525 1375 L 2525 1400" stroke-width="2" stroke-linecap="round" class="cl_wire"/>
    <path style="stroke-linecap: round;" fill="none" stroke="#fffffe" d="M 2525 1400 L 2875 1400" stroke-width="2" stroke-linecap="round" class="cl_wire"/>
    <path style="stroke-linecap: round;" fill="none" stroke="#fffffe" d="M 2675 1250 L 2875 1250" stroke-width="2" stroke-linecap="round" class="cl_wire"/>
    <text style="font-family: Arial; font-weight: bold; text-anchor: start; font-size: 24px;" x="0" y="0" text-anchor="start" stroke="none" fill="#fffffe" transform="translate(2525,1189.5)">
      <tspan dy="10.8">Output</tspan>
    </text>
    <path style="stroke-linecap: round; stroke-miterlimit: 6;" fill="none" stroke="#fffffe" d="M25,21.87499L25,0" stroke-width="2" stroke-linecap="round" stroke-miterlimit="6" transform="translate(2850,1275)"/>
    <path style="stroke-linecap: round; stroke-miterlimit: 6;" fill="none" stroke="#fffffe" d="M25,78.12502L25,100" stroke-width="2" stroke-linecap="round" stroke-miterlimit="6" transform="translate(2850,1275)"/>
    <path style="stroke-linecap: round; stroke-miterlimit: 6;" fill="none" stroke="#fffffe" d="M25,21.87499L14.062504,26.56249L35.937495,35.93748L14.062504,45.31248L35.937495,54.68752L14.062504,64.06252L35.937495,73.43752L25,78.12502" stroke-width="2" stroke-linecap="round" stroke-miterlimit="6" transform="translate(2850,1275)"/>
    <text style="font-family: Arial; font-weight: bold; font-size: 16px; text-anchor: start;" x="0" y="0" text-anchor="start" stroke="none" fill="#fffffe" transform="translate(2893.75,1325)">
      <tspan dy="7.2">Rin</tspan>
    </text>
    <path style="stroke-linecap: round;" fill="none" stroke="#fffffe" d="M 2875 1250 L 2875 1275" stroke-width="2" stroke-linecap="round" class="cl_wire"/>
    <path style="stroke-linecap: round;" fill="none" stroke="#fffffe" d="M 2875 1375 L 2875 1400" stroke-width="2" stroke-linecap="round" class="cl_wire"/>
    <text style="font-family: Arial; font-weight: bold; text-anchor: start; font-size: 24px;" x="0" y="0" text-anchor="start" stroke="none" fill="#fffffe" transform="translate(2800,1189.5)">
      <tspan dy="10.8">Input</tspan>
    </text>
    <rect x="7" y="7" width="35" height="29" r="5" rx="5" ry="5" fill="#000000" stroke="#fffffe" stroke-width="2" transform="translate(2875,1200)"/>
    <text style="font-family: Arial; font-weight: bold; font-size: 16px; text-anchor: start;" x="12" y="22" text-anchor="start" stroke="none" fill="#fffffe" transform="translate(2875,1200)">
      <tspan dy="7.2">Vin</tspan>
    </text>
    <circle cx="2725" cy="1400" r="3" fill="#fffffe" stroke="#000000"/>
    <circle cx="2875" cy="1250" r="3" fill="#fffffe" stroke="#000000"/>
  </g>
</svg>
