<svg xmlns="http://www.w3.org/2000/svg" version="1.1" width="1000.0" height="733.333333333">
  <desc>Created by CircuitLab https://www.circuitlab.com/</desc><g transform="matrix(2.08333333333,0,0,2.08333333333,-4893.75,-2393.75)">
    <path style="stroke-linejoin: round;" fill="#fffffe" stroke="#000000" d="M0,50L12,36L27.333333333333336,36Z" stroke-width="2" stroke-linejoin="round" transform="translate(2775,1200)"/>
    <rect x="2350" y="1150" width="350" height="350" r="0" rx="0" ry="0" fill="none" stroke="none" style="stroke-opacity: 0;"/>
    <rect x="2350" y="1150" width="350" height="350" r="0" rx="0" ry="0" fill="none" stroke="#fffffe" stroke-dasharray="16,6" stroke-width="2"/>
    <path style="stroke-linecap: round; stroke-miterlimit: 6;" fill="none" stroke="#fffffe" d="M25,21.87499L25,0" stroke-width="2" stroke-linecap="round" stroke-miterlimit="6" transform="translate(2425,1175)"/>
    <path style="stroke-linecap: round; stroke-miterlimit: 6;" fill="none" stroke="#fffffe" d="M25,78.12502L25,100" stroke-width="2" stroke-linecap="round" stroke-miterlimit="6" transform="translate(2425,1175)"/>
    <path style="stroke-linecap: round; stroke-miterlimit: 6;" fill="none" stroke="#fffffe" d="M25,21.87499L14.062504,26.56249L35.937495,35.93748L14.062504,45.31248L35.937495,54.68752L14.062504,64.06252L35.937495,73.43752L25,78.12502" stroke-width="2" stroke-linecap="round" stroke-miterlimit="6" transform="translate(2425,1175)"/>
    <text style="font-family: Arial; font-weight: bold; font-size: 16px; text-anchor: start;" x="0" y="0" text-anchor="start" stroke="none" fill="#fffffe" transform="translate(2468.75,1225)">
      <tspan dy="7.2">?</tspan>
    </text>
    <path style="stroke-linecap: round; stroke-miterlimit: 6;" fill="none" stroke="#fffffe" d="M25,21.87499L25,0" stroke-width="2" stroke-linecap="round" stroke-miterlimit="6" transform="translate(2350,1250)"/>
    <path style="stroke-linecap: round; stroke-miterlimit: 6;" fill="none" stroke="#fffffe" d="M25,78.12502L25,100" stroke-width="2" stroke-linecap="round" stroke-miterlimit="6" transform="translate(2350,1250)"/>
    <path style="stroke-linecap: round; stroke-miterlimit: 6;" fill="none" stroke="#fffffe" d="M25,21.87499L14.062504,26.56249L35.937495,35.93748L14.062504,45.31248L35.937495,54.68752L14.062504,64.06252L35.937495,73.43752L25,78.12502" stroke-width="2" stroke-linecap="round" stroke-miterlimit="6" transform="translate(2350,1250)"/>
    <text style="font-family: Arial; font-weight: bold; font-size: 16px; text-anchor: start;" x="0" y="0" text-anchor="start" stroke="none" fill="#fffffe" transform="translate(2393.75,1300)">
      <tspan dy="7.2">?</tspan>
    </text>
    <path style="stroke-linecap: round; stroke-miterlimit: 6;" fill="none" stroke="#fffffe" d="M25,21.87499L25,0" stroke-width="2" stroke-linecap="round" stroke-miterlimit="6" transform="matrix(0,1,-1,0,2550,1300)"/>
    <path style="stroke-linecap: round; stroke-miterlimit: 6;" fill="none" stroke="#fffffe" d="M25,78.12502L25,100" stroke-width="2" stroke-linecap="round" stroke-miterlimit="6" transform="matrix(0,1,-1,0,2550,1300)"/>
    <path style="stroke-linecap: round; stroke-miterlimit: 6;" fill="none" stroke="#fffffe" d="M25,21.87499L14.062504,26.56249L35.937495,35.93748L14.062504,45.31248L35.937495,54.68752L14.062504,64.06252L35.937495,73.43752L25,78.12502" stroke-width="2" stroke-linecap="round" stroke-miterlimit="6" transform="matrix(0,1,-1,0,2550,1300)"/>
    <text style="font-family: Arial; font-weight: bold; font-size: 16px; text-anchor: middle;" x="0" y="0" text-anchor="middle" stroke="none" fill="#fffffe" transform="translate(2500,1353.35)">
      <tspan dy="7.2">?</tspan>
    </text>
    <path style="stroke-linecap: round; stroke-miterlimit: 6;" fill="#000000" stroke="#fffffe" d="M50,50C50,36.19374,38.806255,25,25,25C11.193755,25,0,36.19374,0,50C0,63.80632,11.193755,75,25,75C38.806255,75,50,63.80632,50,50" stroke-width="2" stroke-linecap="round" stroke-miterlimit="6" transform="translate(2375,1350)"/>
    <path style="stroke-linecap: round; stroke-miterlimit: 6;" fill="none" stroke="#fffffe" d="M25,0L25,25" stroke-width="2" stroke-linecap="round" stroke-miterlimit="6" transform="translate(2375,1350)"/>
    <path style="stroke-linecap: round; stroke-miterlimit: 6;" fill="none" stroke="#fffffe" d="M25,100.00002L25,75" stroke-width="2" stroke-linecap="round" stroke-miterlimit="6" transform="translate(2375,1350)"/>
    <path style="font-size: 15px; font-weight: normal;" fill="#fffffe" stroke="none" d="M25.84227,33.168L24.157737,33.168L24.157737,40.48806L16.898932,40.48806L16.898932,42.17259L24.157737,42.17259L24.157737,49.49262L25.84227,49.49262L25.84227,42.17259L33.101076,42.17259L33.101076,40.48806L25.84227,40.48806L25.84227,33.168" font-size="15px" font-weight="normal" transform="translate(2375,1350)"/>
    <path style="font-size: 15px; font-weight: normal;" fill="#fffffe" stroke="none" d="M17.006089,60.39372L17.006089,62.07822L33.055093,62.07822L33.055093,60.39372L17.006089,60.39372" font-size="15px" font-weight="normal" transform="translate(2375,1350)"/>
    <text style="font-family: Arial; font-weight: bold; font-size: 16px; text-anchor: start;" x="0" y="0" text-anchor="start" stroke="none" fill="#fffffe" transform="translate(2431.25,1400)">
      <tspan dy="7.2">?</tspan>
    </text>
    <path style="stroke-linecap: round; stroke-miterlimit: 6;" fill="#000000" stroke="#fffffe" d="M50,50C50,36.19373,38.806233,25,25,25C11.193742,25,0,36.19373,0,50C0,63.80632,11.193742,75,25,75C38.806233,75,50,63.80632,50,50" stroke-width="2" stroke-linecap="round" stroke-miterlimit="6" transform="translate(2600,1200)"/>
    <path style="stroke-linecap: round; stroke-miterlimit: 6;" fill="none" stroke="#fffffe" d="M25,0.00002L25,25" stroke-width="2" stroke-linecap="round" stroke-miterlimit="6" transform="translate(2600,1200)"/>
    <path style="stroke-linecap: round; stroke-miterlimit: 6;" fill="none" stroke="#fffffe" d="M25,100L25,75" stroke-width="2" stroke-linecap="round" stroke-miterlimit="6" transform="translate(2600,1200)"/>
    <path style="stroke-linecap: round; stroke-miterlimit: 6;" fill="none" stroke="#fffffe" d="M25,56.49892L25,35.05936" stroke-width="1.49310875" stroke-linecap="round" stroke-miterlimit="6" transform="translate(2600,1200)"/>
    <path fill="#fffffe" stroke="none" d="M20.099545,48.53562C23.162335,54.66122,23.162335,56.49892,25,65.68722C26.837665,56.49892,26.837665,54.66122,29.900455,48.53562C26.225105,49.76072,23.774885,49.76072,20.099545,48.53562" transform="translate(2600,1200)"/>
    <text style="font-family: Arial; font-weight: bold; font-size: 16px; text-anchor: start;" x="0" y="0" text-anchor="start" stroke="none" fill="#fffffe" transform="translate(2656.25,1250)">
      <tspan dy="-2.3999999999999995">?</tspan>
      <tspan dy="19.2" x="0">1 A</tspan>
    </text>
    <path style="stroke-linecap: round; stroke-miterlimit: 6;" fill="#000000" stroke="#fffffe" d="M50,50C50,36.19374,38.806255,25,25,25C11.193755,25,0,36.19374,0,50C0,63.80632,11.193755,75,25,75C38.806255,75,50,63.80632,50,50" stroke-width="2" stroke-linecap="round" stroke-miterlimit="6" transform="matrix(0,1,-1,0,2675,1400)"/>
    <path style="stroke-linecap: round; stroke-miterlimit: 6;" fill="none" stroke="#fffffe" d="M25,0L25,25" stroke-width="2" stroke-linecap="round" stroke-miterlimit="6" transform="matrix(0,1,-1,0,2675,1400)"/>
    <path style="stroke-linecap: round; stroke-miterlimit: 6;" fill="none" stroke="#fffffe" d="M25,100.00002L25,75" stroke-width="2" stroke-linecap="round" stroke-miterlimit="6" transform="matrix(0,1,-1,0,2675,1400)"/>
    <path style="font-size: 15px; font-weight: normal;" fill="#fffffe" stroke="none" d="M25.84227,33.168L24.157737,33.168L24.157737,40.48806L16.898932,40.48806L16.898932,42.17259L24.157737,42.17259L24.157737,49.49262L25.84227,49.49262L25.84227,42.17259L33.101076,42.17259L33.101076,40.48806L25.84227,40.48806L25.84227,33.168" font-size="15px" font-weight="normal" transform="matrix(0,1,-1,0,2675,1400)"/>
    <path style="font-size: 15px; font-weight: normal;" fill="#fffffe" stroke="none" d="M17.006089,60.39372L17.006089,62.07822L33.055093,62.07822L33.055093,60.39372L17.006089,60.39372" font-size="15px" font-weight="normal" transform="matrix(0,1,-1,0,2675,1400)"/>
    <text style="font-family: Arial; font-weight: bold; font-size: 16px; text-anchor: middle;" x="0" y="0" text-anchor="middle" stroke="none" fill="#fffffe" transform="translate(2625,1465.85)">
      <tspan dy="7.2">?</tspan>
    </text>
    <text style="font-family: Arial; font-weight: bold; text-anchor: start; font-size: 24px;" x="0" y="0" text-anchor="start" stroke="none" fill="#fffffe" transform="translate(2475,1189)">
      <tspan dy="-3.599999999999998">Mystery Circuit</tspan>
      <tspan dy="28.799999999999997" x="0"/>
    </text>
    <path style="stroke-linecap: round;" fill="none" stroke="#fffffe" d="M 2700 1250 L 2775 1250" stroke-width="2" stroke-linecap="round" class="cl_wire"/>
    <path style="stroke-linecap: round;" fill="none" stroke="#fffffe" d="M 2700 1400 L 2775 1400" stroke-width="2" stroke-linecap="round" class="cl_wire"/>
    <rect x="7" y="7" width="46" height="29" r="5" rx="5" ry="5" fill="#000000" stroke="#fffffe" stroke-width="2" transform="translate(2775,1200)"/>
    <text style="font-family: Arial; font-weight: bold; font-size: 16px; text-anchor: start;" x="12" y="22" text-anchor="start" stroke="none" fill="#fffffe" transform="translate(2775,1200)">
      <tspan dy="7.2">Vout</tspan>
    </text>
    <path style="stroke-linecap: round; stroke-miterlimit: 6;" fill="none" stroke="#fffffe" d="M25,20L25,0" stroke-width="2" stroke-linecap="round" stroke-miterlimit="6" transform="translate(2750,1400)"/>
    <path style="stroke-linecap: round; stroke-linejoin: round; stroke-miterlimit: 6;" fill="#000000" stroke="#fffffe" d="M5,20L25,40L45,20Z" stroke-width="2" stroke-linecap="round" stroke-linejoin="round" stroke-miterlimit="6" transform="translate(2750,1400)"/>
  </g>
</svg>
