<svg xmlns="http://www.w3.org/2000/svg" version="1.1" width="1000.0" height="912.863325986">
  <desc>Created by CircuitLab https://www.circuitlab.com/</desc><g transform="matrix(7.62086187355,0,0,7.62086187355,-18282.4476346,-9763.96433262)">
    <path style="stroke-linecap: round; stroke-miterlimit: 6;" fill="#000000" stroke="#ffffff" d="M50,50C50,36.19374,38.806255,25,25,25C11.193755,25,0,36.19374,0,50C0,63.80632,11.193755,75,25,75C38.806255,75,50,63.80632,50,50" stroke-width="2" stroke-linecap="round" stroke-miterlimit="6" transform="translate(2400,1300)"/>
    <path style="stroke-linecap: round; stroke-miterlimit: 6;" fill="none" stroke="#fffffe" d="M25,0L25,25" stroke-width="2" stroke-linecap="round" stroke-miterlimit="6" transform="translate(2400,1300)"/>
    <path style="stroke-linecap: round; stroke-miterlimit: 6;" fill="none" stroke="#fffffe" d="M25,100.00002L25,75" stroke-width="2" stroke-linecap="round" stroke-miterlimit="6" transform="translate(2400,1300)"/>
    <path style="font-size: 15px; font-weight: normal;" fill="#fffffe" stroke="none" d="M25.84227,33.168L24.157737,33.168L24.157737,40.48806L16.898932,40.48806L16.898932,42.17259L24.157737,42.17259L24.157737,49.49262L25.84227,49.49262L25.84227,42.17259L33.101076,42.17259L33.101076,40.48806L25.84227,40.48806L25.84227,33.168" font-size="15px" font-weight="normal" transform="translate(2400,1300)"/>
    <path style="font-size: 15px; font-weight: normal;" fill="#fffffe" stroke="none" d="M17.006089,60.39372L17.006089,62.07822L33.055093,62.07822L33.055093,60.39372L17.006089,60.39372" font-size="15px" font-weight="normal" transform="translate(2400,1300)"/>
    <text style="font-family: Arial; font-weight: bold; font-size: 16px; text-anchor: start;" x="0" y="0" text-anchor="start" stroke="none" fill="#fffffe" transform="translate(2456.25,1350)">
      <tspan dy="7.2">V</tspan>
    </text>
    <path style="stroke-linecap: round; stroke-miterlimit: 6;" fill="none" stroke="#fffffe" d="M25,21.87499L25,0" stroke-width="2" stroke-linecap="round" stroke-miterlimit="6" transform="translate(2475,1300)"/>
    <path style="stroke-linecap: round; stroke-miterlimit: 6;" fill="none" stroke="#fffffe" d="M25,78.12502L25,100" stroke-width="2" stroke-linecap="round" stroke-miterlimit="6" transform="translate(2475,1300)"/>
    <path style="stroke-linecap: round; stroke-miterlimit: 6;" fill="none" stroke="#fffffe" d="M25,21.87499L14.062504,26.56249L35.937495,35.93748L14.062504,45.31248L35.937495,54.68752L14.062504,64.06252L35.937495,73.43752L25,78.12502" stroke-width="2" stroke-linecap="round" stroke-miterlimit="6" transform="translate(2475,1300)"/>
    <text style="font-family: Arial; font-weight: bold; font-size: 16px; text-anchor: start;" x="0" y="0" text-anchor="start" stroke="none" fill="#fffffe" transform="translate(2518.75,1350)">
      <tspan dy="7.2">R</tspan>
    </text>
    <path style="stroke-linecap: round;" fill="none" stroke="#fffffe" d="M 2425 1300 L 2500 1300" stroke-width="2" stroke-linecap="round" class="cl_wire"/>
    <path style="stroke-linecap: round;" fill="none" stroke="#fffffe" d="M 2425 1400 L 2500 1400" stroke-width="2" stroke-linecap="round" class="cl_wire"/>
    <text style="font-family: Arial; font-weight: bold; text-anchor: start; font-size: 18px;" x="0" y="0" text-anchor="start" stroke="none" fill="#fffffe" transform="translate(2475,1286)">
      <tspan dy="8.1">I→</tspan>
    </text>
  </g>
</svg>
